<svg width="471" height="471" viewBox="0 0 471 471" fill="none" xmlns="http://www.w3.org/2000/svg">
<path d="M114.411 200.578C113.735 202.561 113.199 204.58 112.807 206.623H95.2169C95.5559 204.619 95.7781 202.602 95.8826 200.578H114.411Z" fill="#282833"/>
<path d="M31.6982 304.963C31.6982 304.93 31.7106 304.899 31.7205 304.864L31.7056 304.963H31.6982Z" fill="#B74129"/>
<path d="M45.4928 309.958C46.9329 305.023 47.1868 299.872 46.2379 294.844C46.1254 293.542 45.5219 292.312 44.5258 291.354C43.5297 290.396 42.1994 289.767 40.7513 289.569C32.9972 288.98 29.1002 300.765 27.7839 306.488C27.5676 306.912 27.4574 307.374 27.461 307.841C18.5891 302.052 13.1399 288.834 29.7982 235.676C44.3478 189.242 61.9971 175.127 75.1733 175.572C62.0493 175.459 44.6384 189.769 30.2502 235.676C22.8487 259.298 19.8186 274.994 19.4758 285.681C20.2731 286.046 21.0778 286.396 21.8775 286.744C33.5312 291.795 51.2873 284.208 69.5203 230.094C78.6083 203.117 83.0939 188.086 83.9682 178.287C85.6306 179.329 87.1184 180.576 88.3867 181.992C93.4808 187.647 96.2477 191.992 95.8727 200.578C95.7682 202.602 95.546 204.619 95.207 206.623C93.605 216.433 89.184 230.851 81.2981 254.275C67.3719 295.615 53.7288 309.785 42.86 311.928C43.8167 311.36 44.6998 310.699 45.4928 309.958Z" fill="#0268CE"/>
<path d="M40.2745 312.017C43.6921 312.416 45.242 310.846 45.4903 309.958C46.9304 305.023 47.1843 299.872 46.2354 294.844C46.1229 293.542 45.5195 292.312 44.5233 291.354C43.5272 290.396 42.1969 289.767 40.7489 289.569C31.353 288.854 27.4014 307.028 27.3616 307.772C27.3541 308.178 27.4367 308.582 27.6048 308.959C27.7728 309.337 28.023 309.681 28.3409 309.972C28.6588 310.263 29.038 310.495 29.457 310.655C29.8759 310.815 30.3261 310.899 30.7817 310.903L30.8637 310.914L32.3141 305.194C32.601 304.114 33.3535 303.178 34.4087 302.589C35.4639 301.999 36.7369 301.804 37.9522 302.045C38.5529 302.161 39.1222 302.381 39.6276 302.692C40.1329 303.004 40.5644 303.401 40.8972 303.862C41.2301 304.322 41.458 304.837 41.5676 305.376C41.6772 305.915 41.6666 306.468 41.5362 307.004L40.2745 312.017Z" fill="#002760"/>
<path d="M27.8633 323.036L30.8761 310.914L32.3265 305.194C32.6135 304.114 33.366 303.178 34.4211 302.589C35.4763 301.999 36.7493 301.804 37.9646 302.045C38.5654 302.161 39.1346 302.381 39.64 302.692C40.1453 303.004 40.5768 303.401 40.9097 303.862C41.2425 304.322 41.4703 304.837 41.5799 305.376C41.6896 305.915 41.679 306.468 41.5486 307.004L40.2745 312.017L40.2223 312.223L37.6144 322.761C36.8182 322.531 36.0014 322.362 35.1729 322.257C32.7017 321.951 30.1838 322.219 27.8633 323.036Z" fill="#18689E"/>
<path d="M21.8874 286.743C21.0877 286.396 20.283 286.046 19.4857 285.681C19.8186 274.994 22.8586 259.298 30.2601 235.676C44.6483 189.769 62.0517 175.459 75.1832 175.572C78.3471 175.702 81.4015 176.645 83.9781 178.287C83.0293 190.637 74.2915 215.946 69.5302 230.094C51.2972 284.208 33.5411 291.799 21.8874 286.743Z" fill="#18689E"/>
<path d="M180.9 209.692C197.439 211.949 226.206 212.232 231.737 212.294C231.737 212.385 269.01 212.221 284.814 210.064C300.757 207.887 332.253 189.089 340.268 179.162C333.541 176.557 326.331 175.085 319.003 174.819H260.168L244.051 187.39C243.87 188.626 243.19 189.761 242.139 190.582C241.088 191.404 239.737 191.856 238.339 191.855H217.446C216.029 191.86 214.659 191.398 213.6 190.558C212.542 189.717 211.869 188.558 211.711 187.302L195.984 174.819H148.232C140.849 174.718 133.546 176.197 126.937 179.133L126.966 179.162C136.131 189.271 165.469 207.584 180.9 209.692Z" fill="#18689E"/>
<path d="M361.407 217.137C361.448 212.523 360.92 207.919 359.833 203.408C359.327 201.353 358.663 199.333 357.846 197.36C354.791 189.519 348.504 183.009 340.261 179.151C331.094 189.26 301.386 206.55 285.954 208.656C251.177 212.305 216.04 212.305 181.263 208.656C165.832 206.55 136.124 189.26 126.959 179.151C118.715 183.008 112.427 189.519 109.372 197.36C108.554 199.333 107.89 201.353 107.385 203.408C106.297 207.919 105.769 212.523 105.81 217.137C105.81 218.39 105.904 219.781 106.058 221.236L106.043 221.214C106.058 221.367 106.086 221.535 106.101 221.688C108.184 241.122 121.164 272.294 129.659 290.311C135.675 303.191 142.461 315.774 149.988 328.005C158.701 341.916 167.101 352.236 173.452 355.174C175.297 356.027 177.267 356.815 179.323 357.544C179.621 357.65 179.924 357.75 180.225 357.851L233.625 358.531L287.025 357.851C287.325 357.75 287.631 357.65 287.926 357.544C289.983 356.815 291.953 356.027 293.798 355.174C300.149 352.236 308.551 341.916 317.264 328.005C324.786 315.774 331.565 303.192 337.574 290.313C346.068 272.297 359.05 241.124 361.132 221.69C361.147 221.537 361.174 221.369 361.189 221.216L361.174 221.238C361.313 219.781 361.407 218.39 361.407 217.137Z" fill="#0268CE"/>
<path d="M118.623 102.243V82.1515C118.642 80.3779 119.331 78.6619 120.579 77.2807C121.827 75.8995 123.561 74.934 125.501 74.5404C124.832 74.397 124.147 74.3227 123.459 74.319H120.663C118.316 74.3107 116.062 75.1304 114.391 76.5992C112.721 78.0679 111.77 80.0664 111.746 82.1581V102.243C111.77 104.335 112.721 106.333 114.391 107.802C116.062 109.271 118.316 110.091 120.663 110.082H123.459C124.147 110.079 124.832 110.004 125.501 109.861C123.56 109.467 121.825 108.5 120.577 107.118C119.329 105.735 118.64 104.018 118.623 102.243Z" fill="#0080FF"/>
<path d="M126.072 79.266V75.8913C126.072 75.3997 126.097 74.9147 126.114 74.4297C125.908 74.4585 125.702 74.4873 125.501 74.5293C123.561 74.9229 121.827 75.8884 120.579 77.2696C119.331 78.6508 118.642 80.3668 118.623 82.1404V102.243C118.642 104.017 119.331 105.733 120.579 107.114C121.827 108.495 123.561 109.461 125.501 109.854C125.687 109.894 125.878 109.923 126.072 109.952V79.266Z" fill="#002760"/>
<path d="M22.5407 467.796C23.0821 471.605 29.9645 471.654 29.4156 467.796C28.5562 461.736 27.6953 455.676 26.8326 449.616C24.4557 449.591 22.1135 449.467 19.903 449.248L22.5407 467.796Z" fill="#002760"/>
<path d="M38.3198 465.046C38.8613 468.855 45.7436 468.903 45.1972 465.046L42.8128 448.278C40.5846 448.695 38.3339 449.011 36.0695 449.224L38.3198 465.046Z" fill="#002760"/>
<path d="M238.326 158.171C239.246 158.176 240.151 158.377 240.967 158.756C241.91 158.337 242.704 157.694 243.261 156.897C243.819 156.1 244.117 155.182 244.124 154.243V152.048C244.116 151.138 243.835 150.247 243.308 149.468C242.782 148.689 242.029 148.05 241.131 147.619H214.639C213.743 148.051 212.993 148.69 212.468 149.47C211.944 150.249 211.664 151.139 211.659 152.048V154.243C211.665 155.182 211.963 156.101 212.52 156.898C213.078 157.694 213.872 158.338 214.816 158.756C215.631 158.377 216.536 158.176 217.456 158.171H238.326Z" fill="#002760"/>
<path d="M238.326 169.389C239.246 169.395 240.151 169.595 240.967 169.974C241.91 169.556 242.704 168.914 243.262 168.117C243.819 167.321 244.117 166.402 244.124 165.463V163.266C244.117 162.328 243.819 161.409 243.262 160.612C242.704 159.816 241.91 159.173 240.967 158.756C240.151 158.377 239.246 158.176 238.326 158.171H217.446C216.526 158.176 215.621 158.377 214.806 158.756C213.862 159.173 213.068 159.816 212.51 160.612C211.953 161.409 211.655 162.328 211.649 163.266V165.463C211.654 166.402 211.952 167.321 212.509 168.117C213.066 168.913 213.86 169.556 214.803 169.974C215.62 169.595 216.525 169.395 217.446 169.389H238.326Z" fill="#154B8C"/>
<path d="M189.392 28.0084V10.5808C189.368 8.42971 188.39 6.37461 186.672 4.86434C184.954 3.35406 182.635 2.51133 180.222 2.52021C177.81 2.51133 175.491 3.35406 173.773 4.86434C172.055 6.37461 171.077 8.42971 171.052 10.5808V28.7392C174.188 28.2497 177.365 28.0023 180.548 27.9996L189.392 28.0084ZM174.11 10.7358C174.093 9.65486 174.437 8.59389 175.099 7.68783C175.76 6.78178 176.709 6.07159 177.824 5.64755C178.939 5.2235 180.171 5.10477 181.362 5.30647C182.553 5.50817 183.65 6.02117 184.514 6.78024C185.377 7.53932 185.968 8.51016 186.21 9.56931C186.453 10.6285 186.337 11.7281 185.877 12.7283C185.417 13.7285 184.634 14.5841 183.627 15.1863C182.62 15.7885 181.435 16.1101 180.222 16.1102C178.614 16.1197 177.068 15.5601 175.922 14.5542C174.776 13.5483 174.124 12.1783 174.11 10.7447V10.7358Z" fill="#0080FF"/>
<path d="M252.861 6.5505H265.183C270.306 6.53215 275.264 8.16349 279.146 11.1445C283.027 14.1255 285.571 18.2558 286.31 22.7757C286.448 21.9063 286.521 21.0297 286.528 20.1516C286.468 14.7742 284.023 9.63665 279.728 5.86095C275.433 2.08526 269.637 -0.0217459 263.606 0.000169259H254.436C248.405 -0.0211637 242.609 2.08602 238.314 5.8616C234.019 9.63717 231.575 14.7744 231.514 20.1516C231.522 21.0297 231.595 21.9064 231.735 22.7757C232.473 18.2556 235.016 14.1251 238.898 11.144C242.78 8.16286 247.738 6.53169 252.861 6.5505Z" fill="#0268CE"/>
<path d="M272.028 43.8306H294.359C304.97 43.7751 315.172 47.4742 322.728 54.1163C330.284 60.7585 334.577 69.8014 334.665 79.2617V75.8913C334.584 64.0527 329.613 52.6559 320.701 43.8791C311.79 35.1023 299.564 29.5609 286.359 28.314C285.854 31.8419 284.241 35.1706 281.705 37.916C279.169 40.6615 275.815 42.7118 272.028 43.8306Z" fill="#0268CE"/>
<path d="M126.072 79.266C126.16 69.8058 130.453 60.7629 138.009 54.1207C145.565 47.4786 155.767 43.7796 166.378 43.835H246.019C242.173 42.7027 238.772 40.6098 236.221 37.8051C233.67 35.0004 232.076 31.6017 231.628 28.0128H180.538C177.355 28.0155 174.178 28.263 171.042 28.7525C158.799 30.5955 147.644 36.147 139.457 44.4704C131.271 52.7939 126.555 63.38 126.104 74.443C126.087 74.928 126.062 75.4129 126.062 75.9045L126.072 79.266Z" fill="#0268CE"/>
<path d="M213.874 89.7536H193.684C186.494 93.9367 178.769 97.8873 172.483 92.36C171.455 91.4268 170.719 90.2703 170.347 89.0052C169.33 87.9551 168.798 86.6003 168.857 85.214C168.823 84.5078 168.947 83.8027 169.22 83.1392C169.493 82.4756 169.911 81.8668 170.449 81.3476C172.374 73.3314 178.769 63.0342 185.433 53.9063H166.381C158.786 53.8668 151.485 56.5146 146.077 61.2688C140.67 66.023 137.599 72.4954 137.537 79.266V112.179C137.599 118.95 140.671 125.421 146.078 130.175C151.486 134.929 158.787 137.576 166.381 137.537H190.202C198.947 127.931 218.755 104.074 213.874 89.7536Z" fill="#002760"/>
<path d="M285.947 78.254C311.596 82.9199 284.012 120.583 270.078 137.537H294.359C301.953 137.577 309.255 134.93 314.663 130.176C320.071 125.422 323.143 118.95 323.205 112.179V79.266C323.143 72.4952 320.071 66.0228 314.663 61.2687C309.256 56.5145 301.954 53.8668 294.359 53.9063H253.097C242.477 70.7471 255.899 72.791 285.947 78.254Z" fill="#002760"/>
<path d="M294.359 147.613C304.97 147.668 315.172 143.969 322.728 137.327C330.284 130.685 334.577 121.642 334.665 112.181V79.2616C334.577 69.8014 330.284 60.7584 322.728 54.1163C315.172 47.4742 304.97 43.7751 294.359 43.8306H272.028C275.812 42.713 279.165 40.665 281.701 37.9225C284.236 35.18 285.851 31.8546 286.359 28.3295C286.467 27.5833 286.523 26.832 286.528 26.0796V25.3223C286.521 24.4722 286.448 23.6235 286.31 22.7823C285.571 18.2624 283.027 14.1322 279.146 11.1512C275.264 8.17013 270.306 6.53876 265.183 6.55711H252.861C247.738 6.53829 242.78 8.1695 238.898 11.1506C235.016 14.1317 232.473 18.2622 231.735 22.7823C231.596 23.6235 231.522 24.4721 231.514 25.3223V26.0796C231.514 26.7261 231.552 27.3721 231.628 28.015C232.076 31.6039 233.67 35.0026 236.221 37.8073C238.772 40.612 242.173 42.7049 246.019 43.8372H166.381C155.77 43.7818 145.567 47.4808 138.011 54.1229C130.455 60.7651 126.163 69.808 126.075 79.2683V112.181C126.163 121.642 130.455 130.685 138.011 137.327C145.567 143.969 155.77 147.668 166.381 147.613H294.362H294.359ZM238.391 26.0663V25.309C238.423 21.9127 239.964 18.6662 242.676 16.2816C245.389 13.8971 249.052 12.5692 252.861 12.5893H265.183C268.992 12.5692 272.655 13.8972 275.367 16.2818C278.079 18.6664 279.62 21.9129 279.651 25.309V26.0663C279.619 29.4623 278.078 32.7084 275.366 35.0929C272.654 37.4774 268.992 38.8055 265.183 38.7861H252.861C249.052 38.8061 245.389 37.4783 242.676 35.0937C239.964 32.7092 238.423 29.4627 238.391 26.0663ZM190.207 137.53H166.381C158.787 137.57 151.486 134.922 146.078 130.168C140.671 125.415 137.599 118.943 137.537 112.173V79.266C137.599 72.4954 140.67 66.023 146.077 61.2688C151.485 56.5146 158.786 53.8668 166.381 53.9063H294.362C301.956 53.8668 309.258 56.5145 314.666 61.2686C320.073 66.0228 323.145 72.4951 323.208 79.266V112.179C323.145 118.95 320.073 125.422 314.666 130.176C309.258 134.93 301.956 137.577 294.362 137.537H190.199L190.207 137.53Z" fill="#0080FF"/>
<path d="M265.183 38.7927C268.991 38.8092 272.651 37.4789 275.361 35.0933C278.071 32.7077 279.609 29.4615 279.638 26.0664V25.309C279.607 21.9129 278.067 18.6664 275.355 16.2818C272.642 13.8972 268.98 12.5692 265.171 12.5893H252.849C249.039 12.5692 245.377 13.8971 242.664 16.2816C239.951 18.6662 238.41 21.9127 238.379 25.309V26.0664C238.41 29.4627 239.951 32.7092 242.664 35.0937C245.377 37.4783 249.039 38.8061 252.849 38.7861L265.183 38.7927ZM270.2 21.664C271.091 21.6749 271.959 21.9206 272.694 22.37C273.43 22.8194 273.999 23.4526 274.332 24.19C274.665 24.9273 274.745 25.7358 274.564 26.514C274.382 27.2921 273.947 28.005 273.312 28.5631C272.678 29.1213 271.872 29.4997 270.997 29.6507C270.122 29.8018 269.216 29.7188 268.394 29.4122C267.572 29.1056 266.869 28.5891 266.375 27.9276C265.881 27.266 265.618 26.4891 265.618 25.6943C265.626 24.6182 266.114 23.5891 266.973 22.8333C267.832 22.0776 268.993 21.657 270.2 21.664ZM244.988 25.6943C244.969 24.478 245.356 23.2839 246.1 22.2642C246.844 21.2445 247.911 20.4452 249.166 19.9679C250.421 19.4906 251.807 19.3569 253.148 19.5838C254.488 19.8107 255.723 20.388 256.694 21.2423C257.665 22.0965 258.33 23.189 258.603 24.3809C258.876 25.5728 258.745 26.8102 258.227 27.9356C257.709 29.0611 256.828 30.0237 255.694 30.7011C254.561 31.3785 253.227 31.7401 251.863 31.7397C250.966 31.7459 250.076 31.5943 249.245 31.2938C248.413 30.9932 247.657 30.5495 247.018 29.9881C246.379 29.4267 245.87 28.7585 245.521 28.0218C245.172 27.285 244.989 26.4941 244.983 25.6943H244.988Z" fill="#002760"/>
<path d="M251.86 31.7397C255.659 31.7397 258.738 29.0331 258.738 25.6943C258.738 22.3555 255.659 19.6489 251.86 19.6489C248.062 19.6489 244.983 22.3555 244.983 25.6943C244.983 29.0331 248.062 31.7397 251.86 31.7397Z" fill="#154B8C"/>
<path d="M270.2 29.7246C271.091 29.7137 271.959 29.4681 272.694 29.0186C273.43 28.5692 273.999 27.936 274.332 27.1987C274.665 26.4613 274.745 25.6528 274.564 24.8747C274.382 24.0966 273.947 23.3836 273.313 22.8255C272.678 22.2674 271.872 21.889 270.997 21.7379C270.122 21.5868 269.216 21.6698 268.394 21.9764C267.572 22.283 266.869 22.7996 266.375 23.4611C265.881 24.1226 265.618 24.8996 265.618 25.6943C265.626 26.7705 266.114 27.7996 266.973 28.5554C267.832 29.3111 268.993 29.7317 270.2 29.7246Z" fill="#154B8C"/>
<path d="M292.216 212.301C293.083 212.17 293.572 212.079 293.572 212.079L292.216 212.301Z" fill="#EA5D4E"/>
<path d="M145.952 184.428L145.917 184.447C145.917 184.447 145.934 184.447 145.944 184.447L145.952 184.428Z" fill="#D35950"/>
<path d="M241.96 180.623C242.631 181.092 243.174 181.69 243.548 182.372C243.923 183.054 244.12 183.803 244.124 184.563V186.759C244.113 186.971 244.089 187.182 244.051 187.39L260.168 174.819H244.121V176.681C244.117 177.441 243.921 178.19 243.547 178.873C243.173 179.556 242.63 180.154 241.96 180.623Z" fill="#0268CE"/>
<path d="M211.649 186.759V184.563C211.652 183.803 211.849 183.054 212.223 182.372C212.597 181.69 213.139 181.092 213.81 180.623C213.139 180.154 212.597 179.556 212.223 178.873C211.848 178.19 211.652 177.441 211.649 176.681V174.819H195.984L211.711 187.302C211.679 187.122 211.658 186.941 211.649 186.759Z" fill="#0268CE"/>
<path d="M213.82 180.623C214.848 179.878 216.131 179.47 217.456 179.467H238.336C239.66 179.47 240.943 179.878 241.97 180.623C242.641 180.154 243.184 179.556 243.558 178.873C243.933 178.191 244.13 177.441 244.133 176.681V174.487C244.127 173.548 243.829 172.629 243.271 171.832C242.714 171.035 241.92 170.392 240.977 169.974C240.161 169.595 239.256 169.395 238.336 169.389H217.446C216.525 169.395 215.62 169.595 214.803 169.974C213.861 170.392 213.067 171.036 212.51 171.832C211.953 172.629 211.655 173.548 211.649 174.487V176.681C211.654 177.442 211.851 178.192 212.227 178.874C212.603 179.557 213.148 180.155 213.82 180.623Z" fill="#002760"/>
<path d="M244.121 184.563C244.117 183.803 243.92 183.054 243.546 182.372C243.171 181.69 242.628 181.092 241.958 180.623C240.931 179.878 239.648 179.47 238.324 179.467H217.446C216.121 179.47 214.838 179.878 213.81 180.623C213.139 181.092 212.597 181.69 212.223 182.372C211.849 183.054 211.652 183.803 211.649 184.563V186.759C211.658 186.941 211.679 187.122 211.711 187.302C211.869 188.558 212.542 189.717 213.6 190.558C214.659 191.398 216.029 191.86 217.446 191.855H238.326C239.724 191.856 241.075 191.404 242.126 190.582C243.178 189.761 243.858 188.626 244.039 187.39C244.077 187.182 244.101 186.971 244.111 186.759L244.121 184.563Z" fill="#154B8C"/>
<path d="M29.2592 319.562C26.6772 319.987 24.2777 321.042 22.3265 322.608C20.3753 324.175 18.9485 326.192 18.2041 328.437C13.5694 342.678 5.80042 368.673 3.4384 389.436C0.00092822 419.665 -3.43902 439.817 6.87588 445.862C17.1908 451.908 48.6968 450.495 56.1604 442.839C63.0353 435.786 50.4279 411.605 48.1379 382.385C47.1096 369.28 46.6204 339.91 46.3025 331.489C46.2116 329.311 45.4873 327.191 44.2006 325.338C42.9139 323.485 41.109 321.962 38.963 320.919C36.0134 319.449 32.5716 318.969 29.2592 319.564V319.562Z" fill="#0045A8"/>
<path d="M21.3932 409.59C22.9232 436.123 29.0356 440.488 44.3154 435.115C52.2484 432.325 37.4405 398.17 38.968 372.644C40.4955 347.118 43.553 337.377 34.7656 337.042C27.1331 336.752 19.8657 383.056 21.3932 409.59Z" fill="#009DE2"/>
<path d="M6.11087 425.04C9.93332 445.856 15.2808 435.115 15.2808 425.704C15.2808 416.293 12.2258 402.193 15.2808 384.057C18.3358 365.921 21.3933 337.036 21.3933 337.036C21.3933 337.036 2.2909 404.215 6.11087 425.04Z" fill="#18689E"/>
<path d="M358.767 199.8C359.443 201.783 359.979 203.803 360.372 205.846H377.961C377.622 203.842 377.4 201.824 377.296 199.8H358.767Z" fill="#282833"/>
<path d="M441.48 304.199C441.48 304.164 441.468 304.133 441.458 304.1L441.473 304.199H441.48Z" fill="#B74129"/>
<path d="M427.686 309.18C426.245 304.246 425.991 299.095 426.94 294.067C427.053 292.765 427.657 291.535 428.653 290.577C429.649 289.62 430.979 288.99 432.427 288.792C440.181 288.203 444.078 299.988 445.394 305.71C445.611 306.136 445.721 306.598 445.717 307.065C454.589 301.277 460.039 288.057 443.38 234.901C428.831 188.467 411.181 174.35 398.005 174.797C411.129 174.682 428.54 188.992 442.928 234.901C450.33 258.521 453.36 274.216 453.703 284.903C452.905 285.271 452.1 285.619 451.301 285.966C439.647 291.017 421.889 283.431 403.658 229.316C394.57 202.34 390.084 187.311 389.21 177.51C387.548 178.552 386.06 179.8 384.792 181.217C379.698 186.87 376.931 191.215 377.306 199.8C377.41 201.824 377.632 203.842 377.971 205.846C379.573 215.656 383.994 230.074 391.88 253.498C405.806 294.837 419.449 309.01 430.318 311.151C429.361 310.584 428.478 309.923 427.686 309.18Z" fill="#0268CE"/>
<path d="M431.63 306.226C431.499 305.691 431.489 305.138 431.598 304.599C431.708 304.06 431.936 303.545 432.269 303.085C432.602 302.624 433.033 302.227 433.538 301.915C434.044 301.603 434.613 301.383 435.214 301.268C436.429 301.028 437.702 301.224 438.757 301.814C439.812 302.403 440.564 303.339 440.852 304.419L442.302 310.137H442.384C442.84 310.133 443.29 310.049 443.709 309.889C444.128 309.729 444.507 309.497 444.825 309.206C445.143 308.915 445.393 308.571 445.561 308.193C445.729 307.815 445.812 307.412 445.804 307.006C445.765 306.262 441.813 288.088 432.417 288.801C430.969 288.999 429.639 289.628 428.643 290.586C427.647 291.544 427.044 292.773 426.931 294.076C425.982 299.104 426.235 304.254 427.676 309.189C427.924 310.075 429.476 311.647 432.891 311.249L431.63 306.226Z" fill="#002760"/>
<path d="M444.091 317.19L442.302 310.137L440.852 304.419C440.564 303.339 439.812 302.403 438.757 301.814C437.702 301.224 436.429 301.028 435.214 301.268C434.613 301.383 434.044 301.603 433.538 301.915C433.033 302.227 432.601 302.624 432.269 303.085C431.936 303.545 431.708 304.06 431.598 304.599C431.489 305.138 431.499 305.691 431.63 306.226L432.901 311.24L432.956 311.446L434.342 316.915C435.138 316.685 435.955 316.516 436.783 316.41C439.254 316.103 441.771 316.372 444.091 317.19Z" fill="#18689E"/>
<path d="M451.291 285.966C452.091 285.619 452.895 285.271 453.693 284.903C453.36 274.216 450.32 258.52 442.918 234.901C428.53 188.992 411.127 174.682 397.995 174.797C394.832 174.927 391.778 175.869 389.2 177.51C390.149 189.86 398.887 215.171 403.648 229.316C421.879 283.431 439.637 291.017 451.291 285.966Z" fill="#18689E"/>
<path d="M170.354 89.0052C170.726 90.2703 171.463 91.4268 172.49 92.36C178.777 97.8961 186.501 93.9367 193.692 89.7536H172.163C171.82 89.744 171.483 89.6727 171.173 89.5441C170.862 89.4155 170.584 89.2322 170.354 89.0052Z" fill="#0268CE"/>
<path d="M285.947 78.254C255.894 72.7888 242.482 70.7471 253.097 53.9063H185.436C178.772 63.0342 172.376 73.3313 170.451 81.3476C170.901 80.9378 171.512 80.6997 172.155 80.6833H287.618C289.439 80.6833 290.914 82.7139 290.914 85.2207C290.914 87.7274 289.439 89.7603 287.618 89.7603H213.874C218.755 104.081 198.947 127.944 190.199 137.543H270.078C284.012 120.583 311.596 82.9199 285.947 78.254Z" fill="#0268CE"/>
<path d="M283.563 360.374C284.496 360.002 285.433 359.63 286.342 359.209C278.061 362.139 269.452 364.273 260.663 365.573C268.548 364.89 276.271 363.136 283.563 360.374Z" fill="#B74129"/>
<path d="M190.987 360.941C185.972 359.568 182.473 358.356 180.828 357.756L180.848 358.133C184.08 359.202 187.492 360.13 190.987 360.941Z" fill="#B74129"/>
<path d="M165.322 209.712L135.048 194.971C135.048 194.971 117.854 201.937 143.071 271.614C164.48 330.762 176.797 352.603 180.031 357.856C180.607 358.79 180.9 359.209 180.9 359.209L180.848 358.133L180.828 357.756C180.143 357.506 179.753 357.353 179.753 357.353C179.753 357.353 169.57 310.553 163.708 280.616C163.075 277.388 162.548 274.024 162.101 270.598C160.519 260.793 159.829 250.889 160.04 240.984L165.322 209.712Z" fill="#0080FF"/>
<path d="M162.563 272.556C162.399 271.942 162.248 271.285 162.101 270.598C162.548 274.024 163.075 277.388 163.708 280.616C169.58 310.553 179.753 357.353 179.753 357.353C179.753 357.353 180.143 357.506 180.828 357.756C182.473 358.356 185.972 359.568 190.987 360.941C213.517 367.179 237.344 368.764 260.663 365.573C269.452 364.273 278.061 362.139 286.342 359.209L290.433 273.8C281.061 291.6 167.044 289.303 162.563 272.556ZM169.676 287.35C169.555 287.214 169.468 287.057 169.419 286.888C169.371 286.72 169.362 286.544 169.395 286.373C169.427 286.201 169.5 286.038 169.608 285.893C169.716 285.748 169.857 285.625 170.022 285.532C170.066 285.174 170.252 284.841 170.545 284.594C170.839 284.347 171.222 284.2 171.626 284.181C172.069 284.154 172.512 284.234 172.908 284.413C173.305 284.592 173.639 284.863 173.877 285.197C174.115 285.532 174.247 285.917 174.259 286.313C174.271 286.709 174.163 287.1 173.946 287.446C173.706 287.757 173.382 288.01 173.004 288.182C172.626 288.354 172.206 288.439 171.782 288.43C171.358 288.42 170.943 288.317 170.576 288.128C170.208 287.94 169.899 287.672 169.676 287.35ZM173.586 301.523C173.684 301.215 173.871 300.935 174.128 300.712C174.385 300.488 174.703 300.329 175.051 300.249C175.399 300.17 175.764 300.173 176.11 300.258C176.456 300.344 176.771 300.509 177.023 300.737C177.328 300.873 177.58 301.088 177.746 301.353C177.913 301.618 177.987 301.921 177.958 302.224C177.93 302.527 177.801 302.815 177.587 303.052C177.374 303.289 177.086 303.464 176.76 303.553C175.305 304.22 173.059 303.208 173.583 301.514L173.586 301.523ZM179.229 320.345C178.882 320.475 178.494 320.483 178.141 320.368C177.746 320.267 177.382 320.089 177.075 319.847C176.767 319.605 176.524 319.305 176.363 318.968C176.203 318.631 176.128 318.267 176.146 317.902C176.163 317.536 176.272 317.179 176.464 316.856C176.616 316.624 176.834 316.433 177.096 316.301C177.358 316.169 177.654 316.102 177.955 316.107C178.367 316.094 178.779 316.158 179.162 316.295C179.546 316.431 179.893 316.637 180.183 316.9C180.473 317.162 180.698 317.475 180.844 317.82C180.991 318.164 181.056 318.532 181.034 318.899C180.999 319.301 180.792 319.675 180.456 319.944C180.12 320.213 179.68 320.357 179.229 320.345ZM181.961 336.626C181.64 336.53 181.349 336.371 181.108 336.159C180.868 335.947 180.685 335.689 180.573 335.404C180.462 335.12 180.426 334.816 180.466 334.517C180.507 334.218 180.624 333.931 180.808 333.679C181.148 333.307 181.635 333.065 182.168 333.004C182.702 332.943 183.241 333.067 183.675 333.351C184.066 333.63 184.379 333.985 184.592 334.39C184.804 334.794 184.909 335.236 184.899 335.683C185.046 337.217 182.952 337.51 181.966 336.626H181.961ZM187.028 349.813C186.926 349.946 186.822 350.077 186.717 350.209C185.475 351.804 182.495 350.291 183.737 348.684L183.985 348.371L184.05 348.287C185.314 346.693 188.292 348.205 187.033 349.817L187.028 349.813ZM249.662 355.681H212.406C211.968 355.666 211.553 355.501 211.249 355.219C210.945 354.937 210.775 354.561 210.775 354.17C210.775 353.779 210.945 353.403 211.249 353.121C211.553 352.839 211.968 352.674 212.406 352.659H249.662C250.101 352.673 250.516 352.838 250.82 353.12C251.125 353.401 251.296 353.777 251.296 354.168C251.297 354.559 251.128 354.935 250.824 355.217C250.52 355.499 250.106 355.666 249.667 355.681H249.662ZM250.233 346.602H212.978C212.782 346.598 212.589 346.563 212.406 346.5C212.223 346.563 212.029 346.597 211.833 346.602C211.394 346.587 210.979 346.421 210.675 346.14C210.371 345.858 210.201 345.482 210.201 345.091C210.201 344.7 210.371 344.324 210.675 344.042C210.979 343.76 211.394 343.594 211.833 343.579C212.014 343.648 212.208 343.683 212.405 343.683C212.602 343.683 212.797 343.648 212.978 343.579H250.233C250.685 343.579 251.118 343.738 251.437 344.022C251.757 344.306 251.937 344.692 251.937 345.094C251.938 345.496 251.759 345.882 251.441 346.167C251.122 346.452 250.69 346.613 250.238 346.613L250.233 346.602ZM250.807 337.523H211.845C211.407 337.508 210.992 337.342 210.688 337.06C210.384 336.779 210.214 336.403 210.214 336.012C210.214 335.62 210.384 335.245 210.688 334.963C210.992 334.681 211.407 334.515 211.845 334.5H250.812C251.265 334.5 251.699 334.661 252.02 334.946C252.34 335.232 252.52 335.619 252.52 336.023C252.52 336.426 252.34 336.814 252.02 337.099C251.699 337.385 251.265 337.545 250.812 337.545L250.807 337.523ZM270.637 319.708C270.309 323.067 267.905 325.6 265.029 325.6H196.041C193.158 325.6 190.803 323.164 190.44 319.785L188.667 303.332C188.516 302.252 188.62 301.155 188.972 300.113C189.323 299.07 189.915 298.105 190.709 297.278C191.155 296.826 191.703 296.463 192.315 296.21C192.928 295.957 193.593 295.82 194.268 295.807H194.322L266.614 296.633C267.288 296.654 267.95 296.798 268.559 297.057C269.168 297.315 269.71 297.683 270.153 298.137C270.924 298.953 271.5 299.901 271.846 300.923C272.193 301.944 272.302 303.018 272.167 304.078L270.637 319.708ZM279.459 352.721C278.799 352.702 278.172 352.455 277.713 352.032C277.253 351.609 276.996 351.043 276.996 350.454C276.996 349.865 277.253 349.299 277.713 348.876C278.172 348.453 278.799 348.206 279.459 348.188C280.137 348.187 280.787 348.426 281.267 348.853C281.746 349.28 282.016 349.859 282.016 350.463C282.017 351.067 281.749 351.647 281.27 352.074C280.791 352.502 280.142 352.742 279.464 352.743L279.459 352.721ZM280.224 337.944C279.55 337.944 278.903 337.705 278.426 337.279C277.949 336.854 277.681 336.277 277.681 335.676C277.681 335.075 277.949 334.498 278.426 334.073C278.903 333.647 279.55 333.408 280.224 333.408C280.902 333.408 281.553 333.647 282.032 334.074C282.512 334.501 282.782 335.081 282.783 335.685C282.783 336.289 282.515 336.869 282.036 337.297C281.557 337.725 280.907 337.965 280.229 337.966L280.224 337.944ZM280.989 321.822C280.315 321.822 279.668 321.584 279.191 321.158C278.714 320.733 278.446 320.156 278.446 319.555C278.446 318.954 278.714 318.377 279.191 317.951C279.668 317.526 280.315 317.287 280.989 317.287C281.667 317.287 282.318 317.526 282.797 317.953C283.277 318.38 283.547 318.959 283.548 319.564C283.548 320.168 283.28 320.748 282.801 321.176C282.322 321.603 281.672 321.844 280.994 321.845L280.989 321.822ZM282.517 306.372C281.842 306.372 281.195 306.133 280.718 305.708C280.242 305.283 279.974 304.706 279.974 304.105C279.974 303.503 280.242 302.927 280.718 302.501C281.195 302.076 281.842 301.837 282.517 301.837C283.195 301.837 283.845 302.076 284.325 302.503C284.805 302.93 285.075 303.509 285.075 304.114C285.076 304.718 284.807 305.298 284.328 305.726C283.85 306.153 283.2 306.394 282.522 306.395L282.517 306.372ZM283.282 291.593C282.621 291.575 281.995 291.328 281.535 290.905C281.075 290.482 280.818 289.916 280.818 289.327C280.818 288.738 281.075 288.172 281.535 287.749C281.995 287.325 282.621 287.079 283.282 287.06C283.959 287.06 284.609 287.299 285.089 287.726C285.568 288.152 285.838 288.731 285.839 289.336C285.84 289.94 285.571 290.519 285.092 290.947C284.614 291.374 283.964 291.615 283.287 291.615L283.282 291.593Z" fill="#18689E"/>
<path d="M160.882 211.32C160.596 216.413 160.015 228.453 160.04 240.993C159.829 250.898 160.519 260.801 162.101 270.607C162.248 271.293 162.399 271.951 162.563 272.565C167.034 289.312 281.061 291.609 290.433 273.809L293.386 212.093C293.386 212.093 292.889 212.172 292.03 212.314C288.182 212.901 276.462 214.626 262.6 216.054C264.031 231.728 264.654 247.324 261.375 262.865C261.351 263.022 261.261 263.165 261.122 263.265C260.984 263.365 260.808 263.413 260.63 263.401C260.603 263.401 260.583 263.417 260.553 263.419C247.301 264.45 233.995 264.811 220.697 264.5C213.169 264.302 201.279 265.589 194.591 262.002C194.547 261.972 194.506 261.939 194.469 261.902C194.427 261.873 194.388 261.841 194.352 261.807C194.317 261.761 194.287 261.712 194.265 261.661C194.238 261.626 194.214 261.589 194.196 261.55C189.4 247.497 191.108 229.556 191.464 214.695C180.334 212.923 170.623 210.899 165.317 209.732C162.605 209.136 161.028 208.76 161.028 208.76C161.028 208.76 160.971 209.688 160.882 211.32ZM286.342 217.892C287.016 217.892 287.663 218.131 288.14 218.556C288.617 218.982 288.885 219.558 288.885 220.16C288.885 220.761 288.617 221.338 288.14 221.763C287.663 222.188 287.016 222.427 286.342 222.427C286.008 222.427 285.677 222.368 285.369 222.254C285.06 222.14 284.78 221.973 284.544 221.762C284.067 221.337 283.799 220.76 283.8 220.159C283.8 219.557 284.068 218.981 284.546 218.556C285.023 218.131 285.67 217.892 286.344 217.892H286.342ZM285.577 231.327C286.251 231.327 286.898 231.566 287.375 231.991C287.852 232.417 288.12 232.993 288.12 233.595C288.12 234.196 287.852 234.773 287.375 235.198C286.898 235.623 286.251 235.862 285.577 235.862C284.902 235.862 284.255 235.623 283.778 235.198C283.301 234.773 283.033 234.196 283.033 233.595C283.033 232.993 283.301 232.417 283.778 231.991C284.255 231.566 284.902 231.327 285.577 231.327ZM282.236 245.686C282.265 245.093 282.55 244.534 283.03 244.124C283.51 243.715 284.15 243.486 284.814 243.486C285.479 243.486 286.118 243.715 286.599 244.124C287.079 244.534 287.363 245.093 287.392 245.686V246.35C287.363 246.942 287.079 247.501 286.599 247.911C286.118 248.321 285.479 248.55 284.814 248.55C284.15 248.55 283.51 248.321 283.03 247.911C282.55 247.501 282.265 246.942 282.236 246.35V245.686ZM283.287 258.197C283.961 258.197 284.608 258.436 285.085 258.861C285.562 259.287 285.83 259.863 285.83 260.465C285.83 261.066 285.562 261.643 285.085 262.068C284.608 262.493 283.961 262.732 283.287 262.732C282.953 262.732 282.622 262.674 282.314 262.56C282.005 262.446 281.725 262.279 281.488 262.068C281.252 261.858 281.065 261.608 280.937 261.333C280.809 261.057 280.743 260.763 280.743 260.465C280.743 260.167 280.809 259.872 280.937 259.597C281.065 259.322 281.252 259.072 281.488 258.861C281.725 258.651 282.005 258.484 282.314 258.37C282.622 258.256 282.953 258.197 283.287 258.197ZM282.522 270.961C283.182 270.98 283.809 271.227 284.269 271.65C284.729 272.073 284.986 272.639 284.986 273.228C284.986 273.817 284.729 274.383 284.269 274.806C283.809 275.229 283.182 275.476 282.522 275.494C281.861 275.476 281.235 275.229 280.775 274.806C280.315 274.383 280.058 273.817 280.058 273.228C280.058 272.639 280.315 272.073 280.775 271.65C281.235 271.227 281.861 270.98 282.522 270.961ZM206.145 269.701H249.834C251.007 269.701 252.133 270.117 252.963 270.857C253.793 271.597 254.26 272.601 254.26 273.647C254.26 274.694 253.793 275.698 252.963 276.438C252.133 277.178 251.007 277.593 249.834 277.593H206.145C204.971 277.593 203.845 277.178 203.015 276.438C202.185 275.698 201.719 274.694 201.719 273.647C201.719 272.601 202.185 271.597 203.015 270.857C203.845 270.117 204.971 269.701 206.145 269.701ZM167.175 254.864C167.562 254.75 167.98 254.75 168.366 254.864C168.753 254.978 169.089 255.199 169.324 255.496C169.666 255.65 169.943 255.901 170.11 256.208C170.278 256.516 170.328 256.865 170.253 257.201C170.177 257.536 169.98 257.841 169.692 258.067C169.404 258.293 169.041 258.429 168.658 258.454H168.643C168.621 258.454 168.593 258.454 168.571 258.472C168.378 258.566 168.162 258.619 167.942 258.626C167.722 258.633 167.503 258.595 167.302 258.514C166.866 258.402 166.48 258.169 166.202 257.849C165.923 257.53 165.765 257.139 165.751 256.735C165.737 256.33 165.867 255.932 166.123 255.597C166.379 255.263 166.748 255.009 167.175 254.873V254.864ZM170.004 242.253C170.223 242.602 170.281 243.013 170.166 243.399C170.051 243.785 169.772 244.116 169.388 244.322C169.334 244.34 169.278 244.355 169.222 244.368C168.977 244.647 168.631 244.841 168.243 244.916C167.855 244.992 167.449 244.946 167.096 244.784C163.857 243.369 168.663 239.521 170.004 242.262V242.253ZM171.815 269.15C172.078 269.614 172.133 270.149 171.969 270.648C171.805 271.147 171.435 271.571 170.933 271.836C170.469 272.1 169.919 272.219 169.371 272.174C168.822 272.129 168.306 271.923 167.903 271.588C167.534 271.193 167.308 270.707 167.255 270.195C167.279 270.06 167.314 269.927 167.359 269.796H167.317C167.348 269.701 167.388 269.607 167.436 269.517L167.461 269.458C167.514 269.349 167.58 269.246 167.657 269.15C167.818 268.897 168.038 268.677 168.302 268.506C168.566 268.335 168.867 268.216 169.187 268.158C169.688 268.051 170.213 268.091 170.687 268.271C171.16 268.451 171.555 268.762 171.815 269.159V269.15ZM167.444 214.604L168.189 214.502C168.626 214.404 169.088 214.459 169.482 214.656C169.875 214.852 170.169 215.175 170.305 215.558C170.421 215.947 170.36 216.36 170.134 216.709C169.909 217.057 169.538 217.311 169.103 217.416L168.68 217.474C168.442 217.581 168.178 217.635 167.91 217.633C167.648 217.641 167.386 217.589 167.153 217.482C166.919 217.375 166.719 217.215 166.574 217.02C166.54 216.973 166.508 216.924 166.48 216.874C166.396 216.737 166.313 216.599 166.232 216.462C166.119 216.073 166.183 215.661 166.41 215.314C166.637 214.968 167.009 214.716 167.444 214.613V214.604ZM165.971 229.702C166.008 229.66 166.055 229.638 166.095 229.6C166.187 229.353 166.341 229.129 166.543 228.942C166.746 228.755 166.994 228.612 167.267 228.522C170.598 227.339 171.336 233.462 167.354 232.563H167.449C167.088 232.543 166.74 232.436 166.442 232.255C166.144 232.073 165.906 231.822 165.755 231.53C165.603 231.238 165.543 230.914 165.581 230.594C165.619 230.274 165.754 229.968 165.971 229.711V229.702Z" fill="#009DE2"/>
<path d="M239.554 217.837C235.555 218.03 231.625 218.145 227.88 218.145C222.293 218.108 216.711 217.807 211.16 217.243C205.104 216.659 198.974 215.842 193.17 214.943C192.792 229.498 191.141 247.005 195.741 260.812C203.86 264.918 220.287 263.067 229.547 263.096C239.653 263.129 249.732 262.675 259.798 261.937C262.918 246.751 262.282 231.511 260.886 216.207C254.009 216.896 246.669 217.494 239.554 217.837Z" fill="#65D9C8"/>
<path d="M332.186 192.955L293.386 212.079L290.432 273.796L286.344 359.209C286.344 359.209 298.952 341.073 324.166 270.541C349.381 200.008 332.186 192.955 332.186 192.955Z" fill="#0080FF"/>
<path d="M166.346 216.652C166.384 216.729 166.429 216.803 166.48 216.874C166.508 216.924 166.54 216.973 166.574 217.02C166.72 217.215 166.919 217.375 167.153 217.482C167.387 217.589 167.648 217.641 167.911 217.633C168.178 217.635 168.442 217.581 168.68 217.474L169.103 217.416C169.538 217.311 169.909 217.057 170.134 216.709C170.36 216.36 170.421 215.947 170.305 215.558C170.17 215.175 169.875 214.852 169.482 214.656C169.088 214.459 168.626 214.404 168.189 214.502L167.444 214.604C167.008 214.709 166.637 214.963 166.412 215.311C166.187 215.659 166.125 216.073 166.241 216.462C166.272 216.527 166.307 216.591 166.346 216.652Z" fill="#18689E"/>
<path d="M167.449 232.572H167.354C171.328 233.471 170.598 227.348 167.267 228.53C166.994 228.62 166.746 228.764 166.544 228.951C166.341 229.137 166.187 229.362 166.095 229.609C166.055 229.646 166.008 229.669 165.971 229.711C165.751 229.968 165.615 230.274 165.575 230.596C165.536 230.918 165.595 231.243 165.747 231.536C165.899 231.83 166.137 232.082 166.437 232.264C166.737 232.447 167.086 232.553 167.449 232.572Z" fill="#18689E"/>
<path d="M167.096 244.793C167.449 244.955 167.855 245.001 168.243 244.925C168.631 244.849 168.977 244.655 169.222 244.377C169.278 244.364 169.334 244.349 169.388 244.33C169.772 244.125 170.051 243.794 170.166 243.408C170.281 243.021 170.223 242.611 170.004 242.262C168.663 239.521 163.857 243.369 167.096 244.793Z" fill="#18689E"/>
<path d="M169.187 268.162C168.867 268.221 168.566 268.34 168.302 268.511C168.038 268.682 167.818 268.901 167.657 269.154C167.58 269.25 167.514 269.354 167.461 269.462L167.436 269.522C167.388 269.612 167.348 269.705 167.317 269.801H167.359C167.314 269.931 167.279 270.065 167.255 270.2C167.308 270.712 167.534 271.197 167.903 271.592C168.306 271.927 168.822 272.134 169.371 272.179C169.919 272.223 170.469 272.105 170.933 271.84C171.435 271.576 171.805 271.151 171.969 270.653C172.133 270.154 172.078 269.618 171.815 269.154C171.554 268.76 171.158 268.45 170.685 268.272C170.212 268.093 169.687 268.055 169.187 268.162Z" fill="#18689E"/>
<path d="M168.571 258.483C168.593 258.483 168.621 258.483 168.643 258.465H168.658C169.041 258.44 169.404 258.304 169.692 258.078C169.98 257.852 170.177 257.547 170.253 257.212C170.328 256.876 170.278 256.527 170.11 256.22C169.943 255.912 169.666 255.661 169.324 255.507C169.089 255.21 168.753 254.989 168.366 254.875C167.979 254.761 167.562 254.762 167.175 254.876C166.743 255.009 166.369 255.262 166.11 255.598C165.85 255.934 165.718 256.335 165.732 256.743C165.746 257.151 165.906 257.544 166.188 257.865C166.471 258.186 166.861 258.418 167.302 258.527C167.503 258.608 167.722 258.646 167.942 258.638C168.163 258.63 168.378 258.577 168.571 258.483Z" fill="#18689E"/>
<path d="M171.626 284.181C171.222 284.2 170.839 284.347 170.545 284.594C170.252 284.841 170.066 285.174 170.022 285.532C169.857 285.625 169.716 285.748 169.608 285.893C169.5 286.038 169.427 286.201 169.395 286.373C169.362 286.544 169.371 286.72 169.419 286.888C169.468 287.057 169.555 287.214 169.676 287.35C169.899 287.672 170.208 287.94 170.576 288.128C170.944 288.317 171.358 288.42 171.782 288.43C172.206 288.439 172.626 288.354 173.004 288.182C173.382 288.01 173.706 287.757 173.946 287.446C174.163 287.1 174.271 286.709 174.259 286.313C174.247 285.917 174.115 285.532 173.877 285.197C173.639 284.863 173.305 284.592 172.908 284.413C172.512 284.234 172.069 284.154 171.626 284.181Z" fill="#009DE2"/>
<path d="M177.023 300.728C176.771 300.5 176.456 300.335 176.11 300.25C175.764 300.164 175.399 300.161 175.051 300.241C174.704 300.32 174.385 300.479 174.128 300.703C173.871 300.926 173.684 301.206 173.586 301.514C173.059 303.208 175.305 304.22 176.76 303.545C177.086 303.455 177.374 303.28 177.587 303.043C177.801 302.807 177.93 302.518 177.959 302.215C177.987 301.913 177.913 301.609 177.746 301.344C177.58 301.079 177.328 300.864 177.023 300.728Z" fill="#009DE2"/>
<path d="M177.95 316.107C177.649 316.102 177.353 316.169 177.091 316.301C176.829 316.433 176.611 316.624 176.459 316.856C176.267 317.179 176.158 317.536 176.141 317.902C176.123 318.267 176.198 318.631 176.358 318.968C176.519 319.305 176.762 319.605 177.07 319.847C177.377 320.089 177.742 320.267 178.136 320.368C178.489 320.483 178.877 320.475 179.224 320.345C179.675 320.356 180.113 320.212 180.448 319.943C180.783 319.674 180.989 319.3 181.025 318.899C181.046 318.532 180.981 318.165 180.835 317.821C180.689 317.477 180.464 317.164 180.175 316.901C179.886 316.639 179.539 316.433 179.156 316.296C178.773 316.159 178.362 316.095 177.95 316.107Z" fill="#009DE2"/>
<path d="M184.904 335.683C184.914 335.236 184.809 334.794 184.597 334.39C184.384 333.985 184.071 333.63 183.68 333.351C183.246 333.067 182.707 332.943 182.173 333.004C181.64 333.065 181.153 333.307 180.813 333.679C180.629 333.931 180.512 334.218 180.471 334.517C180.43 334.816 180.467 335.12 180.578 335.404C180.69 335.689 180.873 335.947 181.113 336.159C181.354 336.371 181.645 336.53 181.966 336.626C182.952 337.51 185.046 337.217 184.904 335.683Z" fill="#009DE2"/>
<path d="M184.065 348.287L184 348.371L183.752 348.684C182.492 350.291 185.473 351.804 186.732 350.209C186.836 350.077 186.941 349.946 187.043 349.813C188.292 348.205 185.314 346.693 184.065 348.287Z" fill="#009DE2"/>
<path d="M286.344 222.427C287.019 222.427 287.666 222.189 288.143 221.763C288.62 221.338 288.888 220.761 288.888 220.16C288.888 219.558 288.62 218.982 288.143 218.556C287.666 218.131 287.019 217.892 286.344 217.892C285.67 217.892 285.023 218.131 284.546 218.556C284.069 218.982 283.801 219.558 283.801 220.16C283.801 220.761 284.069 221.338 284.546 221.763C285.023 222.189 285.67 222.427 286.344 222.427Z" fill="#18689E"/>
<path d="M285.577 235.862C286.251 235.862 286.898 235.623 287.375 235.198C287.852 234.773 288.12 234.196 288.12 233.595C288.12 232.993 287.852 232.417 287.375 231.991C286.898 231.566 286.251 231.327 285.577 231.327C284.902 231.327 284.255 231.566 283.778 231.991C283.301 232.417 283.034 232.993 283.034 233.595C283.034 234.196 283.301 234.773 283.778 235.198C284.255 235.623 284.902 235.862 285.577 235.862Z" fill="#18689E"/>
<path d="M287.392 246.359V245.694C287.363 245.102 287.079 244.543 286.599 244.133C286.118 243.723 285.479 243.495 284.814 243.495C284.15 243.495 283.51 243.723 283.03 244.133C282.55 244.543 282.265 245.102 282.236 245.694V246.359C282.265 246.951 282.55 247.51 283.03 247.92C283.51 248.33 284.15 248.559 284.814 248.559C285.479 248.559 286.118 248.33 286.599 247.92C287.079 247.51 287.363 246.951 287.392 246.359Z" fill="#18689E"/>
<path d="M283.287 262.732C283.961 262.732 284.608 262.493 285.085 262.068C285.562 261.643 285.83 261.066 285.83 260.465C285.83 259.863 285.562 259.287 285.085 258.861C284.608 258.436 283.961 258.197 283.287 258.197C282.612 258.197 281.965 258.436 281.488 258.861C281.011 259.287 280.744 259.863 280.744 260.465C280.744 261.066 281.011 261.643 281.488 262.068C281.965 262.493 282.612 262.732 283.287 262.732Z" fill="#18689E"/>
<path d="M282.522 275.494C283.182 275.476 283.809 275.229 284.269 274.806C284.729 274.383 284.986 273.817 284.986 273.228C284.986 272.639 284.729 272.073 284.269 271.65C283.809 271.227 283.182 270.98 282.522 270.961C281.861 270.98 281.235 271.227 280.775 271.65C280.315 272.073 280.058 272.639 280.058 273.228C280.058 273.817 280.315 274.383 280.775 274.806C281.235 275.229 281.861 275.476 282.522 275.494Z" fill="#18689E"/>
<path d="M283.287 287.082C282.626 287.101 282 287.348 281.54 287.771C281.08 288.194 280.823 288.76 280.823 289.349C280.823 289.938 281.08 290.504 281.54 290.927C282 291.35 282.626 291.597 283.287 291.615C283.947 291.597 284.574 291.35 285.034 290.927C285.494 290.504 285.751 289.938 285.751 289.349C285.751 288.76 285.494 288.194 285.034 287.771C284.574 287.348 283.947 287.101 283.287 287.082Z" fill="#009DE2"/>
<path d="M282.522 301.859C281.847 301.859 281.2 302.098 280.723 302.524C280.246 302.949 279.979 303.526 279.979 304.127C279.979 304.728 280.246 305.305 280.723 305.73C281.2 306.156 281.847 306.395 282.522 306.395C283.196 306.395 283.843 306.156 284.32 305.73C284.797 305.305 285.065 304.728 285.065 304.127C285.065 303.526 284.797 302.949 284.32 302.524C283.843 302.098 283.196 301.859 282.522 301.859Z" fill="#009DE2"/>
<path d="M280.994 317.309C280.32 317.309 279.673 317.548 279.196 317.974C278.719 318.399 278.451 318.976 278.451 319.577C278.451 320.178 278.719 320.755 279.196 321.18C279.673 321.606 280.32 321.845 280.994 321.845C281.669 321.845 282.316 321.606 282.793 321.18C283.27 320.755 283.538 320.178 283.538 319.577C283.538 318.976 283.27 318.399 282.793 317.974C282.316 317.548 281.669 317.309 280.994 317.309Z" fill="#009DE2"/>
<path d="M280.229 333.431C279.555 333.431 278.908 333.67 278.431 334.095C277.954 334.52 277.686 335.097 277.686 335.698C277.686 336.3 277.954 336.876 278.431 337.302C278.908 337.727 279.555 337.966 280.229 337.966C280.904 337.966 281.551 337.727 282.028 337.302C282.505 336.876 282.773 336.3 282.773 335.698C282.773 335.097 282.505 334.52 282.028 334.095C281.551 333.67 280.904 333.431 280.229 333.431Z" fill="#009DE2"/>
<path d="M279.464 348.21C278.804 348.228 278.177 348.475 277.718 348.898C277.258 349.321 277.001 349.887 277.001 350.476C277.001 351.065 277.258 351.631 277.718 352.054C278.177 352.477 278.804 352.724 279.464 352.743C280.125 352.724 280.751 352.477 281.211 352.054C281.671 351.631 281.928 351.065 281.928 350.476C281.928 349.887 281.671 349.321 281.211 348.898C280.751 348.475 280.125 348.228 279.464 348.21Z" fill="#009DE2"/>
<path d="M251.1 233.763C250.838 233.761 250.577 233.805 250.334 233.893C250.09 233.981 249.869 234.111 249.682 234.276C249.496 234.44 249.348 234.637 249.247 234.853C249.145 235.069 249.093 235.301 249.093 235.535V243.082C249.112 243.545 249.331 243.984 249.705 244.306C250.079 244.628 250.579 244.808 251.099 244.808C251.619 244.808 252.119 244.628 252.493 244.306C252.867 243.984 253.086 243.545 253.105 243.082V235.524C253.103 235.291 253.05 235.06 252.948 234.846C252.847 234.631 252.698 234.436 252.512 234.273C252.326 234.109 252.105 233.98 251.863 233.892C251.621 233.805 251.362 233.761 251.1 233.763Z" fill="#18689E"/>
<path d="M228.747 233.763C228.484 233.761 228.224 233.805 227.98 233.893C227.737 233.981 227.516 234.111 227.329 234.276C227.142 234.44 226.994 234.637 226.893 234.853C226.792 235.069 226.74 235.301 226.74 235.535V243.082C226.758 243.545 226.978 243.984 227.352 244.306C227.726 244.628 228.226 244.808 228.746 244.808C229.266 244.808 229.765 244.628 230.139 244.306C230.514 243.984 230.733 243.545 230.751 243.082V235.524C230.75 235.291 230.696 235.06 230.595 234.846C230.493 234.631 230.345 234.436 230.159 234.273C229.972 234.109 229.752 233.98 229.51 233.892C229.267 233.805 229.008 233.761 228.747 233.763Z" fill="#18689E"/>
<path d="M203.91 233.763C203.647 233.761 203.386 233.805 203.143 233.893C202.9 233.981 202.678 234.111 202.492 234.276C202.305 234.44 202.157 234.637 202.056 234.853C201.955 235.069 201.903 235.301 201.903 235.535V243.082C201.921 243.545 202.14 243.984 202.514 244.306C202.889 244.628 203.388 244.808 203.908 244.808C204.428 244.808 204.928 244.628 205.302 244.306C205.676 243.984 205.896 243.545 205.914 243.082V235.524C205.912 235.291 205.859 235.06 205.757 234.846C205.656 234.631 205.508 234.436 205.321 234.273C205.135 234.109 204.915 233.98 204.672 233.892C204.43 233.805 204.171 233.761 203.91 233.763Z" fill="#18689E"/>
<path d="M206.145 275.578H249.834C250.408 275.578 250.959 275.375 251.365 275.013C251.771 274.651 251.999 274.16 251.999 273.647C251.999 273.135 251.771 272.644 251.365 272.282C250.959 271.92 250.408 271.716 249.834 271.716H206.145C205.57 271.716 205.02 271.92 204.613 272.282C204.207 272.644 203.979 273.135 203.979 273.647C203.979 274.16 204.207 274.651 204.613 275.013C205.02 275.375 205.57 275.578 206.145 275.578Z" fill="#65D9C8"/>
<path d="M206.145 277.593H249.834C251.007 277.593 252.133 277.178 252.963 276.438C253.793 275.698 254.26 274.694 254.26 273.647C254.26 272.601 253.793 271.597 252.963 270.857C252.133 270.117 251.007 269.701 249.834 269.701H206.145C204.971 269.701 203.845 270.117 203.015 270.857C202.185 271.597 201.719 272.601 201.719 273.647C201.719 274.694 202.185 275.698 203.015 276.438C203.845 277.178 204.971 277.593 206.145 277.593ZM206.145 271.716H249.834C250.408 271.716 250.959 271.92 251.365 272.282C251.771 272.644 251.999 273.135 251.999 273.647C251.999 274.16 251.771 274.651 251.365 275.013C250.959 275.375 250.408 275.578 249.834 275.578H206.145C205.57 275.578 205.02 275.375 204.613 275.013C204.207 274.651 203.979 274.16 203.979 273.647C203.979 273.135 204.207 272.644 204.613 272.282C205.02 271.92 205.57 271.716 206.145 271.716Z" fill="#18689E"/>
<path d="M266.586 298.664L194.295 297.838C193.932 297.85 193.576 297.93 193.249 298.071C192.922 298.213 192.631 298.413 192.395 298.659C191.823 299.282 191.4 300.002 191.151 300.775C190.902 301.548 190.832 302.359 190.947 303.157L192.72 319.612C192.969 321.849 194.419 323.598 196.041 323.598H265.034C266.676 323.598 268.136 321.827 268.36 319.548L269.885 303.919C269.988 303.135 269.915 302.342 269.669 301.584C269.424 300.826 269.012 300.119 268.457 299.505C268.225 299.26 267.94 299.059 267.618 298.914C267.297 298.769 266.946 298.684 266.586 298.664ZM193.888 307.3V302.933C193.9 302.264 194.207 301.626 194.744 301.158C195.281 300.691 196.003 300.431 196.754 300.435H207.451C208.206 300.431 208.932 300.693 209.469 301.165C210.006 301.638 210.312 302.281 210.318 302.953V307.32C210.312 307.993 210.006 308.636 209.469 309.108C208.932 309.58 208.206 309.843 207.451 309.838H196.754C196.38 309.84 196.01 309.777 195.663 309.652C195.317 309.526 195.002 309.341 194.735 309.107C194.469 308.873 194.257 308.595 194.112 308.288C193.967 307.981 193.89 307.651 193.888 307.318V307.3ZM211.199 318.33C211.197 318.657 211.122 318.98 210.979 319.281C210.836 319.583 210.629 319.856 210.368 320.085C210.107 320.315 209.797 320.496 209.458 320.619C209.118 320.742 208.754 320.804 208.388 320.802H197.847C197.48 320.804 197.117 320.742 196.777 320.619C196.437 320.496 196.128 320.315 195.867 320.085C195.606 319.856 195.398 319.583 195.255 319.281C195.113 318.98 195.038 318.657 195.035 318.33V314.07C195.038 313.743 195.113 313.42 195.255 313.119C195.398 312.817 195.606 312.544 195.867 312.315C196.128 312.085 196.437 311.904 196.777 311.781C197.117 311.658 197.48 311.596 197.847 311.598H208.388C208.754 311.596 209.118 311.658 209.458 311.781C209.797 311.904 210.107 312.085 210.368 312.315C210.629 312.544 210.836 312.817 210.979 313.119C211.122 313.42 211.197 313.743 211.199 314.07V318.33ZM212.228 307.3V302.933C212.239 302.264 212.546 301.626 213.082 301.158C213.619 300.691 214.341 300.431 215.091 300.435H225.789C226.543 300.431 227.269 300.693 227.806 301.165C228.344 301.638 228.649 302.281 228.655 302.953V307.32C228.649 307.993 228.344 308.636 227.806 309.108C227.269 309.58 226.543 309.843 225.789 309.838H215.091C214.718 309.84 214.347 309.777 214.001 309.652C213.655 309.526 213.34 309.341 213.074 309.107C212.808 308.873 212.596 308.595 212.451 308.288C212.306 307.981 212.23 307.651 212.228 307.318V307.3ZM229.244 318.33C229.241 318.657 229.166 318.98 229.023 319.281C228.881 319.583 228.673 319.856 228.412 320.085C228.151 320.315 227.842 320.496 227.502 320.619C227.162 320.742 226.799 320.804 226.432 320.802H215.891C215.153 320.808 214.443 320.553 213.915 320.093C213.387 319.633 213.085 319.006 213.075 318.348V314.087C213.077 313.761 213.152 313.437 213.295 313.136C213.437 312.835 213.645 312.562 213.906 312.333C214.167 312.103 214.477 311.922 214.816 311.799C215.156 311.676 215.519 311.614 215.886 311.616H226.427C226.794 311.614 227.157 311.676 227.497 311.799C227.837 311.922 228.146 312.103 228.407 312.333C228.668 312.562 228.876 312.835 229.018 313.136C229.161 313.437 229.236 313.761 229.239 314.087L229.244 318.33ZM230.565 302.933C230.577 302.263 230.886 301.623 231.425 301.155C231.964 300.687 232.689 300.428 233.441 300.435H244.121C244.876 300.431 245.601 300.693 246.139 301.165C246.676 301.638 246.981 302.281 246.987 302.953V307.32C246.981 307.993 246.676 308.636 246.139 309.108C245.601 309.58 244.876 309.843 244.121 309.838H233.441C232.687 309.842 231.962 309.579 231.425 309.107C230.888 308.635 230.583 307.992 230.577 307.32L230.565 302.933ZM247.285 318.33C247.283 318.657 247.208 318.98 247.065 319.281C246.923 319.583 246.715 319.856 246.454 320.085C246.193 320.315 245.883 320.496 245.544 320.619C245.204 320.742 244.84 320.804 244.474 320.802H233.938C233.197 320.806 232.485 320.549 231.957 320.085C231.429 319.622 231.13 318.991 231.124 318.33V314.07C231.13 313.409 231.429 312.778 231.957 312.315C232.485 311.851 233.197 311.594 233.938 311.598H244.476C244.843 311.596 245.206 311.658 245.546 311.781C245.886 311.904 246.195 312.085 246.456 312.315C246.717 312.544 246.925 312.817 247.068 313.119C247.21 313.42 247.285 313.743 247.288 314.07L247.285 318.33ZM265.33 318.33C265.327 318.657 265.252 318.98 265.109 319.281C264.967 319.583 264.759 319.856 264.498 320.085C264.237 320.315 263.928 320.496 263.588 320.619C263.248 320.742 262.885 320.804 262.518 320.802H251.977C251.61 320.804 251.247 320.742 250.907 320.619C250.567 320.496 250.258 320.315 249.997 320.085C249.736 319.856 249.528 319.583 249.386 319.281C249.243 318.98 249.168 318.657 249.166 318.33V314.07C249.168 313.743 249.243 313.42 249.386 313.119C249.528 312.817 249.736 312.544 249.997 312.315C250.258 312.085 250.567 311.904 250.907 311.781C251.247 311.658 251.61 311.596 251.977 311.598H262.518C262.885 311.596 263.248 311.658 263.588 311.781C263.928 311.904 264.237 312.085 264.498 312.315C264.759 312.544 264.967 312.817 265.109 313.119C265.252 313.42 265.327 313.743 265.33 314.07V318.33ZM265.33 307.3C265.327 307.633 265.251 307.962 265.106 308.269C264.96 308.576 264.749 308.854 264.483 309.088C264.217 309.322 263.902 309.507 263.556 309.632C263.21 309.757 262.839 309.82 262.466 309.818H251.768C251.014 309.823 250.288 309.56 249.751 309.088C249.213 308.616 248.908 307.973 248.902 307.3V302.933C248.914 302.264 249.222 301.626 249.759 301.158C250.295 300.691 251.018 300.431 251.768 300.435H262.466C262.839 300.433 263.21 300.496 263.556 300.622C263.902 300.747 264.217 300.932 264.483 301.166C264.749 301.399 264.96 301.678 265.106 301.984C265.251 302.291 265.327 302.62 265.33 302.953V307.3Z" fill="#0080FF"/>
<path d="M266.614 296.655L194.322 295.829H194.268C193.593 295.842 192.928 295.979 192.315 296.232C191.703 296.485 191.156 296.849 190.709 297.3C189.915 298.127 189.323 299.092 188.972 300.135C188.62 301.177 188.516 302.274 188.667 303.354L190.44 319.807C190.803 323.176 193.158 325.622 196.041 325.622H265.034C267.903 325.622 270.314 323.089 270.642 319.73L272.167 304.1C272.302 303.04 272.193 301.966 271.846 300.945C271.5 299.923 270.924 298.975 270.153 298.159C269.71 297.705 269.168 297.338 268.559 297.079C267.95 296.82 267.288 296.676 266.614 296.655ZM268.352 319.557C268.129 321.829 266.668 323.607 265.027 323.607H196.041C194.419 323.607 192.964 321.856 192.72 319.621L190.947 303.166C190.832 302.368 190.902 301.557 191.151 300.784C191.4 300.011 191.823 299.291 192.395 298.668C192.631 298.422 192.922 298.222 193.249 298.08C193.576 297.939 193.932 297.859 194.295 297.847L266.586 298.673C266.946 298.693 267.297 298.779 267.618 298.924C267.94 299.069 268.225 299.27 268.457 299.516C269.012 300.13 269.424 300.837 269.669 301.595C269.915 302.353 269.988 303.147 269.885 303.93L268.352 319.557Z" fill="#009DE2"/>
<path d="M250.812 334.522H211.845C211.407 334.537 210.992 334.703 210.688 334.985C210.384 335.267 210.214 335.643 210.214 336.034C210.214 336.425 210.384 336.801 210.688 337.083C210.992 337.364 211.407 337.53 211.845 337.545H250.812C251.251 337.53 251.665 337.364 251.97 337.083C252.274 336.801 252.444 336.425 252.444 336.034C252.444 335.643 252.274 335.267 251.97 334.985C251.665 334.703 251.251 334.537 250.812 334.522Z" fill="#009DE2"/>
<path d="M250.238 343.59H212.983C212.802 343.659 212.607 343.694 212.41 343.694C212.213 343.694 212.019 343.659 211.838 343.59C211.399 343.605 210.984 343.771 210.68 344.053C210.376 344.335 210.206 344.711 210.206 345.102C210.206 345.493 210.376 345.869 210.68 346.151C210.984 346.432 211.399 346.598 211.838 346.613C212.034 346.608 212.228 346.574 212.411 346.511C212.594 346.574 212.787 346.609 212.983 346.613H250.238C250.677 346.598 251.092 346.432 251.396 346.151C251.7 345.869 251.87 345.493 251.87 345.102C251.87 344.711 251.7 344.335 251.396 344.053C251.092 343.771 250.677 343.605 250.238 343.59Z" fill="#009DE2"/>
<path d="M249.667 352.659H212.411C211.973 352.674 211.558 352.839 211.254 353.121C210.95 353.403 210.78 353.779 210.78 354.17C210.78 354.561 210.95 354.937 211.254 355.219C211.558 355.501 211.973 355.666 212.411 355.681H249.667C250.106 355.666 250.52 355.501 250.825 355.219C251.129 354.937 251.299 354.561 251.299 354.17C251.299 353.779 251.129 353.403 250.825 353.121C250.52 352.839 250.106 352.674 249.667 352.659Z" fill="#009DE2"/>
<path d="M170.354 89.0052C170.584 89.2322 170.862 89.4155 171.173 89.5441C171.483 89.6728 171.82 89.744 172.163 89.7536H287.626C289.446 89.7536 290.922 87.723 290.922 85.214C290.922 82.7051 289.446 80.6766 287.626 80.6766H172.155C171.512 80.693 170.901 80.9312 170.451 81.341C169.913 81.8601 169.496 82.469 169.222 83.1325C168.949 83.7961 168.826 84.5012 168.859 85.2074C168.8 86.5966 169.334 87.954 170.354 89.0052Z" fill="#85FFED"/>
<path d="M424.74 459.984C424.072 463.79 430.701 465.431 431.371 461.591L434.076 446.137C431.813 445.907 429.565 445.573 427.34 445.136L424.74 459.984Z" fill="#002760"/>
<path d="M440.599 462.129C439.933 465.936 446.559 467.577 447.23 463.737L450.285 446.278C448.05 446.482 445.703 446.589 443.331 446.593L440.599 462.129Z" fill="#002760"/>
<path d="M467.353 386.413C464.991 365.651 457.222 339.655 452.587 325.414C451.974 323.554 450.888 321.845 449.415 320.419C447.941 318.992 446.12 317.888 444.091 317.19C441.771 316.372 439.254 316.103 436.783 316.41C435.955 316.516 435.138 316.685 434.342 316.915C431.567 317.703 429.132 319.234 427.368 321.301C425.605 323.368 424.6 325.869 424.489 328.464C424.169 336.879 423.682 366.255 422.654 379.36C420.361 408.591 407.751 432.764 414.631 439.815C416.968 442.213 421.67 443.998 427.34 445.129C429.565 445.567 431.813 445.901 434.076 446.13C437.143 446.444 440.228 446.597 443.316 446.588C445.7 446.588 448.035 446.478 450.27 446.274C455.043 446.047 459.7 444.872 463.898 442.835C474.228 436.794 470.791 416.643 467.353 386.413Z" fill="#0045A8"/>
<path d="M437.501 337.042C428.714 337.377 431.771 347.118 433.299 372.644C434.826 398.17 420.018 432.325 427.949 435.115C443.231 440.488 449.344 436.123 450.874 409.59C452.404 383.056 445.134 336.752 437.501 337.042Z" fill="#009DE2"/>
<path d="M456.976 384.064C460.031 402.2 456.976 416.306 456.976 425.711C456.976 435.115 462.324 445.862 466.143 425.046C469.963 404.231 450.864 337.049 450.864 337.049C450.864 337.049 453.929 365.925 456.976 384.064Z" fill="#18689E"/>
<path d="M186.335 10.7447C186.352 9.66372 186.007 8.60275 185.346 7.6967C184.685 6.79064 183.736 6.08045 182.621 5.65641C181.505 5.23236 180.274 5.11364 179.082 5.31533C177.891 5.51703 176.794 6.03003 175.931 6.7891C175.068 7.54818 174.477 8.51902 174.234 9.57817C173.991 10.6373 174.107 11.7369 174.567 12.7371C175.028 13.7373 175.811 14.5929 176.818 15.1952C177.825 15.7974 179.01 16.119 180.222 16.1191C181.832 16.1285 183.38 15.5677 184.526 14.56C185.672 13.5522 186.323 12.1799 186.335 10.7447Z" fill="#002760"/>
<path d="M106.063 221.236L106.048 221.214C106.063 221.367 106.091 221.535 106.106 221.688C108.189 241.122 121.169 272.294 129.664 290.311C135.678 303.191 142.462 315.773 149.988 328.005C147.167 314.594 143.469 301.34 138.913 288.314C129.666 261.756 117.948 238.382 106.063 221.236Z" fill="#18689E"/>
<path d="M361.169 221.236L361.184 221.214C361.169 221.367 361.142 221.535 361.127 221.688C359.045 241.122 346.063 272.294 337.569 290.311C331.56 303.19 324.781 315.772 317.259 328.003C320.078 314.591 323.776 301.338 328.334 288.311C337.566 261.756 349.287 238.382 361.169 221.236Z" fill="#18689E"/>
<path d="M312.125 185.878C312.135 186.452 311.952 187.016 311.601 187.497C311.249 187.979 310.745 188.356 310.153 188.581C309.56 188.806 308.905 188.869 308.273 188.761C307.64 188.653 307.058 188.379 306.6 187.975C306.142 187.571 305.83 187.055 305.702 186.492C305.575 185.929 305.639 185.345 305.885 184.814C306.131 184.283 306.549 183.83 307.086 183.512C307.622 183.194 308.252 183.025 308.897 183.028C309.747 183.028 310.564 183.327 311.168 183.861C311.773 184.395 312.117 185.12 312.125 185.878Z" fill="#0268CE"/>
<path d="M294.973 199.158C294.982 199.732 294.8 200.295 294.449 200.776C294.098 201.257 293.595 201.634 293.003 201.86C292.412 202.085 291.758 202.148 291.126 202.042C290.493 201.935 289.911 201.663 289.453 201.26C288.994 200.857 288.681 200.342 288.552 199.78C288.422 199.218 288.484 198.634 288.728 198.103C288.972 197.572 289.388 197.118 289.922 196.799C290.456 196.479 291.085 196.308 291.729 196.308C292.582 196.305 293.403 196.602 294.01 197.136C294.618 197.67 294.964 198.397 294.973 199.158Z" fill="#0268CE"/>
<path d="M169.361 196.822C169.37 197.395 169.187 197.958 168.836 198.439C168.485 198.92 167.982 199.297 167.39 199.522C166.798 199.747 166.144 199.81 165.512 199.703C164.88 199.596 164.298 199.324 163.84 198.921C163.382 198.518 163.068 198.003 162.939 197.441C162.811 196.879 162.872 196.295 163.116 195.764C163.36 195.234 163.776 194.78 164.31 194.46C164.845 194.14 165.474 193.97 166.117 193.97C166.971 193.966 167.792 194.264 168.399 194.799C169.007 195.333 169.353 196.061 169.361 196.822Z" fill="#0268CE"/>
<path d="M149.138 184.257C149.147 184.831 148.964 185.395 148.613 185.876C148.261 186.357 147.757 186.734 147.164 186.959C146.571 187.183 145.917 187.245 145.284 187.137C144.652 187.029 144.07 186.756 143.612 186.351C143.155 185.947 142.842 185.431 142.715 184.868C142.588 184.305 142.652 183.721 142.898 183.19C143.145 182.66 143.563 182.207 144.099 181.889C144.635 181.571 145.266 181.402 145.91 181.405C146.761 181.405 147.578 181.705 148.182 182.239C148.787 182.773 149.131 183.498 149.138 184.257Z" fill="#0268CE"/>
<path d="M267.582 204.433C267.591 205.006 267.409 205.569 267.058 206.049C266.707 206.53 266.204 206.906 265.613 207.131C265.021 207.356 264.368 207.419 263.737 207.312C263.105 207.205 262.523 206.933 262.065 206.53C261.608 206.128 261.294 205.613 261.166 205.051C261.037 204.49 261.099 203.907 261.342 203.376C261.586 202.846 262.002 202.392 262.536 202.073C263.07 201.753 263.698 201.583 264.341 201.583C265.194 201.58 266.014 201.878 266.621 202.412C267.228 202.946 267.574 203.672 267.582 204.433Z" fill="#0268CE"/>
<path d="M196.218 203.946C196.226 204.519 196.044 205.082 195.693 205.563C195.342 206.044 194.838 206.421 194.246 206.646C193.654 206.871 193.001 206.934 192.369 206.827C191.737 206.72 191.155 206.448 190.696 206.045C190.238 205.642 189.925 205.127 189.796 204.565C189.667 204.003 189.729 203.419 189.973 202.888C190.217 202.357 190.633 201.903 191.167 201.584C191.701 201.264 192.33 201.094 192.974 201.094C193.828 201.09 194.648 201.388 195.256 201.923C195.864 202.457 196.21 203.185 196.218 203.946Z" fill="#0268CE"/>
<path d="M231.779 205.903C231.778 206.119 231.728 206.333 231.634 206.532C231.54 206.731 231.403 206.912 231.23 207.063C231.058 207.215 230.853 207.335 230.629 207.416C230.404 207.498 230.164 207.539 229.922 207.537H225.853C225.611 207.539 225.37 207.498 225.145 207.417C224.921 207.336 224.716 207.216 224.543 207.064C224.37 206.912 224.233 206.732 224.138 206.533C224.044 206.333 223.995 206.119 223.993 205.903V205.383C223.995 205.167 224.044 204.953 224.138 204.753C224.233 204.554 224.37 204.374 224.543 204.222C224.716 204.07 224.921 203.95 225.145 203.869C225.37 203.788 225.611 203.747 225.853 203.749H229.922C230.164 203.747 230.404 203.788 230.629 203.87C230.853 203.951 231.058 204.071 231.23 204.223C231.403 204.374 231.54 204.555 231.634 204.754C231.728 204.953 231.778 205.167 231.779 205.383V205.903Z" fill="#0268CE"/>
</svg>
