<svg width="270" height="194" viewBox="0 0 270 194" fill="none" xmlns="http://www.w3.org/2000/svg">
<path d="M168.971 85.5481C168.971 85.5481 205.938 53.9456 218.231 59.4224C230.524 64.8992 213.098 143.1 203.415 165.768C193.733 188.437 187.995 193.412 185.784 193.707C183.574 194.003 187.558 171.004 190.231 153.967C192.905 136.93 200.251 91.4975 197.406 90.842C194.561 90.1866 173.585 101.699 173.585 101.699L168.971 85.5481Z" fill="#0D9AD5"/>
<path d="M196.69 65.6021C186.952 71.5311 177.685 78.1995 168.971 85.5481L173.582 101.699C173.582 101.699 194.563 90.1879 197.403 90.8421C200.243 91.4962 192.902 136.931 190.229 153.967C187.556 171.003 183.563 194.007 185.782 193.707C186.629 193.592 209.292 114.139 210.194 75.4654C210.437 64.7285 200.491 66.0395 196.69 65.6021Z" fill="#0D6595"/>
<path d="M114.48 86.3539C114.48 86.3539 76.0131 59.1759 59.8074 67.5698C47.8617 73.7603 71.0886 136.854 80.3897 159.681C89.6908 182.507 100.676 192.677 102.888 193.011C105.1 193.346 99.8829 175.572 96.1221 151.283C92.5199 128.031 87.0882 96.8646 89.9403 96.2538C92.7925 95.643 109.599 102.427 109.599 102.427L114.48 86.3539Z" fill="#0D6595"/>
<path d="M84.3716 84.1735C71.389 80.627 58.0636 78.4782 44.623 77.7636C29.2704 77.1623 2.69078 83.2973 1.72514 89.6814C0.759496 96.0655 17.1117 102.054 22.8133 100.941C45.7866 96.4718 84.2265 102.054 86.8196 99.6585C89.4128 97.2627 88.2695 85.0375 84.3716 84.1735Z" fill="url(#paint0_linear)"/>
<g style="mix-blend-mode:multiply" opacity="0.3">
<path d="M11.4344 98.8337C15.6985 100.533 20.2934 101.429 22.8133 100.937C45.7866 96.4678 84.2265 102.05 86.8196 99.6544C88.0226 98.5439 88.42 95.3302 88.1162 92.1124C61.5963 88.6034 30.5032 79.9724 11.4344 98.8337Z" fill="#0086BC"/>
</g>
<path d="M19.458 96.0249L18.8639 95.2205C21.7649 93.078 48.9724 87.9777 81.5588 95.5265L81.3323 96.4976C49.0511 89.0232 22.283 93.9379 19.458 96.0249Z" fill="#0765A2"/>
<path d="M1.35082 89.0435C-3.11663 93.6617 3.76493 126.287 18.0326 151.172C36.4937 183.366 48.2333 190.491 52.2464 190.69C56.2595 190.889 42.6673 159.085 36.7608 145.499C23.3476 114.644 22.6139 96.1157 18.7771 92.4103C14.9403 88.705 5.05878 85.2122 1.35082 89.0435Z" fill="url(#paint1_linear)"/>
<g style="mix-blend-mode:multiply" opacity="0.3">
<path d="M36.7595 145.499C26.8305 122.654 23.8508 106.578 21.4164 98.2622C13.5597 124.958 22.4593 154.059 37.1243 178.082C44.764 186.019 49.8608 190.572 52.245 190.69C56.2568 190.889 42.6659 159.08 36.7595 145.499Z" fill="#0086BC"/>
</g>
<path d="M19.1867 107.438C18.5616 107.406 17.9412 107.561 17.4039 107.881C16.8667 108.202 16.4369 108.675 16.1687 109.24C15.9006 109.804 15.8062 110.436 15.8976 111.054C15.9889 111.673 16.2619 112.25 16.6819 112.713C17.102 113.177 17.6502 113.505 18.2573 113.658C18.8644 113.81 19.503 113.779 20.0925 113.568C20.6819 113.358 21.1956 112.978 21.5686 112.476C21.9417 111.974 22.1572 111.373 22.1881 110.749C22.2208 109.915 21.9249 109.101 21.3639 108.482C20.8028 107.863 20.0213 107.488 19.1867 107.438Z" fill="#07567F"/>
<path d="M52.9232 190.905L22.3278 122.82L17.1917 123.39L17.0208 123.155C16.9299 123.031 7.85398 110.322 9.61302 89.0679L10.6126 89.1519C9.0122 108.461 16.4661 120.525 17.665 122.332L22.9367 121.747L53.8318 190.499L52.9232 190.905Z" fill="#0765A2"/>
<path d="M76.7957 79.4036C76.0579 77.5916 127.87 78.4123 137.707 78.6493C157.634 79.1382 197.382 73.7738 197.981 78.3635C198.58 82.9532 164.973 90.5671 130.657 89.3333C96.3418 88.0996 77.5701 81.3037 76.7957 79.4036Z" fill="#0D82B8"/>
<path d="M182.125 59.394C181.854 92 96.1953 91.2795 96.4693 58.6748C96.7432 26.0702 116.143 -0.197713 139.797 0.00136831C163.451 0.20045 182.401 26.7934 182.125 59.394Z" fill="#00C8F4"/>
<g style="mix-blend-mode:multiply" opacity="0.2">
<path d="M182.125 59.394C182.27 41.9967 176.942 26.3167 168.346 15.4363C171.547 33.5725 167.511 52.2395 157.101 67.4412C152.882 73.3728 147.932 78.7502 142.367 83.4463C162.643 82.8328 181.996 74.8654 182.125 59.394Z" fill="#459FB9"/>
</g>
<path d="M158.184 51.3359C164.665 33.229 158.661 9.76583 142.227 0.12325C141.422 0.055535 140.611 0.00949397 139.797 0.0013682C116.143 -0.197713 96.7432 26.0729 96.4693 58.6748C96.3336 74.4456 116.307 82.7515 136.994 83.4408C147.244 75.5331 154.107 63.2185 158.184 51.3359Z" fill="#0092CA"/>
<path d="M96.6035 54.8219C96.5303 56.099 96.4815 57.3788 96.4679 58.6748C96.1966 91.2795 181.85 92 182.124 59.394C182.132 58.3864 182.123 57.3842 182.095 56.3874C155.19 65.9704 123.21 65.0143 96.6035 54.8219Z" fill="#1C6E9A"/>
<path d="M156.422 45.2565C150.952 61.3523 136.798 71.1059 124.807 67.043C112.815 62.9802 107.532 46.6365 113.007 30.5448C118.482 14.4531 132.629 4.68997 144.618 8.75285C156.608 12.8157 161.897 29.1648 156.422 45.2565Z" fill="#1C6E9A"/>
<path d="M156.545 46.1002C151.759 60.1849 139.371 68.717 128.878 65.1606C118.385 61.6042 113.761 47.3069 118.55 33.2236C123.339 19.1403 135.723 10.6069 146.217 14.1605C156.712 17.7142 161.333 32.0196 156.545 46.1002Z" fill="#551915"/>
<path style="mix-blend-mode:color-dodge" d="M158.519 37.7781C158.481 42.2457 157.118 46.602 154.601 50.2958C152.084 53.9897 148.526 56.8552 144.378 58.5301C140.23 60.2049 135.678 60.6138 131.298 59.7051C126.917 58.7963 122.904 56.6107 119.768 53.4247C116.631 50.2387 114.511 46.1954 113.676 41.8061C112.84 37.4169 113.327 32.8788 115.075 28.7659C116.823 24.6531 119.752 21.1501 123.494 18.7C127.235 16.2499 131.62 14.9629 136.094 15.0015C139.065 15.0267 142.001 15.6358 144.735 16.794C147.469 17.9523 149.948 19.637 152.031 21.752C154.113 23.8671 155.758 26.3709 156.871 29.1207C157.984 31.8705 158.544 34.8122 158.519 37.7781Z" fill="url(#paint2_radial)"/>
<path d="M92.7315 83.9595C91.0199 82.2924 97.0836 74.516 97.0836 74.516C97.0836 74.516 92.7098 67.9125 94.3101 65.8065C95.9105 63.7006 125.124 69.8044 138.102 69.4875C151.08 69.1706 182.291 63.2131 183.216 65.7632C184.141 68.3133 180.774 74.5878 180.774 74.5878C180.774 74.5878 186.856 81.6301 184.499 83.4665C171.435 93.6265 108.111 98.9204 92.7315 83.9595Z" fill="#0D9AD5"/>
<path d="M176.967 75.1864C152.243 80.6672 126.617 80.4519 101.967 76.454C126.447 83.1316 152.199 83.6736 176.939 78.0318C154.097 85.4249 130.377 84.2764 107.622 81.2401C128.463 86.1535 151.249 85.3978 173.121 80.8446C152.175 88.2499 130.337 89.0151 108.525 86.939C133.176 91.2565 161.788 92.2329 186.071 83.4842C185.732 80.7431 180.764 74.5918 180.764 74.5918C180.764 74.5918 184.141 68.3174 183.205 65.7673C182.269 63.2171 151.062 69.176 138.091 69.4916C125.12 69.8071 95.8983 63.702 94.2993 65.8106C93.6578 66.6543 93.9819 68.2267 94.5949 69.8031C120.58 82.096 150.125 78.6547 176.967 75.1864Z" fill="#1C6E9A"/>
<path d="M183.93 68.9891C174.426 76.5908 112.999 81.9186 94.2287 68.2362C92.0669 66.6598 91.8187 56.5987 94.3196 57.5481C121.344 67.7716 160.119 66.0435 184.023 58.2997C186.568 57.4736 186.022 67.3207 183.93 68.9891Z" fill="#00B3F2"/>
<path d="M160.042 56.2181C159.543 56.2321 159.068 56.4389 158.719 56.7949C158.369 57.1509 158.172 57.6284 158.167 58.1269C158.163 58.6255 158.353 59.1062 158.696 59.4681C159.04 59.8299 159.51 60.0446 160.009 60.067C160.508 60.053 160.982 59.8463 161.332 59.4903C161.681 59.1343 161.879 58.6568 161.883 58.1582C161.888 57.6597 161.698 57.1789 161.355 56.8171C161.011 56.4553 160.54 56.2406 160.042 56.2181Z" fill="#0092CA"/>
<path d="M163.444 46.6135C162.946 46.6275 162.472 46.8341 162.122 47.1898C161.773 47.5455 161.576 48.0227 161.571 48.5209C161.567 49.0191 161.757 49.4995 162.1 49.8611C162.443 50.2227 162.913 50.4372 163.412 50.4597C163.911 50.4457 164.384 50.2391 164.734 49.8833C165.083 49.5276 165.281 49.0504 165.285 48.5522C165.289 48.054 165.1 47.5736 164.756 47.212C164.413 46.8504 163.943 46.6359 163.444 46.6135Z" fill="#0092CA"/>
<path d="M164.805 35.4081C164.306 35.4223 163.832 35.6292 163.482 35.9853C163.133 36.3414 162.935 36.819 162.931 37.3175C162.927 37.816 163.117 38.2967 163.46 38.6584C163.804 39.0201 164.275 39.2347 164.774 39.257C165.273 39.2428 165.747 39.0358 166.096 38.6797C166.445 38.3236 166.643 37.8461 166.647 37.3475C166.651 36.849 166.461 36.3683 166.118 36.0066C165.774 35.6449 165.303 35.4303 164.805 35.4081Z" fill="#0092CA"/>
<path d="M164.105 24.5019C163.602 24.5101 163.122 24.7142 162.767 25.0708C162.413 25.4274 162.212 25.9081 162.208 26.4105C162.203 26.9129 162.396 27.3972 162.744 27.7599C163.092 28.1227 163.568 28.3352 164.071 28.3522C164.574 28.344 165.054 28.1399 165.408 27.7833C165.763 27.4267 165.964 26.9459 165.968 26.4436C165.973 25.9412 165.78 25.4569 165.432 25.0942C165.084 24.7315 164.608 24.5189 164.105 24.5019Z" fill="#0092CA"/>
<path d="M161.185 14.3623C160.682 14.3709 160.202 14.5755 159.848 14.9323C159.494 15.2891 159.294 15.7699 159.289 16.2722C159.285 16.7746 159.478 17.2586 159.826 17.6211C160.175 17.9836 160.651 18.1958 161.154 18.2126C161.657 18.2039 162.136 17.9994 162.49 17.6426C162.845 17.2858 163.045 16.8049 163.049 16.3026C163.053 15.8003 162.861 15.3163 162.512 14.9538C162.164 14.5913 161.688 14.3791 161.185 14.3623Z" fill="#0092CA"/>
<path d="M155.242 6.42206C155.01 6.4201 154.781 6.46372 154.566 6.55039C154.351 6.63706 154.156 6.76509 153.991 6.92719C153.657 7.25457 153.468 7.70081 153.464 8.16775C153.46 8.63468 153.642 9.08408 153.97 9.41704C154.298 9.75001 154.744 9.93928 155.212 9.94323C155.68 9.94719 156.13 9.76548 156.463 9.4381C156.797 9.11072 156.986 8.66448 156.99 8.19755C156.994 7.73061 156.812 7.28124 156.484 6.94827C156.156 6.6153 155.709 6.42601 155.242 6.42206Z" fill="#0092CA"/>
<path d="M76.6397 78.7698C76.6397 78.7698 71.7179 99.8968 75.1736 102.768C78.6293 105.639 114.609 116.054 140.544 116.27C166.48 116.487 201.049 107.775 203.285 105.267C205.522 102.758 199.85 81.2225 197.974 78.3636C196.048 81.8251 159.457 87.5227 137.622 87.3398C115.786 87.157 78.826 82.2653 76.6397 78.7698Z" fill="#00B3F2"/>
<path d="M168.974 113.899C169.295 113.849 169.611 113.796 169.931 113.749C170.208 104.194 169.783 94.6326 168.659 85.1404L167.717 85.2583C168.843 94.7611 169.263 104.334 168.974 113.899Z" fill="#077296"/>
<g style="mix-blend-mode:multiply" opacity="0.2">
<path d="M197.981 78.3636C197.25 79.6799 191.514 81.3159 183.498 82.8327C183.781 93.8025 175.887 105.141 165.315 106.37C134.396 111.135 102.758 107.057 74.0642 94.6083C73.7794 98.4505 73.9503 101.755 75.1736 102.771C78.6279 105.646 114.609 116.056 140.544 116.273C166.48 116.49 201.049 107.777 203.285 105.269C205.522 102.761 199.857 81.2225 197.981 78.3636Z" fill="#459FB9"/>
</g>
<path d="M95.5145 89.4498C96.9494 88.6454 102.694 89.2697 105.415 92.2478C109.794 97.0366 110.463 106.48 104.315 109.824C98.1673 113.168 97.1433 105.688 97.1433 105.688L95.5145 89.4498Z" fill="#006696"/>
<path d="M133.835 92.5539C136.207 91.7893 138.749 91.7266 141.156 92.3733C143.563 93.02 145.73 94.3484 147.397 96.1983C151.778 100.986 151.758 111.444 145.611 114.785C139.465 118.126 138.439 110.651 138.439 110.651L133.835 92.5539Z" fill="#006696"/>
<path d="M195.803 84.6556C193.444 83.851 190.902 83.7454 188.484 84.3515C186.066 84.9576 183.876 86.2494 182.177 88.0711C177.717 92.7854 177.566 103.239 183.652 106.686C189.739 110.133 197.637 105.445 197.637 105.445L195.803 84.6556Z" fill="#006696"/>
<path d="M80.7939 83.3555C80.4128 83.3529 80.0395 83.463 79.7212 83.6722C79.4029 83.8813 79.1537 84.1799 79.0053 84.5304C78.8569 84.8808 78.8159 85.2674 78.8874 85.6411C78.9589 86.0148 79.1398 86.359 79.4071 86.6301C79.6745 86.9013 80.0163 87.0872 80.3894 87.1644C80.7626 87.2416 81.1502 87.2065 81.5034 87.0638C81.8566 86.921 82.1595 86.6769 82.3738 86.3623C82.5882 86.0477 82.7043 85.6767 82.7075 85.2962C82.7062 84.7871 82.5051 84.2987 82.1473 83.9359C81.7896 83.5731 81.3037 83.3647 80.7939 83.3555Z" fill="#006696"/>
<path d="M195.175 82.8951C194.793 82.8919 194.42 83.0017 194.101 83.2108C193.782 83.4198 193.532 83.7187 193.383 84.0695C193.234 84.4203 193.193 84.8073 193.264 85.1815C193.336 85.5558 193.517 85.9005 193.785 86.172C194.052 86.4434 194.395 86.6295 194.768 86.7067C195.142 86.7839 195.53 86.7486 195.884 86.6054C196.237 86.4622 196.54 86.2175 196.754 85.9023C196.969 85.587 197.085 85.2154 197.087 84.8344C197.087 84.3254 196.886 83.837 196.528 83.4743C196.171 83.1116 195.685 82.9036 195.175 82.8951Z" fill="#006696"/>
<path d="M117.972 90.5373C117.945 90.5211 117.914 90.4994 117.884 90.4845C117.593 90.3113 117.271 90.197 116.935 90.1482C116.6 90.0994 116.258 90.1171 115.93 90.2001C115.266 90.3679 114.697 90.7919 114.347 91.379C113.996 91.9661 113.894 92.6681 114.062 93.3306C114.23 93.9931 114.654 94.5619 115.242 94.9117C115.274 94.928 115.302 94.9469 115.333 94.9659C115.624 95.1389 115.947 95.253 116.282 95.3016C116.618 95.3502 116.959 95.3324 117.288 95.2491C117.616 95.1658 117.925 95.0188 118.196 94.8164C118.468 94.6139 118.697 94.3601 118.87 94.0693C119.044 93.7785 119.158 93.4565 119.206 93.1216C119.255 92.7868 119.237 92.4456 119.154 92.1176C119.071 91.7897 118.923 91.4813 118.721 91.2101C118.518 90.939 118.264 90.7104 117.972 90.5373Z" fill="#006696"/>
<path d="M159.964 90.8894C159.937 90.8714 159.907 90.8538 159.875 90.8366C159.584 90.6634 159.262 90.5491 158.926 90.5002C158.591 90.4514 158.25 90.4689 157.921 90.5518C157.593 90.6348 157.284 90.7815 157.013 90.9836C156.741 91.1857 156.512 91.4393 156.338 91.7298C156.165 92.0203 156.05 92.3421 156.002 92.6768C155.953 93.0115 155.97 93.3525 156.053 93.6804C156.136 94.0083 156.283 94.3167 156.486 94.5879C156.688 94.8591 156.942 95.0879 157.233 95.2611L157.322 95.318C157.91 95.6678 158.614 95.7701 159.277 95.6022C159.606 95.5191 159.915 95.3721 160.186 95.1697C160.458 94.9674 160.687 94.7136 160.861 94.4228C161.034 94.132 161.149 93.81 161.197 93.475C161.246 93.1401 161.229 92.7988 161.145 92.4707C161.062 92.1426 160.915 91.8341 160.712 91.5628C160.51 91.2915 160.255 91.0627 159.964 90.8894Z" fill="#006696"/>
<path d="M187.485 84.7951C200.678 82.1262 214.119 80.8731 227.578 81.0572C242.936 81.4784 269.045 89.374 269.581 95.8069C270.117 102.24 253.453 104.355 247.786 105.635C225.803 110.597 185.367 107.054 182.879 104.552C177.623 99.2522 183.541 85.4059 187.485 84.7951Z" fill="url(#paint3_linear)"/>
<g style="mix-blend-mode:color-dodge" opacity="0.3">
<path d="M257.321 95.2922C249.62 89.2223 206.2 89.5541 181.665 93.1389C180.412 97.2844 180.297 101.942 182.886 104.546C185.373 107.053 225.81 110.596 247.793 105.63C250.02 105.126 253.95 104.488 257.866 103.516C257.767 101.271 258.797 96.4569 257.321 95.2922Z" fill="#06C7F3"/>
</g>
<path d="M255.126 101.43L255.464 100.491C231.011 91.6966 192.441 96.5449 180.808 98.3137C180.808 98.6549 180.808 98.9908 180.829 99.3185C192.19 97.581 230.76 92.6676 255.126 101.43Z" fill="#0784B8"/>
<path d="M268.347 94.3835C272.878 98.9393 268.076 127.961 254.146 153.034C236.118 185.471 224.466 193.745 220.455 193.999C216.445 194.252 229.619 161.275 235.343 147.607C248.341 116.579 246.627 102.916 250.413 99.1709C254.2 95.4263 264.587 90.5982 268.347 94.3835Z" fill="url(#paint4_linear)"/>
<g style="mix-blend-mode:color-dodge" opacity="0.3">
<path d="M256.948 94.9279C254.55 95.973 252.342 97.4067 250.413 99.1709C246.627 102.92 248.341 116.579 235.343 147.607C229.619 161.275 216.446 194.251 220.455 193.999C221.616 193.839 222.727 193.425 223.71 192.788C240.05 166.761 251.758 138.108 258.317 108.096C259.179 103.208 259.332 97.6203 256.948 94.9279Z" fill="#06C7F3"/>
</g>
<path d="M252.4 109.32C253.025 109.28 253.647 109.426 254.188 109.74C254.729 110.053 255.165 110.52 255.441 111.081C255.717 111.642 255.819 112.272 255.736 112.891C255.653 113.511 255.388 114.091 254.974 114.56C254.56 115.029 254.017 115.365 253.412 115.525C252.807 115.685 252.168 115.662 251.576 115.459C250.984 115.257 250.466 114.883 250.086 114.387C249.707 113.89 249.484 113.291 249.445 112.668C249.398 111.834 249.682 111.015 250.235 110.389C250.788 109.762 251.566 109.378 252.4 109.32Z" fill="#07567F"/>
<path d="M249.476 124.74L254.616 125.242L254.784 125.004C254.87 124.881 263.087 113.028 261.92 93.2689C261.593 93.3339 261.26 93.4111 260.93 93.4978C261.932 111.262 255.251 122.446 254.124 124.187L248.843 123.674L219.765 191.677C219.613 192.371 219.685 193.095 219.971 193.745L249.476 124.74Z" fill="#0784B8"/>
<path d="M52.6397 111.112C52.0674 103.839 64.1352 98.0929 71.3056 94.2332C78.476 90.3735 95.5646 87.482 100.276 90.0254C113.179 96.9933 104.86 109.336 101.371 110.882C99.0651 111.907 74.722 121.318 69.0054 121.987C63.2889 122.656 53.0317 116.098 52.6397 111.112Z" fill="url(#paint5_linear)"/>
<g style="mix-blend-mode:multiply" opacity="0.3">
<path d="M65.3911 121.656C66.5665 121.981 67.7905 122.093 69.0054 121.988C74.7233 121.323 99.0665 111.912 101.371 110.883C103.823 109.799 108.644 103.394 106.849 97.2628C87.1465 98.1173 65.9403 100.77 65.3911 121.656Z" fill="#06C5F2"/>
</g>
<path d="M53.6528 108.681C49.6031 113.227 51.8639 132.279 64.2789 156.467C74.7857 176.932 84.1329 192.852 87.9385 192.887C91.7441 192.922 86.5647 171.057 82.9394 157.491C75.5778 129.942 74.0981 117.922 67.8147 112.501C63.9887 109.197 57.0149 104.908 53.6528 108.681Z" fill="url(#paint6_linear)"/>
<g style="mix-blend-mode:multiply" opacity="0.3">
<path d="M82.9394 157.491C75.5778 129.942 74.0981 117.923 67.8147 112.501C67.7048 112.408 67.5841 112.31 67.4715 112.214C65.6419 116.365 64.9577 120.929 65.4901 125.433C67.8377 149.207 79.3237 170.774 88.3671 192.764C91.3101 191.08 86.4114 170.487 82.9394 157.491Z" fill="#06C5F2"/>
</g>
<path d="M71.9349 120.985C71.9159 123.211 70.6804 125.004 69.1736 124.992C67.6668 124.98 66.4611 123.164 66.4774 120.94C66.4937 118.716 67.736 116.926 69.2414 116.938C70.7468 116.95 71.9539 118.759 71.9349 120.985Z" fill="#0789BD"/>
<path d="M68.9186 116.555L69.5628 117.323C72.8911 114.548 94.34 103.683 106.417 104.329C106.538 104.011 106.644 103.683 106.743 103.349C94.4064 102.526 72.7459 113.364 68.9186 116.555Z" fill="#0789BD"/>
<path d="M71.4561 135.205L71.0493 135.253C69.3526 135.443 66.9114 135.713 66.0393 135.806C62.8915 128.196 62.5958 114.771 62.627 108.891C62.2988 108.715 61.9598 108.545 61.6248 108.39C61.5556 114.121 61.7604 128.498 65.2636 136.533L65.391 136.833H65.7193C65.8644 136.833 68.4412 136.548 70.7482 136.291L88.0836 192.86C88.2752 192.816 88.4515 192.721 88.5945 192.587C88.7375 192.452 88.842 192.282 88.8974 192.093L71.4561 135.205Z" fill="#0789BD"/>
<path d="M147.642 99.863C145.789 94.7993 134.201 85.1405 122.665 98.9421C111.129 112.744 106.754 123.049 108.503 127.336C110.253 131.624 119.399 135.282 125.881 130.366C132.886 125.053 147.174 113.044 148.267 110.204C149.36 107.364 148.686 102.726 147.642 99.863Z" fill="url(#paint7_linear)"/>
<g style="mix-blend-mode:multiply" opacity="0.3">
<path d="M125.881 130.369C132.886 125.056 147.174 113.047 148.267 110.207C149.36 107.367 148.686 102.729 147.642 99.8657C146.899 98.139 145.757 96.6123 144.311 95.4101C131.072 103.977 118.826 117.377 117.807 132.68C120.691 132.926 123.565 132.103 125.881 130.369Z" fill="#06C5F2"/>
</g>
<path d="M148.029 101.091C147.934 100.755 147.829 100.441 147.724 100.135C125.44 109.462 121.031 126.792 120.989 126.975L121.961 127.209C122.006 127.032 126.311 110.221 148.029 101.091Z" fill="#0789BD"/>
<path d="M109.191 120.753C105.141 125.298 106.625 144.031 116.905 163.071C127.834 183.317 133.961 193.271 137.768 193.309C141.575 193.347 137.904 177.422 134.935 163.698C132.419 152.063 126.694 128.569 122.919 125.21C119.143 121.851 112.556 116.973 109.191 120.753Z" fill="url(#paint8_linear)"/>
<g style="mix-blend-mode:multiply" opacity="0.3">
<path d="M119.432 144.845C125.038 160.164 132.357 175.068 139.378 190.123C139.615 184.792 137.087 173.667 134.935 163.694C132.419 152.059 126.694 128.565 122.919 125.206C122.072 124.453 121.082 123.632 120.026 122.84C117.202 129.869 116.992 137.674 119.432 144.845Z" fill="#06C5F2"/>
</g>
<path d="M123.841 128.292C123.821 130.52 122.585 132.312 121.08 132.3C119.574 132.288 118.367 130.476 118.383 128.246C118.4 126.017 119.638 124.229 121.146 124.244C122.654 124.259 123.861 126.067 123.841 128.292Z" fill="#0789BD"/>
<path d="M124.504 144.995L124.042 145.114C122.089 145.623 119.052 146.401 118.061 146.635C114.114 136.64 114.239 125.953 114.772 119.856C114.452 119.743 114.125 119.649 113.794 119.575C113.232 125.822 113.066 137.003 117.285 147.389L117.412 147.702H117.745C117.827 147.702 118.038 147.702 123.834 146.202L138.458 193.072C138.808 192.761 139.046 192.345 139.137 191.886L124.504 144.995Z" fill="#0789BD"/>
<defs>
<linearGradient id="paint0_linear" x1="-70.914" y1="112.682" x2="15.7019" y2="112.682" gradientUnits="userSpaceOnUse">
<stop offset="0.355" stop-color="#00A4DE"/>
<stop offset="1" stop-color="#1C75BC"/>
</linearGradient>
<linearGradient id="paint1_linear" x1="-63.4646" y1="185.939" x2="-5.8273" y2="185.939" gradientUnits="userSpaceOnUse">
<stop offset="0.355" stop-color="#00A4DE"/>
<stop offset="1" stop-color="#1C75BC"/>
</linearGradient>
<radialGradient id="paint2_radial" cx="0" cy="0" r="1" gradientUnits="userSpaceOnUse" gradientTransform="translate(133.969 40.0679) rotate(0.4577) scale(22.6214 22.589)">
<stop stop-color="white"/>
<stop offset="1"/>
</radialGradient>
<linearGradient id="paint3_linear" x1="979.294" y1="82.9903" x2="1068" y2="82.9903" gradientUnits="userSpaceOnUse">
<stop offset="0.355" stop-color="#00A4DE"/>
<stop offset="1" stop-color="#1C75BC"/>
</linearGradient>
<linearGradient id="paint4_linear" x1="875.808" y1="142.292" x2="931.732" y2="142.292" gradientUnits="userSpaceOnUse">
<stop offset="0.355" stop-color="#00A4DE"/>
<stop offset="1" stop-color="#1C75BC"/>
</linearGradient>
<linearGradient id="paint5_linear" x1="42.6244" y1="113.66" x2="97.1364" y2="113.66" gradientUnits="userSpaceOnUse">
<stop offset="0.005" stop-color="#07A3DD"/>
<stop offset="0.098" stop-color="#05ABE2"/>
<stop offset="0.349" stop-color="#02BBEC"/>
<stop offset="0.63" stop-color="#00C4F2"/>
<stop offset="1" stop-color="#00C8F4"/>
</linearGradient>
<linearGradient id="paint6_linear" x1="78.6722" y1="205.396" x2="14.7058" y2="170.68" gradientUnits="userSpaceOnUse">
<stop offset="0.005" stop-color="#07A3DD"/>
<stop offset="0.098" stop-color="#05ABE2"/>
<stop offset="0.349" stop-color="#02BBEC"/>
<stop offset="0.63" stop-color="#00C4F2"/>
<stop offset="1" stop-color="#00C8F4"/>
</linearGradient>
<linearGradient id="paint7_linear" x1="103.899" y1="148.542" x2="132.262" y2="98.7343" gradientUnits="userSpaceOnUse">
<stop offset="0.005" stop-color="#07A3DD"/>
<stop offset="0.098" stop-color="#05ABE2"/>
<stop offset="0.349" stop-color="#02BBEC"/>
<stop offset="0.63" stop-color="#00C4F2"/>
<stop offset="1" stop-color="#00C8F4"/>
</linearGradient>
<linearGradient id="paint8_linear" x1="132.939" y1="207.06" x2="75.3827" y2="180.365" gradientUnits="userSpaceOnUse">
<stop offset="0.005" stop-color="#07A3DD"/>
<stop offset="0.098" stop-color="#05ABE2"/>
<stop offset="0.349" stop-color="#02BBEC"/>
<stop offset="0.63" stop-color="#00C4F2"/>
<stop offset="1" stop-color="#00C8F4"/>
</linearGradient>
</defs>
</svg>
