<svg width="129" height="195" viewBox="0 0 129 195" fill="none" xmlns="http://www.w3.org/2000/svg">
<path d="M62.029 0.519004C34.984 -0.258996 19.959 29.3 16.977 54.884V54.893C20.3 67.984 46.2 76.41 69.1 74.958C86.563 73.851 110.289 69.703 113.182 53.082C110.626 31.446 94.959 1.449 62.029 0.519004Z" fill="#4AA2DB"/>
<path d="M80.835 4.74501C81.662 12.581 80.552 21.497 74.577 25.855C69.344 29.673 62.946 33.49 57.997 37.255C58.6211 37.4424 59.1694 37.8236 59.5624 38.3433C59.9554 38.8631 60.1728 39.4945 60.183 40.146C60.1644 40.9763 59.8169 41.7652 59.2168 42.3394C58.6168 42.9135 57.8133 43.226 56.983 43.208C56.2633 43.2186 55.5614 42.9838 54.9928 42.5423C54.4243 42.1008 54.023 41.4789 53.855 40.779C50.731 43.857 49.146 46.888 50.586 49.843C54.318 57.499 71.911 49.843 79.374 47.802C86.837 45.761 92.701 52.902 79.907 60.051C67.113 67.2 84.507 70.032 101.231 61.582C106.185 59.082 110.139 53.959 112.583 49.13C109.58 32.787 99.527 13.212 80.835 4.74501Z" fill="#0268CE"/>
<path d="M63.175 10.527C66.314 10.527 68.775 9.18201 68.775 7.46501C68.775 5.74801 66.316 4.40201 63.175 4.40201C60.034 4.40201 57.575 5.74801 57.575 7.46501C57.575 9.18201 60.036 10.527 63.175 10.527Z" fill="#009DE2"/>
<path d="M17.689 88.211C17.233 88.9416 16.8553 89.7182 16.562 90.528C17.5525 91.0853 18.4275 91.8266 19.14 92.712C19.8258 93.5931 20.3213 94.6069 20.5952 95.6893C20.869 96.7717 20.9152 97.8992 20.7309 99.0004C20.5466 100.102 20.1358 101.153 19.5244 102.087C18.913 103.021 18.1143 103.818 17.179 104.428C16.7394 104.717 16.2745 104.966 15.79 105.171C16.5459 108.811 17.6036 112.382 18.952 115.846C26.583 115.913 33.996 118.163 34.985 126.789C35.2033 128.886 34.9092 131.005 34.1278 132.964C33.3464 134.922 32.1011 136.662 30.499 138.033C35.053 144.999 39.75 150.782 43.283 154.075C48.727 159.15 53.621 163.146 58.961 165.934C60.869 166.098 62.777 166.225 64.681 166.302C78.565 166.869 92.292 165.609 104.281 159.275C111.702 144.999 117.522 129.946 121.634 114.39C123.034 106.911 124.674 99.283 121.761 92.412C119.085 98.49 97.705 102.074 82.569 103.944C66.043 105.985 27.485 103.414 28.193 98.33C29.259 90.674 50.583 98.33 82.036 97.309C105.336 96.552 115.464 89.362 119.587 88.585C119.233 88.104 118.855 87.627 118.439 87.156C117.721 86.3472 116.943 85.5941 116.111 84.903C111.076 89.743 89.499 93.381 63.642 93.381C44.131 93.381 27.057 91.308 17.689 88.211ZM73.837 158.283C72.9621 158.245 72.1176 157.95 71.4086 157.436C70.6995 156.922 70.157 156.212 69.8485 155.392C69.54 154.572 69.4791 153.68 69.6733 152.826C69.8675 151.972 70.3083 151.194 70.9409 150.588C71.5735 149.983 72.37 149.576 73.2317 149.42C74.0933 149.263 74.982 149.362 75.7874 149.706C76.5928 150.05 77.2794 150.623 77.762 151.354C78.2446 152.085 78.502 152.941 78.502 153.817C78.4737 155.027 77.9667 156.177 77.0923 157.014C76.2179 157.851 75.0473 158.307 73.837 158.283ZM100.437 116.845C100.462 116.257 100.713 115.701 101.138 115.293C101.562 114.886 102.128 114.659 102.717 114.659C103.306 114.659 103.872 114.886 104.297 115.293C104.721 115.701 104.972 116.257 104.997 116.845V122C104.972 122.588 104.721 123.144 104.297 123.552C103.872 123.959 103.306 124.186 102.717 124.186C102.128 124.186 101.562 123.959 101.138 123.552C100.713 123.144 100.462 122.588 100.437 122V116.845ZM50.528 114.24C51.858 112.805 94.419 111.093 95.9 112.62C97.874 114.657 92.186 141.38 89.954 143.188C87.32 145.321 56.827 145.288 54.678 143.472C51.948 141.164 47.8 117.182 50.529 114.24H50.528ZM43.212 116.04C43.8017 115.98 44.3914 116.154 44.8543 116.524C45.3171 116.894 45.6162 117.432 45.687 118.02L46.168 123.159C46.1882 123.45 46.1508 123.743 46.0577 124.02C45.9647 124.297 45.8179 124.553 45.6258 124.773C45.4336 124.993 45.2 125.173 44.9381 125.302C44.6763 125.432 44.3915 125.509 44.1 125.528C43.5104 125.588 42.9207 125.415 42.4578 125.045C41.9949 124.675 41.6958 124.137 41.625 123.549L41.144 118.41C41.1239 118.119 41.1615 117.826 41.2547 117.549C41.3478 117.272 41.4948 117.017 41.687 116.797C41.8792 116.577 42.1129 116.397 42.3748 116.267C42.6367 116.138 42.9215 116.061 43.213 116.042L43.212 116.04Z" fill="#0080FF"/>
<path d="M22.651 71.894C22.451 71.726 22.27 71.552 22.081 71.381C15.444 73.201 10.294 75.752 6.53601 80.491C10.472 76.009 15.813 73.632 22.651 71.894Z" fill="#7978B5"/>
<path d="M102.405 170.149C101.931 170.744 101.448 171.339 100.955 171.933C101.694 171.058 102.414 170.18 103.116 169.298C104.073 168.072 104.968 166.798 105.796 165.482C105.706 165.527 105.619 165.576 105.529 165.619C104.574 167.187 103.531 168.699 102.405 170.149Z" fill="#7978B5"/>
<path d="M128.609 94.375C127.8 79.323 117.4 73.656 108.453 71.033C106.806 72.7713 104.925 74.2714 102.864 75.49C111.77 77.39 117.227 79.937 117.227 82.739C117.207 83.32 116.997 83.8783 116.627 84.327C117.869 85.351 118.991 86.512 119.972 87.788C120.16 88.035 120.317 88.288 120.491 88.534C121.34 88.634 121.809 89.259 122.02 90.674C122.036 90.8184 122.042 90.9638 122.038 91.109C125.714 98.502 123.913 106.528 122.406 114.593C118.376 129.837 112.707 144.6 105.497 158.623C107.144 157.699 108.739 156.685 110.274 155.585C110.66 155.298 111.108 155.108 111.582 155.029C117.444 143.08 122.106 130.58 125.5 117.711C126.608 113.453 127.466 109.133 128.068 104.774C128.563 101.331 128.744 97.8506 128.609 94.375Z" fill="#009DE2"/>
<path d="M16.8 88.169C16.843 88.095 16.889 88.022 16.933 87.948L16.9 87.937C16.861 88.013 16.829 88.092 16.8 88.169Z" fill="#7978B5"/>
<path d="M33.993 125.654C32.293 118.396 25.854 116.674 19.246 116.605C22.1658 123.847 25.7828 130.788 30.046 137.33C33.226 134.338 35.073 130.276 33.993 125.654Z" fill="#009DE2"/>
<path d="M105.529 165.619C93.005 171.719 78.729 173.003 64.681 172.427C50.164 171.834 35.521 168.96 22.497 163.213C22.405 163.173 21.384 162.723 21.292 162.681C23.947 167.296 27.085 171.615 30.653 175.566C42.8078 179.855 55.617 181.995 68.506 181.888C77.869 182.025 87.1842 180.529 96.034 177.469C99.6212 173.877 102.805 169.903 105.529 165.619Z" fill="#009DE2"/>
<path d="M30.048 137.33C25.7848 130.788 22.1678 123.847 19.248 116.605C18.154 116.593 17.055 116.622 15.972 116.684C16.9457 125.331 18.7405 133.866 21.332 142.173C21.3537 142.12 21.3879 142.074 21.4316 142.037C21.4753 142 21.5273 141.975 21.583 141.963C24.7399 141.131 27.6458 139.541 30.048 137.33Z" fill="#0268CE"/>
<path d="M12.314 100.8C18.342 99.084 16.265 93.383 15.855 90.165C16.113 89.4756 16.4274 88.8087 16.795 88.171C16.829 88.094 16.861 88.015 16.895 87.939C12.553 86.401 10.065 84.629 10.065 82.739C10.065 79.679 16.577 76.922 26.986 74.981C25.4584 74.0733 24.0084 73.0408 22.651 71.894C15.813 73.632 10.472 76.009 6.53602 80.494C4.08275 83.3913 2.25666 86.7656 1.17301 90.404C-0.290985 94.926 0.182016 103.637 0.143016 107.197C1.43402 106.433 4.94302 104.241 6.28202 103.555C9.62902 101.929 9.65101 102.458 12.314 100.8Z" fill="#0268CE"/>
<path d="M14.423 97.542C14.4338 97.7703 14.4221 97.999 14.388 98.225C14.4401 98.0012 14.4519 97.7699 14.423 97.542Z" fill="#5858A0"/>
<path d="M30.5 138.033C28.0135 140.264 25.0279 141.864 21.794 142.701C21.7421 142.717 21.6874 142.721 21.6335 142.714C21.5797 142.707 21.528 142.689 21.482 142.66C23.3894 148.467 25.9501 154.039 29.115 159.268C38.701 162.883 48.749 165.127 58.962 165.934C53.622 163.146 48.728 159.15 43.284 154.075C39.75 150.782 35.053 145 30.5 138.033Z" fill="#0268CE"/>
<path d="M13.993 105.727C12.6271 105.987 11.2194 105.926 9.8811 105.548C8.54285 105.171 7.31072 104.488 6.28201 103.552C4.17005 104.652 2.12058 105.868 0.143005 107.194C1.82301 121.775 8.61298 139.023 15.722 152.735C19.6111 155.077 23.6834 157.101 27.899 158.786C18.337 142.6 15.7 124.058 13.993 105.727Z" fill="#0268CE"/>
<path d="M14.775 105.541C15.096 109.006 15.447 112.478 15.875 115.941C15.904 115.93 15.9342 115.922 15.965 115.918C16.955 115.862 17.956 115.837 18.953 115.846C17.6046 112.382 16.5469 108.811 15.791 105.171C15.4601 105.315 15.1208 105.438 14.775 105.541Z" fill="#0268CE"/>
<path d="M105.5 158.623C112.71 144.6 118.379 129.837 122.409 114.593C123.916 106.528 125.717 98.502 122.041 91.109C121.589 90.214 121.072 89.3533 120.494 88.534C120.32 88.285 120.163 88.034 119.975 87.788C118.994 86.512 117.872 85.351 116.63 84.327C111.884 80.371 105.655 78.459 99.386 77.336C98.986 77.523 98.575 77.709 98.161 77.886C104.645 78.949 111.177 80.775 116.115 84.903C116.947 85.5941 117.725 86.3472 118.443 87.156C118.859 87.627 119.237 88.104 119.591 88.585C120.463 89.7712 121.193 91.0557 121.765 92.412C124.678 99.283 123.035 106.912 121.638 114.39C117.526 129.946 111.706 144.999 104.285 159.275C92.292 165.609 78.565 166.869 64.685 166.302C62.785 166.225 60.873 166.102 58.965 165.934C48.752 165.127 38.704 162.883 29.118 159.268C25.9531 154.039 23.3923 148.467 21.485 142.66C21.531 142.689 21.5827 142.707 21.6365 142.714C21.6904 142.721 21.7451 142.717 21.797 142.701C25.0308 141.864 28.0165 140.264 30.503 138.033C32.1051 136.662 33.3504 134.922 34.1318 132.964C34.9132 131.005 35.2074 128.886 34.989 126.789C34 118.163 26.589 115.913 18.956 115.846C17.956 115.837 16.956 115.862 15.968 115.918C15.9372 115.922 15.907 115.93 15.878 115.941C15.451 112.478 15.1 109.006 14.778 105.541C15.1235 105.438 15.4624 105.315 15.793 105.171C16.2775 104.966 16.7424 104.717 17.182 104.428C18.1173 103.818 18.916 103.021 19.5274 102.087C20.1388 101.153 20.5496 100.102 20.7339 99.0004C20.9183 97.8992 20.872 96.7717 20.5982 95.6893C20.3243 94.6069 19.8288 93.5931 19.143 92.712C18.4305 91.8265 17.5555 91.0853 16.565 90.528C16.8583 89.7182 17.236 88.9416 17.692 88.211C19.865 84.697 23.71 82.24 27.959 80.783C30.285 79.9655 32.6646 79.3096 35.081 78.82C34.572 78.627 34.066 78.432 33.571 78.23C30.3452 78.9282 27.2156 80.0134 24.25 81.462C21.2423 82.8826 18.703 85.1329 16.931 87.948C16.887 88.022 16.841 88.095 16.798 88.169C16.4304 88.8067 16.116 89.4736 15.858 90.163C13.258 88.942 10.121 88.853 7.85299 90.61C6.5755 91.3787 5.51978 92.4662 4.78942 93.766C4.05907 95.0658 3.67919 96.5331 3.68701 98.024C5.92501 96.878 8.228 95.824 10.617 94.892C12.86 94.013 14.342 95.703 14.426 97.542C14.4549 97.7699 14.4431 98.0012 14.391 98.225C14.3121 98.802 14.0773 99.3465 13.7118 99.8C13.3464 100.253 12.8641 100.598 12.317 100.798C10.2589 101.608 8.24538 102.528 6.285 103.552C7.31371 104.488 8.54587 105.171 9.88412 105.548C11.2224 105.926 12.6301 105.987 13.996 105.727C15.696 124.058 18.34 142.604 27.902 158.786C23.6864 157.101 19.6141 155.077 15.725 152.735C15.638 152.682 15.548 152.635 15.461 152.58C15.1326 152.362 14.7636 152.212 14.376 152.14C13.9884 152.068 13.5902 152.075 13.2054 152.161C12.8206 152.247 12.4571 152.41 12.1367 152.639C11.8163 152.869 11.5457 153.161 11.341 153.498C11.5862 153.817 11.8882 154.089 12.232 154.298C27.753 163.783 46.421 168.11 64.684 168.856C81.93 169.561 99.404 167.456 113.508 157.303C113.833 157.069 114.112 156.778 114.334 156.445C114.07 155.962 113.668 155.569 113.178 155.316C112.689 155.064 112.135 154.965 111.588 155.031C111.114 155.11 110.666 155.3 110.28 155.587C108.744 156.687 107.148 157.7 105.5 158.623ZM21.33 142.173C18.7385 133.866 16.9437 125.331 15.97 116.684C17.053 116.622 18.152 116.593 19.246 116.605C25.854 116.674 32.298 118.396 33.993 125.654C35.073 130.276 33.226 134.338 30.048 137.33C27.6452 139.541 24.7386 141.131 21.581 141.963C21.5253 141.975 21.4733 142 21.4296 142.037C21.3859 142.074 21.3517 142.12 21.33 142.173Z" fill="#004F84"/>
<path d="M22.5 163.213C24.616 164.146 26.7677 165.003 28.955 165.784C26.7677 165.003 24.616 164.146 22.5 163.213Z" fill="#484870"/>
<path d="M18.841 161.51C19.6523 161.91 20.4693 162.3 21.292 162.681C21.516 162.781 21.744 162.881 21.969 162.981C20.917 162.508 19.872 162.021 18.841 161.51Z" fill="#484870"/>
<path d="M12.229 157.869C13.182 158.451 14.151 159.007 15.129 159.551C14.153 159.007 13.184 158.451 12.229 157.868C11.659 157.521 11.285 157.291 12.229 157.869Z" fill="#484870"/>
<path d="M47.549 170.63C49.8197 171.022 52.0997 171.352 54.389 171.619C52.103 171.351 49.823 171.021 47.549 170.63Z" fill="#484870"/>
<path d="M113.505 157.3C99.405 167.449 81.927 169.558 64.681 168.853C46.418 168.107 27.75 163.78 12.229 154.295C11.8852 154.086 11.5832 153.814 11.338 153.495C11.0851 153.832 10.9066 154.219 10.8141 154.63C10.7216 155.041 10.7173 155.467 10.8015 155.88C10.8857 156.293 11.0564 156.684 11.3025 157.026C11.5485 157.368 11.8643 157.654 12.229 157.865C22.748 164.297 35.051 168.465 47.549 170.627C49.8197 171.019 52.0997 171.349 54.389 171.616C57.818 172.016 61.257 172.284 64.681 172.424C82.212 173.144 99.544 170.916 113.505 160.871C114.19 160.383 114.659 159.649 114.813 158.822C114.967 157.996 114.795 157.142 114.332 156.44C114.11 156.774 113.83 157.065 113.505 157.3Z" fill="#002760"/>
<path d="M89.955 143.188C92.187 141.38 97.875 114.657 95.901 112.62C94.42 111.093 51.859 112.805 50.529 114.24C47.804 117.182 51.948 141.164 54.679 143.472C56.828 145.287 87.321 145.321 89.955 143.188ZM86.3 121.3C86.706 121.3 87.0955 121.461 87.3826 121.748C87.6697 122.036 87.831 122.425 87.831 122.831C87.831 123.237 87.6697 123.626 87.3826 123.914C87.0955 124.201 86.706 124.362 86.3 124.362C85.894 124.362 85.5045 124.201 85.2174 123.914C84.9303 123.626 84.769 123.237 84.769 122.831C84.769 122.425 84.9303 122.036 85.2174 121.748C85.5045 121.461 85.894 121.3 86.3 121.3ZM78.3 120.789C78.3 118.816 81.5 118.819 81.5 120.789V126.914C81.5 128.888 78.3 128.884 78.3 126.914V120.789ZM73.5 117.727C73.5 115.754 76.7 115.757 76.7 117.727V128.445C76.7 130.419 73.5 130.415 73.5 128.445V117.727ZM67.1 120.279C67.1 118.305 70.3 118.309 70.3 120.279V124.362C70.3 126.336 67.1 126.332 67.1 124.362V120.279ZM62.3 118.748C62.3 116.774 65.5 116.778 65.5 118.748V129.466C65.5 131.44 62.3 131.436 62.3 129.466V118.748ZM61.233 135.848H86.3C86.5032 135.848 86.698 135.929 86.8416 136.072C86.9853 136.216 87.066 136.411 87.066 136.614C87.066 136.817 86.9853 137.012 86.8416 137.156C86.698 137.299 86.5032 137.38 86.3 137.38H61.249C61.0451 137.38 60.8495 137.299 60.7052 137.155C60.561 137.011 60.48 136.815 60.48 136.611C60.48 136.407 60.561 136.211 60.7052 136.067C60.8495 135.923 61.0451 135.842 61.249 135.842L61.233 135.848ZM56.968 119.772C56.968 117.798 60.168 117.801 60.168 119.772V125.386C60.168 127.36 56.968 127.356 56.968 125.386V119.772Z" fill="#18689E"/>
<path d="M116.63 84.327C117 83.8783 117.21 83.32 117.23 82.739C117.23 79.939 111.773 77.391 102.867 75.49C101.742 76.1674 100.581 76.7837 99.389 77.336C105.655 78.459 111.884 80.371 116.63 84.327Z" fill="#0268CE"/>
<path d="M35.078 78.82C32.6617 79.3097 30.282 79.9655 27.956 80.783C23.707 82.24 19.862 84.697 17.689 88.211C27.057 91.311 44.131 93.381 63.646 93.381C89.503 93.381 111.08 89.743 116.115 84.903C111.177 80.775 104.645 78.949 98.161 77.886C89.155 81.741 77.871 83.079 69.102 83.635C57.5512 84.3603 45.9739 82.7219 35.078 78.82Z" fill="#0268CE"/>
<path d="M10.065 82.739C10.065 84.627 12.553 86.399 16.895 87.939L16.928 87.95C18.7 85.1349 21.2393 82.8846 24.247 81.464C27.2126 80.0154 30.3422 78.9302 33.568 78.232C31.2947 77.3177 29.0943 76.2316 26.986 74.983C16.577 76.922 10.065 79.679 10.065 82.739Z" fill="#0268CE"/>
<path d="M102.718 124.188C103.31 124.199 103.883 123.975 104.311 123.565C104.739 123.155 104.986 122.592 105 122V116.84C104.975 116.252 104.724 115.696 104.299 115.288C103.875 114.881 103.309 114.654 102.72 114.654C102.131 114.654 101.565 114.881 101.141 115.288C100.716 115.696 100.465 116.252 100.44 116.84V122C100.454 122.592 100.701 123.154 101.128 123.564C101.555 123.974 102.126 124.198 102.718 124.188Z" fill="#18689E"/>
<path d="M44.1 125.53C44.3915 125.511 44.6763 125.434 44.9381 125.304C45.2 125.175 45.4337 124.995 45.6258 124.775C45.8179 124.555 45.9647 124.299 46.0577 124.022C46.1508 123.745 46.1883 123.452 46.168 123.161L45.687 118.022C45.6162 117.434 45.3171 116.896 44.8543 116.526C44.3914 116.156 43.8017 115.982 43.212 116.042C42.9204 116.061 42.6355 116.138 42.3736 116.268C42.1117 116.397 41.878 116.577 41.6859 116.798C41.4937 117.018 41.347 117.274 41.254 117.551C41.161 117.828 41.1236 118.12 41.144 118.412L41.625 123.551C41.6958 124.139 41.9949 124.677 42.4578 125.047C42.9207 125.417 43.5104 125.59 44.1 125.53Z" fill="#18689E"/>
<path d="M47.6 173.626L44.631 173.166C44.3046 173.111 43.9694 173.185 43.697 173.373C43.4245 173.561 43.2361 173.848 43.172 174.173C43.1479 174.334 43.1561 174.499 43.1961 174.657C43.2362 174.815 43.3073 174.963 43.4053 175.094C43.5033 175.224 43.6262 175.333 43.767 175.416C43.9077 175.498 44.0634 175.551 44.225 175.573L47.193 176.033C47.5194 176.088 47.8546 176.014 48.127 175.826C48.3995 175.638 48.5879 175.351 48.652 175.026C48.6761 174.865 48.668 174.7 48.628 174.542C48.588 174.385 48.517 174.236 48.4191 174.106C48.3212 173.976 48.1983 173.866 48.0577 173.784C47.9171 173.701 47.7615 173.648 47.6 173.626Z" fill="#18689E"/>
<path d="M57.884 175.059L54.897 174.729C54.5688 174.687 54.2373 174.776 53.9738 174.976C53.7104 175.176 53.5359 175.472 53.488 175.799C53.4722 175.961 53.4885 176.125 53.5362 176.28C53.5838 176.436 53.6619 176.581 53.7657 176.706C53.8695 176.831 53.9971 176.935 54.1412 177.011C54.2852 177.087 54.4429 177.133 54.605 177.148L57.592 177.479C57.9204 177.52 58.2518 177.431 58.5154 177.231C58.7789 177.031 58.9536 176.735 59.002 176.408C59.0177 176.246 59.0012 176.082 58.9534 175.927C58.9056 175.771 58.8275 175.626 58.7236 175.501C58.6197 175.376 58.4921 175.272 58.348 175.196C58.2039 175.12 58.0462 175.074 57.884 175.059Z" fill="#18689E"/>
<path d="M67.877 175.481H64.87C64.7059 175.474 64.5422 175.501 64.3886 175.559C64.235 175.617 64.0948 175.706 63.9763 175.82C63.8579 175.934 63.7636 176.07 63.6992 176.221C63.6348 176.372 63.6016 176.535 63.6016 176.699C63.6016 176.863 63.6348 177.026 63.6992 177.177C63.7636 177.328 63.8579 177.464 63.9763 177.578C64.0948 177.692 64.235 177.781 64.3886 177.839C64.5422 177.897 64.7059 177.924 64.87 177.917H67.877C68.0411 177.924 68.2049 177.897 68.3584 177.839C68.512 177.781 68.6522 177.692 68.7707 177.578C68.8892 177.464 68.9834 177.328 69.0478 177.177C69.1122 177.026 69.1454 176.863 69.1454 176.699C69.1454 176.535 69.1122 176.372 69.0478 176.221C68.9834 176.07 68.8892 175.934 68.7707 175.82C68.6522 175.706 68.512 175.617 68.3584 175.559C68.2049 175.501 68.0411 175.474 67.877 175.481Z" fill="#18689E"/>
<path d="M77.624 175.106L74.629 175.355C74.4663 175.365 74.3073 175.408 74.161 175.479C74.0148 175.551 73.8841 175.651 73.7765 175.774C73.669 175.896 73.5866 176.039 73.5342 176.193C73.4817 176.347 73.4603 176.51 73.471 176.673C73.5092 177.001 73.675 177.302 73.9326 177.509C74.1902 177.716 74.519 177.814 74.848 177.781L77.848 177.533C78.1756 177.511 78.481 177.359 78.697 177.112C78.913 176.865 79.022 176.542 79 176.214C78.9617 175.886 78.7961 175.586 78.5387 175.378C78.2813 175.171 77.9528 175.073 77.624 175.106Z" fill="#18689E"/>
<path d="M86.776 174.341L83.776 174.589C83.6133 174.599 83.4542 174.642 83.3079 174.714C83.1616 174.785 83.031 174.886 82.9235 175.008C82.816 175.131 82.7338 175.273 82.6815 175.428C82.6293 175.582 82.608 175.745 82.619 175.908C82.6573 176.237 82.8236 176.538 83.0821 176.745C83.3406 176.953 83.6704 177.05 84 177.016L87 176.767C87.1626 176.757 87.3215 176.714 87.4677 176.642C87.6138 176.57 87.7444 176.47 87.8518 176.348C87.9593 176.226 88.0416 176.083 88.0939 175.929C88.1463 175.775 88.1677 175.612 88.157 175.449C88.1188 175.12 87.9524 174.819 87.6939 174.612C87.4354 174.404 87.1057 174.307 86.776 174.341Z" fill="#18689E"/>
<path d="M95.233 172.523L92.321 173.242C92.1627 173.278 92.0131 173.345 91.8811 173.439C91.749 173.534 91.6372 173.654 91.5521 173.792C91.4671 173.93 91.4105 174.084 91.3858 174.244C91.361 174.405 91.3686 174.569 91.408 174.726C91.5028 175.044 91.7172 175.313 92.0061 175.476C92.2949 175.639 92.6357 175.684 92.957 175.601L95.868 174.881C96.0264 174.845 96.1761 174.779 96.3082 174.684C96.4404 174.59 96.5523 174.47 96.6375 174.332C96.7226 174.194 96.7793 174.04 96.8042 173.88C96.829 173.719 96.8214 173.555 96.782 173.398C96.6872 173.08 96.4728 172.811 96.184 172.648C95.8951 172.485 95.5542 172.44 95.233 172.523Z" fill="#18689E"/>
<path d="M28.2 98.33C27.492 103.414 66.05 105.985 82.576 103.944C97.712 102.074 119.092 98.49 121.768 92.412C121.196 91.0557 120.466 89.7712 119.594 88.585C115.471 89.362 105.343 96.552 82.043 97.309C50.587 98.33 29.263 90.674 28.2 98.33Z" fill="#0268CE"/>
<path d="M122.023 90.674C121.812 89.259 121.343 88.633 120.494 88.534C121.072 89.3533 121.589 90.214 122.041 91.109C122.045 90.9638 122.039 90.8184 122.023 90.674Z" fill="#9A9AE2"/>
<path d="M60.183 125.38V119.766C60.183 117.795 56.983 117.792 56.983 119.766V125.38C56.984 127.35 60.183 127.354 60.183 125.38Z" fill="#009DE2"/>
<path d="M65.514 129.463V118.745C65.514 116.775 62.314 116.771 62.314 118.745V129.463C62.316 131.433 65.514 131.437 65.514 129.463Z" fill="#009DE2"/>
<path d="M70.312 124.359V120.276C70.312 118.306 67.112 118.302 67.112 120.276V124.359C67.113 126.329 70.312 126.333 70.312 124.359Z" fill="#009DE2"/>
<path d="M76.709 128.442V117.724C76.709 115.754 73.509 115.751 73.509 117.724V128.442C73.511 130.412 76.709 130.416 76.709 128.442Z" fill="#009DE2"/>
<path d="M81.507 126.911V120.786C81.507 118.816 78.307 118.813 78.307 120.786V126.911C78.309 128.881 81.507 128.885 81.507 126.911Z" fill="#009DE2"/>
<path d="M86.3 124.359C86.706 124.359 87.0955 124.198 87.3826 123.911C87.6697 123.623 87.831 123.234 87.831 122.828C87.831 122.422 87.6697 122.033 87.3826 121.745C87.0955 121.458 86.706 121.297 86.3 121.297C85.8939 121.297 85.5045 121.458 85.2174 121.745C84.9303 122.033 84.769 122.422 84.769 122.828C84.769 123.234 84.9303 123.623 85.2174 123.911C85.5045 124.198 85.8939 124.359 86.3 124.359Z" fill="#009DE2"/>
<path d="M61.249 137.374H86.3C86.5031 137.374 86.698 137.293 86.8416 137.15C86.9853 137.006 87.066 136.811 87.066 136.608C87.066 136.405 86.9853 136.21 86.8416 136.066C86.698 135.923 86.5031 135.842 86.3 135.842H61.249C61.0458 135.842 60.851 135.923 60.7074 136.066C60.5637 136.21 60.483 136.405 60.483 136.608C60.483 136.811 60.5637 137.006 60.7074 137.15C60.851 137.293 61.0458 137.374 61.249 137.374Z" fill="#009DE2"/>
<path d="M73.837 150.116C73.1131 150.148 72.4147 150.392 71.8283 150.818C71.2419 151.244 70.7934 151.832 70.5385 152.511C70.2836 153.189 70.2335 153.927 70.3943 154.634C70.5552 155.34 70.92 155.984 71.4434 156.485C71.9668 156.986 72.6259 157.322 73.3387 157.452C74.0516 157.582 74.7869 157.5 75.4534 157.216C76.12 156.932 76.6883 156.458 77.0881 155.853C77.4878 155.249 77.7013 154.541 77.702 153.816C77.6781 152.813 77.258 151.861 76.5336 151.168C75.8093 150.474 74.8396 150.096 73.837 150.116Z" fill="#65D9C8"/>
<path d="M73.837 149.351C72.9621 149.389 72.1176 149.684 71.4086 150.198C70.6995 150.712 70.157 151.423 69.8485 152.242C69.54 153.062 69.4791 153.954 69.6733 154.808C69.8675 155.662 70.3082 156.44 70.9408 157.046C71.5734 157.651 72.37 158.058 73.2316 158.215C74.0933 158.371 74.982 158.272 75.7874 157.928C76.5928 157.584 77.2794 157.011 77.762 156.28C78.2446 155.549 78.502 154.693 78.502 153.817C78.4737 152.607 77.9667 151.457 77.0923 150.62C76.2179 149.783 75.0473 149.327 73.837 149.351ZM73.837 157.517C73.1131 157.485 72.4146 157.241 71.8283 156.815C71.2419 156.389 70.7934 155.801 70.5385 155.122C70.2836 154.444 70.2334 153.706 70.3943 152.999C70.5552 152.293 70.92 151.649 71.4434 151.148C71.9668 150.647 72.6258 150.311 73.3387 150.181C74.0516 150.051 74.7869 150.133 75.4534 150.417C76.1199 150.701 76.6883 151.175 77.0881 151.78C77.4878 152.384 77.7013 153.092 77.702 153.817C77.6784 154.82 77.2583 155.772 76.5339 156.466C75.8094 157.159 74.8397 157.537 73.837 157.517Z" fill="#009DE2"/>
<path d="M26.986 74.981C29.0943 76.2296 31.2947 77.3157 33.568 78.23C34.063 78.43 34.568 78.63 35.078 78.82C45.9733 82.7216 57.5499 84.36 69.1 83.635C77.869 83.079 89.153 81.741 98.159 77.886C98.573 77.709 98.98 77.523 99.384 77.336C100.576 76.7837 101.737 76.1674 102.862 75.49C104.923 74.2714 106.804 72.7712 108.451 71.033C110.304 69.052 111.712 66.6975 112.58 64.1276C113.448 61.5577 113.756 58.8319 113.484 56.133C113.416 55.144 113.306 54.126 113.184 53.097C109.926 70.28 85.247 73.937 69.105 74.961C46.205 76.413 20.298 67.987 16.982 54.896C16.7238 56.9235 16.6042 58.9662 16.624 61.01C16.715 64.85 18.734 68.343 22.084 71.384C22.273 71.555 22.456 71.729 22.654 71.897C24.0106 73.0426 25.4595 74.0741 26.986 74.981Z" fill="#2F2F59"/>
<path d="M63.175 9.762C65.8249 9.762 67.973 8.7336 67.973 7.465C67.973 6.1964 65.8249 5.168 63.175 5.168C60.5252 5.168 58.377 6.1964 58.377 7.465C58.377 8.7336 60.5252 9.762 63.175 9.762Z" fill="#18689E"/>
<path d="M56.984 43.208C57.8143 43.226 58.6178 42.9135 59.2178 42.3394C59.8178 41.7652 60.1654 40.9763 60.184 40.146C60.1739 39.4947 59.9568 38.8636 59.5641 38.3438C59.1715 37.8241 58.6237 37.4428 58 37.255C57.6734 37.1452 57.3315 37.0875 56.987 37.084C56.1566 37.0658 55.353 37.3781 54.7529 37.9523C54.1528 38.5266 53.8054 39.3156 53.787 40.146C53.7873 40.3589 53.8108 40.5712 53.857 40.779C54.025 41.4788 54.4261 42.1005 54.9944 42.542C55.5628 42.9835 56.2644 43.2183 56.984 43.208Z" fill="#69FFFF"/>
<path d="M83.64 42.187C85.4067 42.187 86.839 40.8161 86.839 39.125C86.839 37.4339 85.4067 36.063 83.64 36.063C81.8732 36.063 80.441 37.4339 80.441 39.125C80.441 40.8161 81.8732 42.187 83.64 42.187Z" fill="#69FFFF"/>
<path d="M30.653 175.566C38.801 184.757 46.906 192.127 59.114 193.66C63.9498 194.366 68.8815 194.006 73.563 192.603C82.278 189.965 89.874 183.921 96.046 177.466H96.036C87.1862 180.526 77.871 182.022 68.508 181.885C55.6185 181.993 42.8087 179.855 30.653 175.566Z" fill="#002760"/>
<g style="mix-blend-mode:color-dodge" opacity="0.2">
<path d="M40.044 23.408C42.997 19.058 52.424 11.008 49.017 8.728C46.353 6.943 38.117 15.144 35.501 22.212C32.885 29.28 37.092 27.757 40.044 23.408Z" fill="#FFFFB8"/>
</g>
</svg>
