<svg width="182" height="242" viewBox="0 0 182 242" fill="none" xmlns="http://www.w3.org/2000/svg">
<path d="M46.8308 205.826L43.6832 199.92L38.2545 195.529L32.9623 194.841L27.387 189.35L22.0992 160.903L24.586 161.41L34.4617 190.96L39.1097 191.339L45.4692 197.241L46.8308 205.826Z" fill="#1A5C89"/>
<path d="M46.8308 205.826L15.0246 240.969C11.4923 241.959 7.79946 242.241 4.15818 241.798C3.26722 241.701 2.42262 241.351 1.72414 240.788C1.02565 240.226 0.502474 239.476 0.216542 238.625C0.0489925 238.116 -0.0221552 237.58 0.00667218 237.044L1.27165 213.107L1.30168 212.551L1.46051 212.118L19.8491 161.972C19.9711 161.654 20.1877 161.38 20.4697 161.189C20.7517 160.997 21.0856 160.897 21.4263 160.902H22.1004L26.714 185.724L26.985 187.17L27.3881 189.345L30.7545 192.66L32.9624 194.834L38.2545 195.522L43.6833 199.913L46.8308 205.826Z" fill="#63D6C9"/>
<path d="M46.8308 205.826L15.0246 240.969C11.4923 241.959 7.79947 242.241 4.15819 241.798C3.26723 241.701 2.42263 241.351 1.72415 240.788C1.02566 240.226 0.502485 239.476 0.216553 238.625C0.824989 239.101 1.50551 239.477 2.23235 239.737C5.4059 240.38 8.6521 240.588 11.8816 240.354C13.2214 240.127 14.4642 239.508 15.4533 238.575C15.4533 238.3 15.0246 232.258 15.0246 232.258L22.8157 207.34L30.7545 192.675L32.9624 194.848L38.2545 195.537L43.6833 199.927L46.8308 205.826Z" fill="#4598DE"/>
<path d="M26.985 187.178L18.2665 206.094L10.26 211.798L4.55692 214.116L1.61928 213.441L1.27167 213.108L1.3017 212.552L1.46052 212.119L2.05692 212.692L4.48032 213.248L9.87905 211.056L17.5724 205.554L26.7151 185.722L26.985 187.178Z" fill="#004F84"/>
<path d="M16.6323 186.517C20.3754 176.805 22.5701 168.609 21.5343 168.208C20.4985 167.808 16.6245 175.356 12.8814 185.068C9.13835 194.779 6.94368 202.976 7.97946 203.376C9.01525 203.776 12.8893 196.228 16.6323 186.517Z" fill="#BBDDFF"/>
<path d="M7.50117 204.985C6.9392 204.785 6.19396 205.375 5.83523 206.301C5.4765 207.227 5.64531 208.139 6.2084 208.339C6.77149 208.539 7.51561 207.95 7.87434 207.024C8.23308 206.097 8.06426 205.186 7.50117 204.985Z" fill="#BBDDFF"/>
<path d="M4.60067 226.645C4.94509 221.186 4.5886 216.72 3.80442 216.67C3.02023 216.621 2.10532 221.006 1.7609 226.466C1.41648 231.925 1.77297 236.391 2.55716 236.44C3.34134 236.49 4.25625 232.104 4.60067 226.645Z" fill="#BBDDFF"/>
<path d="M61.3978 170.712C55.4971 174.917 37.7869 187.293 29.0252 190.962L27.3881 189.352L24.5849 174.299C24.9581 174.122 25.3623 173.928 25.8066 173.722C32.6458 170.497 47.2417 163.759 54.9284 161.337C55.4563 161.173 55.9495 161.029 56.4078 160.905C57.9101 164.213 59.5734 167.482 61.3978 170.712Z" fill="#0C386D"/>
<path d="M61.3978 170.712C55.4971 174.917 37.7869 187.293 29.0252 190.962L27.3881 189.352L24.5849 174.299C24.9581 174.122 25.3623 173.928 25.8066 173.722C26.3208 176.234 27.6802 182.429 28.8164 183.364C29.7995 184.083 31.0154 184.409 32.226 184.278L54.1899 172.255C54.9799 170.986 55.5566 169.597 55.8969 168.141C55.8017 165.847 55.4783 163.568 54.9317 161.337C55.4596 161.173 55.9528 161.029 56.4111 160.905C57.9112 164.213 59.5734 167.482 61.3978 170.712Z" fill="#002760"/>
<path d="M49.9639 166.102C50.316 166.909 45.6646 169.595 39.5784 172.168C33.4921 174.741 28.2622 176.188 27.889 175.382C27.5158 174.575 32.1449 171.817 38.2423 169.245C44.3397 166.673 49.6063 165.283 49.9639 166.102Z" fill="#205991"/>
<path d="M50.9068 165.609C51.0513 165.835 51.2747 165.999 51.5334 166.068C51.7921 166.137 52.0673 166.107 52.3051 165.984C52.5585 165.917 52.7765 165.755 52.914 165.532C53.0515 165.309 53.0979 165.041 53.0436 164.784C52.9049 164.549 52.6808 164.377 52.4183 164.305C52.1557 164.232 51.8751 164.263 51.6354 164.393C51.0445 164.626 50.7191 165.171 50.9068 165.609Z" fill="#205991"/>
<path d="M135.17 205.826L138.318 199.92L143.747 195.529L149.039 194.841L154.614 189.35L159.902 160.903L157.415 161.41L147.539 190.96L142.891 191.339L136.532 197.241L135.17 205.826Z" fill="#1A5C89"/>
<path d="M135.17 205.826L166.977 240.969C170.509 241.959 174.202 242.241 177.843 241.798C178.734 241.701 179.579 241.351 180.277 240.788C180.975 240.226 181.499 239.476 181.785 238.625C181.952 238.116 182.023 237.58 181.994 237.044L180.729 213.107L180.699 212.551L180.541 212.118L162.152 161.972C162.03 161.654 161.813 161.38 161.531 161.189C161.249 160.997 160.916 160.897 160.575 160.902H159.901L155.287 185.724L155.016 187.17L154.614 189.345L151.247 192.66L149.039 194.834L143.747 195.522L138.318 199.913L135.17 205.826Z" fill="#63D6C9"/>
<path d="M135.17 205.826L166.977 240.969C170.509 241.959 174.202 242.241 177.843 241.798C178.734 241.701 179.578 241.351 180.277 240.788C180.975 240.226 181.499 239.476 181.785 238.625C181.176 239.101 180.496 239.477 179.769 239.737C176.595 240.38 173.349 240.588 170.12 240.354C168.78 240.127 167.537 239.508 166.548 238.575C166.548 238.3 166.977 232.258 166.977 232.258L159.185 207.34L151.247 192.675L149.039 194.848L143.747 195.537L138.318 199.927L135.17 205.826Z" fill="#4598DE"/>
<path d="M155.016 187.178L163.735 206.094L171.741 211.798L177.444 214.116L180.382 213.441L180.729 213.108L180.699 212.552L180.541 212.119L179.944 212.692L177.521 213.248L172.122 211.056L164.429 205.554L155.286 185.722L155.016 187.178Z" fill="#004F84"/>
<path d="M174.023 203.375C175.058 202.975 172.864 194.778 169.121 185.066C165.378 175.355 161.504 167.807 160.468 168.207C159.432 168.607 161.627 176.804 165.37 186.515C169.113 196.227 172.987 203.775 174.023 203.375Z" fill="#BBDDFF"/>
<path d="M174.5 204.985C175.062 204.785 175.807 205.375 176.166 206.301C176.525 207.227 176.356 208.139 175.793 208.339C175.23 208.539 174.485 207.95 174.127 207.024C173.768 206.097 173.937 205.186 174.5 204.985Z" fill="#BBDDFF"/>
<path d="M179.445 236.44C180.229 236.391 180.586 231.925 180.241 226.466C179.897 221.006 178.982 216.621 178.198 216.67C177.413 216.72 177.057 221.186 177.401 226.645C177.746 232.105 178.661 236.49 179.445 236.44Z" fill="#BBDDFF"/>
<path d="M120.603 170.711C126.504 174.916 144.214 187.293 152.976 190.962L154.614 189.352L157.414 174.298C157.041 174.121 156.637 173.928 156.192 173.721C149.353 170.497 134.757 163.759 127.07 161.337C126.543 161.173 126.049 161.028 125.591 160.905C124.09 164.213 122.428 167.482 120.603 170.711Z" fill="#0C386D"/>
<path d="M120.603 170.711C126.504 174.916 144.214 187.293 152.976 190.962L154.614 189.352L157.414 174.298C157.041 174.121 156.637 173.928 156.192 173.721C155.678 176.234 154.319 182.428 153.182 183.363C152.199 184.083 150.983 184.409 149.773 184.277L127.811 172.255C127.021 170.986 126.445 169.596 126.104 168.141C126.199 165.846 126.523 163.567 127.069 161.337C126.541 161.173 126.048 161.028 125.59 160.905C124.09 164.213 122.428 167.482 120.603 170.711Z" fill="#002760"/>
<path d="M132.037 166.102C131.685 166.909 136.336 169.595 142.423 172.168C148.509 174.741 153.739 176.188 154.112 175.382C154.485 174.575 149.856 171.817 143.759 169.245C137.661 166.673 132.395 165.283 132.037 166.102Z" fill="#205991"/>
<path d="M131.094 165.609C130.95 165.835 130.726 165.999 130.468 166.068C130.209 166.137 129.934 166.107 129.696 165.984C129.443 165.917 129.225 165.755 129.087 165.532C128.95 165.309 128.903 165.041 128.957 164.784C129.096 164.549 129.32 164.377 129.583 164.305C129.845 164.232 130.126 164.263 130.366 164.393C130.956 164.626 131.282 165.171 131.094 165.609Z" fill="#205991"/>
<path d="M84.62 199.31L74.581 231.712C74.2957 232.583 73.7627 233.352 73.0474 233.925C72.3322 234.498 71.4656 234.849 70.5539 234.936C69.1637 235.092 67.7599 235.081 66.3723 234.903C65.685 234.816 65.0258 234.575 64.4433 234.2C63.8608 233.824 63.3697 233.323 63.006 232.732C62.8644 232.508 62.7439 232.271 62.6461 232.024L60.7037 227.132L60.3438 226.218L55.3049 213.533C55.1341 213.106 55.0299 212.656 54.9961 212.198L54.1165 200.358C54.014 198.929 54.4655 197.516 55.3771 196.412C55.4371 196.334 55.506 196.255 55.5748 196.177L55.9435 195.774L59.5075 191.853L60.5882 190.667L64.2332 189.789L74.7054 190.955L80.0364 191.844C80.4894 191.917 80.9217 192.085 81.3047 192.338C81.6877 192.591 82.0125 192.923 82.2577 193.311L84.2691 196.556C84.5209 196.963 84.6826 197.42 84.7432 197.895C84.8037 198.37 84.7617 198.853 84.62 199.31Z" fill="#63D6C9"/>
<path d="M84.62 199.31L74.581 231.712C74.2957 232.583 73.7627 233.352 73.0474 233.925C72.3322 234.498 71.4656 234.849 70.5539 234.936C69.1637 235.092 67.7599 235.081 66.3723 234.903C65.685 234.816 65.0258 234.575 64.4433 234.2C63.8608 233.824 63.3697 233.323 63.006 232.732C64.3876 232.053 67.8861 232.317 67.8861 232.317L71.2013 198.614C68.9655 198.364 66.7519 197.944 64.5798 197.358C63.5213 196.913 60.9002 193.66 59.5075 191.856L60.5882 190.67L64.2332 189.793L74.7054 190.958L80.0364 191.847C80.4894 191.92 80.9217 192.089 81.3047 192.341C81.6877 192.594 82.0125 192.926 82.2577 193.314L84.269 196.56C84.5204 196.966 84.6818 197.422 84.7423 197.897C84.8029 198.371 84.7612 198.853 84.62 199.31Z" fill="#1A5C89"/>
<path d="M63.5258 221.984C62.9516 223.879 61.9906 225.635 60.7037 227.14L60.3438 226.226C61.4079 224.915 62.2059 223.408 62.6928 221.79C63.4647 218.685 63.7568 208.689 62.7061 205.971C61.9553 204.027 57.7405 199.092 55.376 196.42C55.436 196.342 55.5048 196.263 55.5737 196.185L55.9424 195.781C58.3136 198.462 62.6962 203.578 63.5114 205.677C64.6276 208.569 64.3399 218.717 63.5258 221.984Z" fill="#004F84"/>
<path d="M56.5943 211.819C56.1334 211.845 55.6037 209.262 55.4104 206.054C55.2172 202.846 55.4349 200.222 55.8969 200.197C56.3589 200.171 56.8875 202.754 57.0808 205.962C57.274 209.169 57.0564 211.793 56.5943 211.819Z" fill="#BBDDFF"/>
<path d="M56.682 212.334C56.5508 212.356 56.4337 212.429 56.3559 212.538C56.2782 212.646 56.2461 212.78 56.2667 212.912C56.2624 213.046 56.3104 213.176 56.4004 213.275C56.4904 213.373 56.6153 213.433 56.7487 213.441C56.8799 213.419 56.9971 213.346 57.0749 213.238C57.1526 213.129 57.1846 212.995 57.1641 212.863C57.1684 212.729 57.1204 212.599 57.0304 212.501C56.9404 212.402 56.8154 212.342 56.682 212.334Z" fill="#BBDDFF"/>
<path d="M66.2335 227.928C65.7471 227.917 65.4894 222.415 65.6571 215.64C65.8248 208.864 66.3546 203.38 66.841 203.391C67.3275 203.402 67.5863 208.904 67.4186 215.68C67.2509 222.455 66.7211 227.939 66.2335 227.928Z" fill="#BBDDFF"/>
<path d="M77.2776 184.204C77.2776 184.204 72.9894 196.148 71.9177 196.56C70.0905 197.042 68.1695 197.042 66.3423 196.56C64.6963 196.004 63.4825 192.779 63.1215 191.753C63.1152 191.243 63.2025 190.737 63.3792 190.259C64.1344 187.499 66.2668 181.728 67.4274 178.668C67.453 178.598 67.4785 178.533 67.5051 178.467C70.4632 179.967 73.5448 181.21 76.7156 182.182C76.8056 182.211 76.9 182.235 76.9899 182.255L77.2776 184.204Z" fill="#0C386D"/>
<path d="M77.2776 184.204C77.2776 184.204 72.9894 196.148 71.9177 196.56C70.0905 197.042 68.1695 197.042 66.3423 196.56C64.6963 196.004 63.4825 192.779 63.1215 191.753C63.1152 191.243 63.2025 190.737 63.3792 190.258C64.331 191.51 66.1624 193.763 67.3374 194.15C68.5807 194.458 69.8803 194.458 71.1236 194.15C71.1236 194.15 75.2707 183.582 74.983 183.031C74.6954 182.481 69.4299 180.011 68.8812 179.67C68.628 179.509 68.015 179.081 67.4274 178.669C67.453 178.599 67.4785 178.534 67.5051 178.468C70.4632 179.968 73.5448 181.211 76.7156 182.183C76.8056 182.212 76.9 182.236 76.9899 182.256L77.2776 184.204Z" fill="#002760"/>
<path d="M64.6975 189.213C64.3643 189.102 64.7741 187.101 65.6226 184.754C66.4712 182.406 67.4329 180.59 67.7705 180.702C68.1082 180.814 67.6939 182.814 66.8454 185.162C65.9969 187.509 65.0351 189.326 64.6975 189.213Z" fill="#205991"/>
<path d="M97.3811 199.31L107.42 231.712C107.705 232.583 108.238 233.352 108.954 233.925C109.669 234.498 110.535 234.849 111.447 234.936C112.837 235.092 114.241 235.081 115.629 234.903C116.316 234.816 116.975 234.575 117.558 234.2C118.14 233.824 118.631 233.323 118.995 232.732C119.137 232.508 119.257 232.271 119.355 232.024L121.297 227.132L121.657 226.218L126.696 213.533C126.867 213.106 126.971 212.656 127.005 212.198L127.885 200.358C127.987 198.929 127.536 197.516 126.624 196.412C126.564 196.334 126.495 196.255 126.426 196.177L126.058 195.774L122.494 191.853L121.413 190.667L117.768 189.789L107.296 190.955L101.965 191.844C101.512 191.917 101.079 192.085 100.696 192.338C100.313 192.591 99.9886 192.923 99.7434 193.311L97.732 196.556C97.4801 196.963 97.3184 197.42 97.2579 197.895C97.1974 198.37 97.2394 198.853 97.3811 199.31Z" fill="#63D6C9"/>
<path d="M97.381 199.31L107.42 231.711C107.705 232.583 108.238 233.352 108.954 233.925C109.669 234.497 110.535 234.849 111.447 234.936C112.837 235.092 114.241 235.08 115.629 234.903C116.316 234.815 116.975 234.575 117.558 234.2C118.14 233.824 118.631 233.323 118.995 232.732C117.613 232.053 114.115 232.316 114.115 232.316L110.8 198.614C113.036 198.364 115.249 197.944 117.421 197.358C118.48 196.913 121.101 193.659 122.493 191.856L121.413 190.67L117.768 189.792L107.296 190.958L101.965 191.847C101.512 191.92 101.079 192.088 100.696 192.341C100.313 192.594 99.9885 192.925 99.7433 193.314L97.7319 196.559C97.4805 196.966 97.3192 197.422 97.2586 197.897C97.1981 198.371 97.2398 198.853 97.381 199.31Z" fill="#1A5C89"/>
<path d="M118.475 221.984C119.049 223.879 120.01 225.635 121.297 227.14L121.657 226.226C120.593 224.915 119.795 223.408 119.308 221.79C118.536 218.685 118.244 208.689 119.295 205.971C120.046 204.027 124.261 199.092 126.625 196.42C126.565 196.342 126.496 196.263 126.427 196.185L126.059 195.781C123.687 198.462 119.305 203.578 118.49 205.677C117.373 208.569 117.661 218.717 118.475 221.984Z" fill="#004F84"/>
<path d="M125.406 211.819C125.867 211.845 126.397 209.262 126.59 206.054C126.783 202.846 126.566 200.222 126.104 200.197C125.642 200.171 125.113 202.754 124.92 205.962C124.726 209.169 124.944 211.793 125.406 211.819Z" fill="#BBDDFF"/>
<path d="M125.319 212.334C125.45 212.356 125.567 212.429 125.645 212.538C125.723 212.646 125.755 212.78 125.734 212.912C125.739 213.046 125.691 213.176 125.601 213.275C125.511 213.373 125.386 213.433 125.252 213.441C125.121 213.419 125.004 213.346 124.926 213.238C124.848 213.129 124.816 212.995 124.837 212.863C124.833 212.729 124.881 212.599 124.971 212.501C125.061 212.402 125.186 212.342 125.319 212.334Z" fill="#BBDDFF"/>
<path d="M115.767 227.927C116.253 227.915 116.512 222.412 116.345 215.637C116.177 208.861 115.647 203.379 115.16 203.391C114.673 203.403 114.414 208.905 114.582 215.681C114.749 222.456 115.28 227.939 115.767 227.927Z" fill="#BBDDFF"/>
<path d="M104.723 184.204C104.723 184.204 109.012 196.148 110.083 196.56C111.911 197.042 113.832 197.042 115.659 196.56C117.305 196.004 118.519 192.779 118.88 191.753C118.886 191.243 118.799 190.737 118.622 190.259C117.867 187.499 115.734 181.728 114.574 178.668C114.548 178.598 114.523 178.533 114.496 178.467C111.538 179.967 108.456 181.21 105.285 182.182C105.195 182.211 105.101 182.235 105.011 182.255L104.723 184.204Z" fill="#0C386D"/>
<path d="M104.723 184.204C104.723 184.204 109.012 196.148 110.083 196.56C111.911 197.042 113.832 197.042 115.659 196.56C117.305 196.004 118.519 192.779 118.88 191.753C118.886 191.243 118.799 190.737 118.622 190.258C117.67 191.51 115.839 193.763 114.664 194.15C113.42 194.458 112.121 194.458 110.877 194.15C110.877 194.15 106.73 183.582 107.018 183.031C107.306 182.481 112.571 180.011 113.12 179.67C113.373 179.509 113.986 179.081 114.574 178.669C114.548 178.599 114.523 178.534 114.496 178.468C111.538 179.968 108.456 181.211 105.285 182.183C105.195 182.212 105.101 182.236 105.011 182.256L104.723 184.204Z" fill="#002760"/>
<path d="M117.304 189.213C117.637 189.102 117.227 187.101 116.378 184.754C115.53 182.406 114.568 180.59 114.23 180.702C113.893 180.814 114.307 182.814 115.156 185.162C116.004 187.509 116.966 189.326 117.304 189.213Z" fill="#205991"/>
<path d="M118.163 18.842C118.163 18.842 111.585 26.8041 107.155 28.7266C105.6 29.4026 98.9593 29.6005 91.0005 29.5794C83.0418 29.6005 76.4035 29.4026 74.8464 28.7266C70.4161 26.8041 63.8379 18.842 63.8379 18.842L63.8811 18.097C63.9249 17.4302 64.217 16.8041 64.6997 16.3424C64.9776 16.0756 65.3078 15.8693 65.6693 15.7365C69.0312 14.4889 72.2953 13.3693 75.3696 12.4998C75.6572 12.4175 75.9404 12.3397 76.2225 12.2652C78.8567 11.5124 81.5542 11.0022 84.2812 10.7408H97.7198C99.941 10.944 102.142 11.3255 104.303 11.8816C104.586 11.9516 104.873 12.0261 105.164 12.1039C108.655 13.0135 112.429 14.2944 116.332 15.7398C116.693 15.8726 117.023 16.079 117.301 16.3458C117.784 16.8074 118.076 17.4335 118.12 18.1003L118.163 18.842Z" fill="#63D6C9"/>
<path d="M156.573 37.7306C153.177 35.6307 149.755 33.6359 146.307 31.7465C145.93 31.5367 145.553 31.3306 145.175 31.1283C136.469 26.4051 127.443 22.2996 118.163 18.842C118.163 18.842 111.585 26.8042 107.155 28.7266C105.6 29.4026 98.9593 29.6006 91.0005 29.5794C83.0418 29.6006 76.4036 29.4026 74.8465 28.7266C70.4161 26.8042 63.8379 18.842 63.8379 18.842C54.558 22.2996 45.5318 26.4051 36.8262 31.1283C36.4486 31.3291 36.0714 31.5352 35.6945 31.7465C32.2464 33.6322 28.8241 35.6269 25.4278 37.7306C24.4392 38.2018 23.6027 38.9415 23.0137 39.8654C22.4246 40.7894 22.1066 41.8604 22.0959 42.9565V105.118C22.0971 106.863 22.363 108.598 22.8845 110.263V110.275C23.2783 111.529 23.8133 112.734 24.4794 113.867L34.1674 130.407C35.2654 132.277 36.7229 133.911 38.4556 135.214C40.5447 136.786 42.9622 137.864 45.527 138.368L70.5494 143.294C70.5494 143.294 80.8416 145.012 82.2688 145.184C83.2683 145.303 88.144 145.257 90.9917 145.216C93.8393 145.257 98.715 145.303 99.7146 145.184C101.142 145.015 111.434 143.294 111.434 143.294L136.456 138.368C139.021 137.864 141.439 136.786 143.528 135.214C145.26 133.911 146.718 132.277 147.816 130.407L157.504 113.867C158.17 112.734 158.705 111.529 159.099 110.275V110.263C159.62 108.598 159.886 106.863 159.887 105.118V42.9565C159.878 41.8623 159.563 40.7926 158.977 39.8688C158.391 38.9451 157.559 38.2043 156.573 37.7306Z" fill="#63D6C9"/>
<path d="M139.746 132.034C134.707 134.093 97.0768 137.849 96.6992 137.232C96.3216 136.615 96.6992 133.014 96.3272 131.005C95.9551 128.996 94.127 126.936 93.9126 126.319C93.6983 125.702 94.579 123.317 94.579 123.317C94.579 123.317 102.581 123.181 105.583 121.946C108.516 120.738 132.523 103.066 133.645 102.238L105.102 119.486C103.77 120.288 102.244 120.711 100.69 120.709H81.3092C79.7546 120.711 78.2292 120.288 76.8967 119.486L48.3535 102.238C49.4763 103.066 73.4826 120.738 76.4157 121.946C79.4144 123.181 87.4199 123.317 87.4199 123.317C87.4199 123.317 88.2984 125.702 88.0862 126.319C87.8741 126.936 86.045 128.995 85.6718 131.005C85.2986 133.016 85.6718 136.615 85.2997 137.232C84.9276 137.849 47.2917 134.093 42.2528 132.034C37.2138 129.975 26.0565 116.004 22.8912 110.275C23.2849 111.529 23.82 112.734 24.4861 113.867L34.1741 130.407C35.272 132.277 36.7295 133.911 38.4622 135.214C40.5514 136.786 42.9689 137.864 45.5336 138.368L70.5561 143.294C70.5561 143.294 80.8483 145.012 82.2754 145.184C83.275 145.303 88.1507 145.257 90.9983 145.216C93.846 145.257 98.7216 145.303 99.7212 145.184C101.148 145.015 111.441 143.294 111.441 143.294L136.463 138.368C139.028 137.864 141.445 136.786 143.534 135.214C145.267 133.911 146.725 132.277 147.823 130.407L157.511 113.867C158.177 112.734 158.712 111.529 159.105 110.275C155.942 116.004 144.781 129.975 139.746 132.034Z" fill="#4598DE"/>
<path d="M50.6847 48.0388C50.2904 48.1623 49.8961 48.2946 49.5063 48.4347L49.3952 48.4714L35.6912 31.7464C36.0673 31.5367 36.4445 31.3306 36.8229 31.1282L50.6847 48.0388Z" fill="#004F84"/>
<path d="M131.316 48.0388C131.711 48.1623 132.105 48.2946 132.495 48.4347L132.606 48.4714L146.31 31.7464C145.934 31.5367 145.557 31.3306 145.178 31.1282L131.316 48.0388Z" fill="#004F84"/>
<path d="M118.12 18.097C118.076 17.4301 117.784 16.804 117.301 16.3424C117.301 16.3424 112.669 23.9121 106.084 26.7007C101.902 28.1461 95.8984 27.7303 95.8984 27.7303H86.1049C86.1049 27.7303 80.1009 28.1417 75.9193 26.7007C69.3333 23.9121 64.7019 16.3424 64.7019 16.3424C64.2193 16.804 63.9272 17.4301 63.8834 18.097L63.8401 18.8419C63.8401 18.8419 70.4183 26.8041 74.8486 28.7266C76.4035 29.4026 83.044 29.6005 91.0028 29.5794C98.9616 29.6005 105.6 29.4026 107.157 28.7266C111.587 26.8041 118.165 18.8419 118.165 18.8419L118.12 18.097Z" fill="#004F84"/>
<path d="M25.6733 107.666C26.8712 107.666 27.8423 94.1434 27.8423 77.4626C27.8423 60.7819 26.8712 47.2595 25.6733 47.2595C24.4753 47.2595 23.5042 60.7819 23.5042 77.4626C23.5042 94.1434 24.4753 107.666 25.6733 107.666Z" fill="#BBDDFF"/>
<path d="M62.9328 22.1353C63.3304 22.9592 58.6157 25.8702 52.4029 28.6376C46.19 31.4051 40.8312 32.9806 40.4336 32.1578C40.036 31.3351 44.7506 28.423 50.9635 25.6556C57.1763 22.8881 62.5352 21.3125 62.9328 22.1353Z" fill="#BBDDFF"/>
<path d="M104.303 11.8816L100.98 17.1786C99.719 19.1922 96.7936 20.4898 93.5261 20.4898H86.7513C83.4838 20.4898 80.5595 19.1922 79.2989 17.1786L76.2192 12.2652C75.9371 12.3397 75.6538 12.4175 75.3662 12.4998L78.5648 17.6022C79.9764 19.8593 83.1928 21.3137 86.7513 21.3137H93.5261C97.0901 21.3137 100.301 19.8593 101.717 17.6022L105.16 12.1006C104.873 12.0261 104.586 11.9516 104.303 11.8816Z" fill="#004F84"/>
<path d="M88.2473 18.9443C88.2617 19.1844 87.4999 19.389 86.3282 19.389C85.6466 19.386 84.9657 19.3436 84.289 19.2623L83.707 19.1889C83.4849 19.1511 83.2428 19.0899 83.0052 19.0321C82.5308 18.8888 82.0785 18.6804 81.6613 18.4128C80.9148 17.9236 80.2642 17.3014 79.7421 16.5771C79.3347 16.0229 78.993 15.4233 78.7236 14.7903C78.2794 13.7184 78.2328 12.9846 78.456 12.9001C78.6793 12.8156 79.1224 13.3604 79.7954 14.2054C80.5872 15.282 81.5402 16.2298 82.6209 17.0152C82.7786 17.0986 82.9263 17.2086 83.0829 17.2765C83.2394 17.3443 83.3894 17.4277 83.5449 17.4755L84.0113 17.6156L84.5666 17.7423C85.2919 17.9091 85.9427 18.0681 86.4858 18.2127C87.5787 18.5118 88.2351 18.723 88.2473 18.9443Z" fill="#BBDDFF"/>
<path d="M88.0018 25.8424C88.0129 26.2549 86.7368 26.6685 84.6377 26.8519C83.4033 26.9534 82.163 26.9634 80.9271 26.882C80.2252 26.8419 79.4833 26.7563 78.7114 26.6385L78.1261 26.5273L77.8296 26.4706C77.7296 26.4517 77.6074 26.4116 77.4964 26.3816L76.8078 26.177C76.5923 26.0948 76.3879 26.0014 76.1758 25.9102C74.7371 25.2297 73.4171 24.3219 72.2664 23.2217C71.3708 22.3919 70.5495 21.4852 69.8119 20.512C68.5736 18.8608 68.0849 17.6489 68.4203 17.3987C68.7557 17.1486 69.833 17.8435 71.4135 19.0554C72.2031 19.6558 73.1194 20.3819 74.1445 21.1324C75.1881 21.9307 76.3096 22.6213 77.4919 23.1939L77.924 23.384C78.0606 23.424 78.196 23.4663 78.3304 23.5119C78.4015 23.533 78.4549 23.5597 78.5404 23.5786L78.7947 23.6375L79.3001 23.7487C79.9764 23.8888 80.6384 24.0233 81.2814 24.1323L84.7399 24.726C86.7279 25.0896 87.9874 25.4265 88.0018 25.8424Z" fill="#BBDDFF"/>
<path d="M124.255 44.1017C124.255 44.6776 110.15 45.1446 92.7598 45.1446C75.3695 45.1446 61.2657 44.6776 61.2657 44.1017C61.2657 43.5257 75.3706 43.0587 92.7598 43.0587C110.149 43.0587 124.255 43.5257 124.255 44.1017Z" fill="#BBDDFF"/>
<path d="M68.2604 120.433C68.1627 120.58 67.6218 120.442 66.7233 120.063C66.279 119.873 65.7348 119.618 65.1173 119.319C64.4998 119.02 63.8057 118.652 63.0582 118.229C59.1537 116.026 55.4143 113.542 51.8698 110.797C48.3115 108.095 44.9931 105.09 41.9518 101.816C39.655 99.2755 38.5333 97.4509 38.8243 97.2319C39.1153 97.0128 40.689 98.3849 43.2734 100.554C45.8579 102.723 49.4341 105.688 53.5201 108.823C61.6721 115.104 68.6769 119.795 68.2604 120.433Z" fill="#BBDDFF"/>
<path d="M113.82 120.433C113.916 120.58 114.458 120.442 115.357 120.063C115.801 119.873 116.344 119.618 116.961 119.319C117.579 119.02 118.273 118.652 119.021 118.229C122.925 116.027 126.665 113.543 130.209 110.797C133.768 108.095 137.086 105.09 140.128 101.816C142.424 99.2755 143.546 97.4509 143.255 97.2319C142.964 97.0128 141.39 98.3849 138.806 100.554C136.223 102.723 132.645 105.688 128.56 108.823C120.408 115.104 113.406 119.795 113.82 120.433Z" fill="#BBDDFF"/>
<path d="M22.1004 65.5143V95.5796H21.8861C18.2653 95.6538 14.7632 94.2856 12.1497 91.7757C9.53622 89.2658 8.02518 85.8196 7.94879 82.1948V78.8991C7.94933 75.8079 9.05208 72.8184 11.0585 70.4688C12.7272 68.5018 14.9077 67.0362 17.358 66.2348C18.8167 65.7546 20.3428 65.5114 21.8783 65.5143H22.1004Z" fill="#63D6C9"/>
<path d="M22.1004 65.5143V95.5796H21.8861C18.2653 95.6538 14.7632 94.2856 12.1497 91.7757C9.53622 89.2658 8.02518 85.8196 7.94879 82.1948V78.8991C7.94933 75.8079 9.05208 72.8184 11.0585 70.4688C12.1436 72.2846 12.8767 75.7937 12.8767 79.8264C12.9889 82.8967 12.442 85.9554 11.2729 88.796C12.1992 90.2414 14.5026 92.7421 19.5238 93.179C20.2401 92.7665 20.3811 85.3536 20.3811 80.547C20.3811 75.7403 20.0947 68.6732 19.4505 67.6436C18.8063 66.614 17.8723 66.0536 17.3625 66.2348C18.8212 65.7546 20.3473 65.5114 21.8828 65.5143H22.1004Z" fill="#4598DE"/>
<path d="M17.5969 67.5435C17.6346 67.6447 17.5213 67.8015 17.2947 67.996C17.1608 68.1084 17.0207 68.2131 16.8749 68.3096C16.7161 68.4386 16.5418 68.5809 16.3363 68.7277C15.3125 69.5046 14.3562 70.3668 13.4775 71.305C11.4206 73.5188 10.0735 75.648 9.66363 75.4712C9.45928 75.3867 9.54589 74.7129 9.96237 73.7345C10.5364 72.4588 11.3174 71.287 12.2736 70.2665C13.2474 69.1985 14.4369 68.3499 15.7632 67.777C16.0264 67.6769 16.2641 67.5913 16.4774 67.5302C16.6669 67.4886 16.8585 67.4578 17.0515 67.4379C17.3714 67.4045 17.5591 67.4423 17.5969 67.5435Z" fill="#BBDDFF"/>
<path d="M15.4533 11.8037V67.0254C14.9547 67.2729 14.4724 67.5522 14.0095 67.8615V11.796C14.2583 11.8254 14.5086 11.8403 14.7592 11.8404C14.9911 11.8406 15.2228 11.8284 15.4533 11.8037Z" fill="#002760"/>
<path d="M20.9199 5.91745C20.8663 7.51012 20.2 9.02043 19.0601 10.1327C17.9202 11.245 16.395 11.8732 14.8033 11.886C13.2116 11.8987 11.6765 11.2951 10.5189 10.2013C9.36137 9.10743 8.67092 7.60802 8.59186 6.01642C8.58966 5.98347 8.58966 5.9504 8.59186 5.91745C8.62626 4.31421 9.2951 2.79024 10.4513 1.68044C11.6076 0.570641 13.1566 -0.0341756 14.7581 -0.00109111C16.05 -0.0169932 17.3139 0.375807 18.3697 1.12132C19.4254 1.86683 20.2192 2.927 20.6378 4.15068C20.8259 4.72062 20.9212 5.31718 20.9199 5.91745Z" fill="#4598DE"/>
<path d="M20.6422 4.24963C20.6081 5.85267 19.9399 7.37665 18.7845 8.48694C17.629 9.59724 16.0806 10.2031 14.4793 10.1715C13.1861 10.1879 11.9207 9.79502 10.8636 9.04887C9.8066 8.30272 9.01195 7.24144 8.59302 6.01642C8.59082 5.98347 8.59082 5.9504 8.59302 5.91746C8.62742 4.31422 9.29619 2.79024 10.4524 1.68044C11.6087 0.570641 13.1578 -0.0341756 14.7592 -0.00109111C16.0511 -0.0169932 17.315 0.375807 18.3708 1.12132C19.4266 1.86683 20.2203 2.927 20.6389 4.15068C20.6422 4.18355 20.6434 4.21661 20.6422 4.24963Z" fill="#63D6C9"/>
<path d="M10.0812 4.73108C10.6165 5.30704 11.9049 5.0424 12.9566 4.13956C14.0084 3.23671 14.4283 2.03699 13.8918 1.46104C13.3554 0.885081 12.0692 1.14971 11.0163 2.05255C9.96347 2.9554 9.5459 4.15513 10.0812 4.73108Z" fill="#BBDDFF"/>
<path d="M159.901 65.5143V95.5796H160.115C163.736 95.6538 167.238 94.2856 169.851 91.7757C172.465 89.2658 173.976 85.8196 174.052 82.1948V78.8991C174.052 75.8079 172.949 72.8184 170.943 70.4688C169.274 68.5018 167.093 67.0362 164.643 66.2348C163.184 65.7546 161.658 65.5114 160.123 65.5143H159.901Z" fill="#63D6C9"/>
<path d="M159.901 65.5143V95.5796H160.115C163.736 95.6538 167.238 94.2856 169.851 91.7757C172.465 89.2658 173.976 85.8196 174.052 82.1948V78.8991C174.052 75.8079 172.949 72.8184 170.943 70.4688C169.858 72.2846 169.124 75.7937 169.124 79.8264C169.012 82.8967 169.559 85.9554 170.728 88.796C169.802 90.2414 167.499 92.7421 162.477 93.179C161.761 92.7665 161.62 85.3536 161.62 80.547C161.62 75.7403 161.906 68.6732 162.551 67.6436C163.195 66.614 164.129 66.0536 164.639 66.2348C163.18 65.7546 161.654 65.5114 160.118 65.5143H159.901Z" fill="#4598DE"/>
<path d="M164.404 67.5435C164.366 67.6447 164.48 67.8015 164.706 67.996C164.84 68.1084 164.98 68.2131 165.126 68.3096C165.285 68.4386 165.459 68.5809 165.665 68.7277C166.689 69.5046 167.645 70.3668 168.524 71.305C170.581 73.5188 171.928 75.648 172.337 75.4712C172.542 75.3867 172.455 74.7129 172.039 73.7345C171.465 72.4588 170.684 71.287 169.728 70.2665C168.754 69.1985 167.564 68.3499 166.238 67.777C165.975 67.6769 165.737 67.5913 165.524 67.5302C165.334 67.4886 165.143 67.4578 164.95 67.4379C164.63 67.4045 164.442 67.4423 164.404 67.5435Z" fill="#BBDDFF"/>
<path d="M166.548 11.8037V67.0254C167.046 67.2729 167.529 67.5522 167.992 67.8615V11.796C167.743 11.8254 167.492 11.8403 167.242 11.8404C167.01 11.8406 166.778 11.8284 166.548 11.8037Z" fill="#002760"/>
<path d="M161.081 5.91745C161.135 7.51012 161.801 9.02043 162.941 10.1327C164.081 11.245 165.606 11.8732 167.198 11.886C168.79 11.8987 170.325 11.2951 171.482 10.2013C172.64 9.10743 173.33 7.60802 173.409 6.01642C173.412 5.98347 173.412 5.9504 173.409 5.91745C173.375 4.31421 172.706 2.79024 171.55 1.68044C170.394 0.570641 168.845 -0.0341756 167.243 -0.00109111C165.951 -0.0169932 164.687 0.375807 163.632 1.12132C162.576 1.86683 161.782 2.927 161.363 4.15068C161.175 4.72062 161.08 5.31718 161.081 5.91745Z" fill="#4598DE"/>
<path d="M161.359 4.24963C161.393 5.85267 162.061 7.37665 163.217 8.48694C164.372 9.59724 165.921 10.2031 167.522 10.1715C168.815 10.1879 170.081 9.79502 171.138 9.04887C172.195 8.30272 172.989 7.24144 173.408 6.01642C173.41 5.98347 173.41 5.9504 173.408 5.91746C173.374 4.31422 172.705 2.79024 171.549 1.68044C170.393 0.570641 168.843 -0.0341756 167.242 -0.00109111C165.95 -0.0169932 164.686 0.375807 163.63 1.12132C162.575 1.86683 161.781 2.927 161.362 4.15068C161.359 4.18355 161.358 4.21661 161.359 4.24963Z" fill="#63D6C9"/>
<path d="M162.784 4.38749C163.32 4.96345 164.608 4.69882 165.659 3.79597C166.711 2.89312 167.131 1.69452 166.596 1.11745C166.06 0.540386 164.772 0.807235 163.719 1.71008C162.666 2.61293 162.249 3.81154 162.784 4.38749Z" fill="#BBDDFF"/>
<path d="M144.463 63.1049V83.4634C144.464 85.9722 144.021 88.4612 143.155 90.8152C142.282 93.1904 141.004 95.3961 139.378 97.3342C137.762 99.2621 135.837 100.909 133.683 102.206L105.106 119.484C103.773 120.286 102.248 120.708 100.693 120.707H81.3092C79.7546 120.708 78.2292 120.286 76.8967 119.484L76.5013 119.245L63.9967 111.684L48.3146 102.203C47.6988 101.833 47.1021 101.432 46.5265 101.001C45.0826 99.9384 43.7709 98.7066 42.6193 97.332C39.3494 93.4502 37.5503 88.539 37.5381 83.4612V63.1027C37.545 61.3069 37.9152 59.5311 38.6265 57.8825C39.3377 56.2339 40.3752 54.7466 41.6764 53.5105L43.289 51.9616C44.743 50.5718 46.4748 49.5066 48.3702 48.8361L49.503 48.4325C53.7468 46.9259 58.2167 46.1569 62.7195 46.1587H119.29C123.793 46.1634 128.262 46.9322 132.507 48.4325L133.639 48.8361C134.215 49.0402 134.778 49.2808 135.324 49.5566C136.569 50.1852 137.713 50.9958 138.72 51.9616L140.333 53.5105C140.393 53.5683 140.457 53.6294 140.517 53.6917C141.763 54.9223 142.753 56.3877 143.43 58.0033C144.107 59.6189 144.458 61.3528 144.463 63.1049Z" fill="#205991"/>
<path d="M144.465 63.1049V83.4634C144.465 85.9723 144.02 88.4613 143.154 90.8152C142.282 93.191 141.004 95.3969 139.377 97.3342C137.763 99.2628 135.84 100.909 133.687 102.206L105.106 119.484C103.773 120.285 102.247 120.707 100.693 120.707H81.3114C79.7568 120.709 78.231 120.286 76.8989 119.484L76.499 119.245L63.9989 111.684L48.3168 102.203C47.7004 101.834 47.1036 101.433 46.5287 101.001C46.3221 100.779 46.13 100.556 45.9412 100.334C44.5753 98.7037 43.4529 96.8834 42.6093 94.9303C41.4547 92.2567 40.8591 89.3749 40.859 86.4622V66.1036C40.8651 64.3077 41.2349 62.5317 41.9462 60.883C42.6574 59.2342 43.6953 57.7471 44.9971 56.5114L46.6053 54.9637C48.0631 53.5745 49.7977 52.5094 51.6953 51.8382L52.8282 51.4346C57.072 49.9279 61.542 49.1589 66.0447 49.1608H122.617C123.071 49.1608 123.53 49.1697 123.984 49.1864C125.667 49.2449 127.345 49.4113 129.006 49.6845C130.823 49.9764 132.616 50.4004 134.371 50.9531C134.864 51.101 135.348 51.2622 135.829 51.4346L136.961 51.8382C137.537 52.0439 138.1 52.2845 138.647 52.5587C139.028 52.7521 139.401 52.9623 139.757 53.1891C140.018 53.3503 140.267 53.5149 140.516 53.6917C140.803 53.9797 141.078 54.2765 141.339 54.5812C143.353 56.9643 144.46 59.9834 144.465 63.1049Z" fill="#002760"/>
<path d="M142.068 58.8997V79.2583C142.069 81.767 141.626 84.2559 140.76 86.6101C139.888 88.9855 138.61 91.1912 136.984 93.129C135.368 95.057 133.444 96.7034 131.29 98.0013L102.708 115.279C101.375 116.08 99.8497 116.503 98.2952 116.502H78.9136C77.359 116.503 75.8335 116.08 74.501 115.279L74.1068 115.041L61.6022 107.48L45.9201 97.9991C45.3026 97.6288 44.7062 97.2208 44.1309 96.7971C43.9299 96.5748 43.7366 96.3524 43.5478 96.13C43.2224 95.7386 42.9092 95.3395 42.6137 94.9314C41.4592 92.2579 40.8635 89.376 40.8634 86.4633V66.1047C40.8695 64.3088 41.2394 62.5328 41.9506 60.8841C42.6619 59.2354 43.6998 57.7482 45.0016 56.5125L46.6098 54.9648C48.0662 53.5758 49.7992 52.5103 51.6954 51.8382L52.8282 51.4346C57.072 49.9279 61.542 49.1589 66.0447 49.1608H122.617C123.071 49.1608 123.53 49.1697 123.984 49.1864C125.667 49.2449 127.345 49.4113 129.006 49.6845C130.823 49.9764 132.616 50.4004 134.371 50.9531C134.864 51.101 135.348 51.2622 135.829 51.4346L136.961 51.8382C137.537 52.0439 138.1 52.2845 138.647 52.5587C139.028 52.7521 139.401 52.9623 139.757 53.1891C140.018 53.3503 140.267 53.5149 140.516 53.6917C140.803 53.9797 141.078 54.2765 141.339 54.5812C141.823 55.9692 142.07 57.4293 142.068 58.8997Z" fill="#0C386D"/>
<path d="M64.7686 94.9258C72.2862 94.9258 78.3805 89.0726 78.3805 81.8523C78.3805 74.632 72.2862 68.7788 64.7686 68.7788C57.251 68.7788 51.1567 74.632 51.1567 81.8523C51.1567 89.0726 57.251 94.9258 64.7686 94.9258Z" fill="#312E36"/>
<path d="M64.7686 94.5244C72.0556 94.5244 77.9629 88.8509 77.9629 81.8523C77.9629 74.8537 72.0556 69.1802 64.7686 69.1802C57.4816 69.1802 51.5743 74.8537 51.5743 81.8523C51.5743 88.8509 57.4816 94.5244 64.7686 94.5244Z" fill="#16A7DD"/>
<path d="M55.8946 73.2408C55.3041 73.8011 54.7895 74.4366 54.3642 75.131C53.9423 75.8124 53.6337 76.5578 53.4502 77.3381C53.9011 76.671 54.3497 76.0394 54.8395 75.439C55.3248 74.8384 55.8487 74.2701 56.4078 73.7378C56.9714 73.2045 57.5682 72.7076 58.1947 72.2501C58.8256 71.7853 59.4931 71.3606 60.1861 70.9348C59.378 71.0998 58.6 71.3882 57.8793 71.7898C57.158 72.1857 56.4909 72.6734 55.8946 73.2408Z" fill="#63D5FF"/>
<path d="M76.9455 83.1743C76.6922 84.1168 76.362 85.0368 75.9582 85.9251C75.5542 86.8 75.0642 87.6325 74.4955 88.4102C73.9205 89.1932 73.2707 89.9183 72.5552 90.575C71.818 91.2451 71.0296 91.8567 70.1973 92.4041C71.1798 92.0889 72.1029 91.6116 72.9284 90.992C73.7539 90.3778 74.4831 89.6437 75.0919 88.8138C75.6955 87.994 76.1687 87.0856 76.4946 86.1208C76.8205 85.1737 76.9732 84.1757 76.9455 83.1743Z" fill="#63D5FF"/>
<path d="M64.7686 92.6209C70.9613 92.6209 75.9815 87.7997 75.9815 81.8523C75.9815 75.905 70.9613 71.0838 64.7686 71.0838C58.5758 71.0838 53.5556 75.905 53.5556 81.8523C53.5556 87.7997 58.5758 92.6209 64.7686 92.6209Z" fill="#117DA6"/>
<path d="M75.1463 81.8523C75.0862 84.5504 73.9602 87.1146 72.0149 88.9828C70.0696 90.8511 67.4638 91.8711 64.7686 91.8192C63.0267 91.8226 61.3106 91.398 59.7707 90.5828C58.4383 89.8908 57.2783 88.9078 56.3765 87.7065C55.4747 86.5052 54.8541 85.1162 54.5608 83.6425C54.4491 83.0523 54.3929 82.453 54.3931 81.8523C54.4534 79.1541 55.5797 76.5898 57.5251 74.7213C59.4706 72.8529 62.0765 71.8327 64.7719 71.8843C66.9704 71.8778 69.1167 72.5554 70.9137 73.8234C72.8729 75.1911 74.2758 77.2182 74.8665 79.5352C75.054 80.2932 75.1479 81.0714 75.1463 81.8523Z" fill="#138FBD"/>
<path d="M64.7685 87.812C63.6015 87.7636 62.4745 87.373 61.5275 86.6885C60.5805 86.0041 59.8553 85.0561 59.442 83.9624C59.0288 82.8687 58.9457 81.6776 59.2031 80.537C59.4606 79.3965 60.0472 78.3568 60.8901 77.5473C61.7329 76.7378 62.7948 76.1941 63.9438 75.9838C65.0927 75.7736 66.2781 75.9061 67.3525 76.3648C68.4269 76.8235 69.3429 77.5882 69.9867 78.5638C70.6306 79.5395 70.9738 80.683 70.9737 81.8523C70.9375 83.4655 70.2641 84.9986 69.101 86.1157C67.938 87.2327 66.38 87.8427 64.7685 87.812Z" fill="#002760"/>
<path d="M64.7686 86.9114C63.7783 86.8702 62.8219 86.5386 62.0184 85.9577C61.2148 85.3769 60.5995 84.5724 60.2488 83.6443C59.8982 82.7162 59.8277 81.7055 60.0462 80.7376C60.2646 79.7697 60.7623 78.8875 61.4775 78.2005C62.1927 77.5135 63.0937 77.0521 64.0687 76.8736C65.0436 76.695 66.0495 76.8073 66.9613 77.1964C67.8731 77.5855 68.6505 78.2342 69.197 79.062C69.7435 79.8898 70.035 80.8601 70.0352 81.8523C70.0049 83.2217 69.4335 84.5232 68.4462 85.4715C67.459 86.4198 66.1365 86.9376 64.7686 86.9114Z" fill="#16A7DD"/>
<path d="M64.7686 85.6082C64.0331 85.5777 63.3229 85.3315 62.7261 84.9002C62.1293 84.4689 61.6724 83.8714 61.4119 83.1822C61.1515 82.493 61.0991 81.7423 61.2614 81.0236C61.4236 80.3048 61.7933 79.6496 62.3245 79.1395C62.8556 78.6293 63.5248 78.2867 64.2488 78.1542C64.9729 78.0217 65.7199 78.1051 66.397 78.3942C67.074 78.6832 67.6513 79.1651 68.0571 79.78C68.4628 80.3948 68.6791 81.1154 68.6791 81.8523C68.6564 82.869 68.232 83.8352 67.4991 84.5392C66.7661 85.2432 65.7842 85.6276 64.7686 85.6082Z" fill="#138FBD"/>
<path d="M64.7686 83.2044C64.5039 83.1935 64.2482 83.1049 64.0333 82.9497C63.8184 82.7945 63.6539 82.5795 63.5601 82.3315C63.4663 82.0834 63.4474 81.8132 63.5057 81.5544C63.5641 81.2957 63.6971 81.0598 63.8882 80.8761C64.0794 80.6924 64.3203 80.569 64.5809 80.5213C64.8415 80.4736 65.1105 80.5036 65.3542 80.6076C65.5979 80.7116 65.8057 80.8851 65.9518 81.1064C66.0979 81.3277 66.1758 81.5871 66.1758 81.8523C66.1676 82.2182 66.0149 82.566 65.7512 82.8194C65.4874 83.0728 65.1341 83.2113 64.7686 83.2044Z" fill="#002760"/>
<path d="M61.8898 87.5796C61.3145 88.3891 60.7115 89.2408 60.1129 90.0836L60.064 90.0569C58.8097 89.4098 57.7178 88.4871 56.87 87.3578C56.0222 86.2285 55.4404 84.9219 55.1683 83.5357L58.2459 82.9954C58.4469 83.9939 58.8821 84.9303 59.5157 85.7274C60.1493 86.5244 60.963 87.1593 61.8898 87.5796Z" fill="#63D5FF"/>
<path d="M74.2678 79.7342L71.288 80.7282C70.9759 79.1058 70.0434 77.6696 68.6891 76.7254L70.5405 74.3049C72.3804 75.5904 73.698 77.4946 74.2534 79.6708C74.2589 79.6942 74.2634 79.7142 74.2678 79.7342Z" fill="#63D5FF"/>
<path d="M62.0664 79.5952C61.6222 80.07 61.5367 80.686 61.8687 80.9717C62.2008 81.2575 62.8294 81.1051 63.2715 80.6315C63.7135 80.1578 63.8012 79.5407 63.4691 79.255C63.1371 78.9692 62.5084 79.1215 62.0664 79.5952Z" fill="#63D5FF"/>
<path d="M117.232 94.9258C124.75 94.9258 130.844 89.0726 130.844 81.8523C130.844 74.632 124.75 68.7788 117.232 68.7788C109.715 68.7788 103.621 74.632 103.621 81.8523C103.621 89.0726 109.715 94.9258 117.232 94.9258Z" fill="#312E36"/>
<path d="M117.233 94.5244C124.52 94.5244 130.427 88.8509 130.427 81.8523C130.427 74.8537 124.52 69.1802 117.233 69.1802C109.946 69.1802 104.038 74.8537 104.038 81.8523C104.038 88.8509 109.946 94.5244 117.233 94.5244Z" fill="#16A7DD"/>
<path d="M126.106 73.2408C126.697 73.8011 127.212 74.4366 127.637 75.131C128.059 75.8124 128.367 76.5578 128.551 77.3381C128.1 76.671 127.651 76.0394 127.162 75.439C126.676 74.8384 126.152 74.2701 125.593 73.7378C125.03 73.2045 124.433 72.7076 123.806 72.2501C123.176 71.7853 122.508 71.3606 121.815 70.9348C122.623 71.0998 123.401 71.3882 124.122 71.7898C124.843 72.1857 125.51 72.6734 126.106 73.2408Z" fill="#63D5FF"/>
<path d="M105.056 83.1743C105.309 84.1168 105.639 85.0368 106.043 85.9251C106.447 86.8 106.937 87.6325 107.506 88.4102C108.081 89.1932 108.73 89.9183 109.446 90.575C110.183 91.2451 110.972 91.8567 111.804 92.4041C110.821 92.0889 109.898 91.6116 109.073 90.992C108.247 90.3778 107.518 89.6437 106.909 88.8138C106.306 87.994 105.832 87.0856 105.506 86.1208C105.181 85.1737 105.028 84.1757 105.056 83.1743Z" fill="#63D5FF"/>
<path d="M117.233 92.6209C123.425 92.6209 128.445 87.7996 128.445 81.8523C128.445 75.905 123.425 71.0837 117.233 71.0837C111.04 71.0837 106.02 75.905 106.02 81.8523C106.02 87.7996 111.04 92.6209 117.233 92.6209Z" fill="#117DA6"/>
<path d="M106.855 81.8523C106.915 84.5504 108.041 87.1146 109.986 88.9828C111.931 90.8511 114.537 91.8711 117.233 91.8192C118.974 91.8226 120.691 91.398 122.23 90.5828C123.563 89.8908 124.723 88.9078 125.625 87.7065C126.526 86.5052 127.147 85.1162 127.44 83.6425C127.552 83.0523 127.608 82.453 127.608 81.8523C127.548 79.1541 126.421 76.5898 124.476 74.7213C122.531 72.8529 119.925 71.8327 117.229 71.8843C115.031 71.8778 112.884 72.5554 111.087 73.8234C109.128 75.1911 107.725 77.2182 107.135 79.5352C106.947 80.2932 106.853 81.0714 106.855 81.8523Z" fill="#138FBD"/>
<path d="M117.233 87.812C118.4 87.7636 119.527 87.3729 120.474 86.6885C121.421 86.0041 122.146 85.0561 122.559 83.9624C122.972 82.8687 123.055 81.6775 122.798 80.537C122.54 79.3964 121.954 78.3568 121.111 77.5472C120.268 76.7377 119.206 76.1941 118.057 75.9838C116.908 75.7736 115.723 75.906 114.649 76.3647C113.574 76.8234 112.658 77.5881 112.014 78.5638C111.371 79.5394 111.027 80.683 111.027 81.8523C111.064 83.4655 111.737 84.9985 112.9 86.1156C114.063 87.2327 115.621 87.8427 117.233 87.812Z" fill="#002760"/>
<path d="M117.233 86.9114C118.223 86.8702 119.179 86.5386 119.983 85.9577C120.786 85.3769 121.402 84.5724 121.752 83.6443C122.103 82.7162 122.173 81.7055 121.955 80.7376C121.736 79.7697 121.239 78.8875 120.524 78.2005C119.808 77.5135 118.907 77.0521 117.932 76.8736C116.957 76.695 115.952 76.8073 115.04 77.1964C114.128 77.5855 113.351 78.2342 112.804 79.062C112.258 79.8898 111.966 80.8601 111.966 81.8523C111.996 83.2217 112.568 84.5232 113.555 85.4715C114.542 86.4198 115.865 86.9376 117.233 86.9114Z" fill="#16A7DD"/>
<path d="M117.233 85.6082C117.968 85.5777 118.678 85.3315 119.275 84.9002C119.872 84.4689 120.329 83.8714 120.589 83.1822C120.85 82.493 120.902 81.7423 120.74 81.0236C120.577 80.3048 120.208 79.6496 119.677 79.1395C119.145 78.6293 118.476 78.2867 117.752 78.1542C117.028 78.0217 116.281 78.1051 115.604 78.3942C114.927 78.6832 114.35 79.1651 113.944 79.78C113.538 80.3948 113.322 81.1154 113.322 81.8523C113.345 82.869 113.769 83.8352 114.502 84.5392C115.235 85.2432 116.217 85.6276 117.233 85.6082Z" fill="#138FBD"/>
<path d="M117.233 83.2044C117.497 83.1935 117.753 83.1049 117.968 82.9497C118.183 82.7945 118.347 82.5795 118.441 82.3315C118.535 82.0834 118.554 81.8132 118.495 81.5544C118.437 81.2957 118.304 81.0598 118.113 80.8761C117.922 80.6924 117.681 80.569 117.42 80.5213C117.16 80.4736 116.891 80.5036 116.647 80.6076C116.403 80.7116 116.195 80.8851 116.049 81.1064C115.903 81.3277 115.825 81.5871 115.825 81.8523C115.833 82.2182 115.986 82.566 116.25 82.8194C116.514 83.0728 116.867 83.2113 117.233 83.2044Z" fill="#002760"/>
<path d="M120.111 87.5796C120.687 88.3891 121.29 89.2408 121.888 90.0836L121.937 90.0569C123.191 89.4098 124.283 88.4871 125.131 87.3578C125.979 86.2285 126.561 84.9219 126.833 83.5357L123.755 82.9954C123.554 83.9939 123.119 84.9303 122.485 85.7274C121.852 86.5244 121.038 87.1593 120.111 87.5796Z" fill="#63D5FF"/>
<path d="M107.733 79.7342L110.713 80.7282C111.025 79.1058 111.958 77.6696 113.312 76.7254L111.461 74.3049C109.621 75.5904 108.303 77.4946 107.748 79.6708C107.742 79.6942 107.738 79.7142 107.733 79.7342Z" fill="#63D5FF"/>
<path d="M114.368 79.7242C113.924 80.199 113.838 80.8149 114.172 81.1007C114.505 81.3864 115.132 81.2341 115.573 80.7593C116.014 80.2846 116.104 79.6697 115.771 79.3839C115.438 79.0982 114.81 79.2505 114.368 79.7242Z" fill="#63D5FF"/>
<path d="M111.443 143.293V148.257C108.587 153.038 103.475 155.472 99.0793 156.707C96.4456 157.448 93.7341 157.875 91.0005 157.98C91.0005 157.98 76.2747 157.823 70.5583 148.257V143.293C70.5583 143.293 80.8505 145.011 82.2777 145.184C82.7586 145.24 84.1347 145.261 85.7562 145.261C87.501 145.261 89.5212 145.237 91.0005 145.216C93.8482 145.257 98.7239 145.303 99.7234 145.184C101.151 145.013 111.443 143.293 111.443 143.293Z" fill="#0C386D"/>
<path d="M111.443 143.294V148.257C108.587 153.038 103.475 155.472 99.0793 156.708C96.4456 157.448 93.7341 157.875 91.0005 157.981C91.0005 157.981 76.2747 157.824 70.5583 148.257V146.996C79.2767 154.962 100.791 152.697 103.364 151.11C105.937 149.524 105.508 147.132 104.724 146.651C103.939 146.169 95.1432 147.886 86.498 146.992C81.1104 146.381 75.7802 145.34 70.5583 143.879V143.289C70.5583 143.289 80.8505 145.007 82.2777 145.18C82.7586 145.236 84.1347 145.257 85.7562 145.257C87.501 145.257 89.5212 145.233 91.0005 145.212C93.8482 145.253 98.7239 145.299 99.7234 145.18C101.151 145.014 111.443 143.294 111.443 143.294Z" fill="#002760"/>
<path d="M125.714 160.629C123.202 166.185 120.291 171.552 117.005 176.687C116.731 177.12 116.352 177.475 115.903 177.721C112.522 179.563 108.963 181.057 105.281 182.182C104.912 182.294 104.529 182.351 104.144 182.351H77.8573C77.472 182.351 77.0889 182.294 76.7201 182.182C73.0382 181.057 69.4794 179.563 66.098 177.721C65.6492 177.475 65.27 177.12 64.9962 176.687C61.7097 171.552 58.7989 166.185 56.2867 160.629C55.8197 159.604 55.7688 158.438 56.1445 157.376C56.4549 156.484 57.0256 155.706 57.7827 155.143C61.6483 152.184 65.9596 149.86 70.5549 148.257C73.4104 153.038 78.5226 155.472 82.9185 156.708C88.1711 158.403 93.8233 158.403 99.0759 156.708C103.472 155.471 108.584 153.038 111.439 148.257C116.035 149.86 120.346 152.184 124.212 155.143C125.052 155.747 125.661 156.621 125.934 157.62C126.208 158.618 126.13 159.681 125.714 160.629Z" fill="#63D6C9"/>
<path d="M125.714 160.629C123.202 166.185 120.291 171.552 117.005 176.687C116.731 177.119 116.352 177.475 115.903 177.721C112.522 179.563 108.963 181.057 105.281 182.182C104.912 182.294 104.529 182.35 104.144 182.351H77.8573C77.472 182.35 77.0889 182.294 76.7201 182.182C73.0382 181.057 69.4794 179.563 66.098 177.721C65.6492 177.475 65.27 177.119 64.9962 176.687C61.7097 171.552 58.7989 166.185 56.2867 160.629C55.8197 159.604 55.7688 158.438 56.1445 157.376C58.5879 161.745 65.8148 174.509 67.2342 175.604C68.9501 176.926 75.2751 178.05 78.8136 178.467C83.7025 178.829 88.6115 178.829 93.5005 178.467C96.3893 178.254 99.1672 177.265 101.542 175.604C101.542 175.604 105.41 164.187 99.0792 156.709C103.475 155.472 108.587 153.039 111.443 148.258C116.038 149.861 120.349 152.185 124.215 155.144C125.055 155.748 125.662 156.622 125.935 157.621C126.208 158.619 126.13 159.681 125.714 160.629Z" fill="#4598DE"/>
<path d="M68.4137 152.009C68.4137 152.009 61.6244 155.921 60.6948 157.431C59.7652 158.941 63.6935 167.316 64.9152 167.591C66.1369 167.865 70.3472 156.265 70.5616 154.068C70.7759 151.871 70.0574 151.528 68.4137 152.009Z" fill="#BBDDFF"/>
<path d="M98.1619 167.618C97.9885 166.634 97.4693 165.743 96.6978 165.108C95.9263 164.473 94.9534 164.135 93.9548 164.155H87.1455C86.1469 164.135 85.174 164.473 84.4026 165.108C83.6311 165.743 83.1118 166.634 82.9385 167.618L80.5606 182.351H81.4313L83.7903 167.742C83.9283 166.956 84.3426 166.245 84.9584 165.739C85.5742 165.232 86.3508 164.962 87.1478 164.979H93.957C94.754 164.962 95.5307 165.232 96.1466 165.739C96.7625 166.245 97.1771 166.956 97.3155 167.742L99.6735 182.351H100.544L98.1619 167.618Z" fill="#004F84"/>
</svg>
