<svg width="158" height="193" viewBox="0 0 158 193" fill="none" xmlns="http://www.w3.org/2000/svg">
<path d="M108.101 43.1044C108.101 52.8494 90.8111 52.3179 73.9489 52.3179C57.0867 52.3179 37.2 52.5978 37.2 42.8528C37.2 33.1077 51.2505 17.4726 73.4546 17.4726C97.2111 17.4726 108.101 33.3593 108.101 43.1044Z" fill="#0264CE"/>
<path d="M103.366 39.8426C101.41 34.548 97.9001 29.9652 93.2942 26.6929C82.9184 19.2444 65.5825 18.6884 53.2139 26.3767C45.9479 30.8944 42.1476 36.9891 41.469 39.8612C40.3902 44.4425 42.6929 47.4037 47.8347 47.9774C58.1233 49.1237 85.3456 49.1912 94.9153 48.2299C103.044 47.4125 104.18 42.5767 103.366 39.8426Z" fill="#002760"/>
<path d="M66.8956 40.0913C61.6528 38.7384 54.9997 38.5045 53.7543 35.0567C52.7059 32.165 54.5692 27.8422 56.7297 24.4747C62.3729 21.8799 68.5492 20.6491 74.758 20.8821C74.0067 26.04 83.5842 28.2239 93.4315 31.4299C101.545 34.0729 100.318 42.3829 98.5881 47.4556C97.4006 47.8581 96.1692 48.118 94.9202 48.2299C90.5845 48.6655 82.6271 48.8897 74.2627 48.8985C73.7398 48.0632 73.4732 47.0934 73.4958 46.1086C73.5324 45.1972 73.3094 44.2941 72.8527 43.5041C72.396 42.714 71.7243 42.0693 70.9155 41.6448L66.8956 40.0913Z" fill="#0268CE"/>
<path d="M76.279 131.655C68.146 131.655 61.5538 125.772 61.5538 118.517C61.5538 111.261 68.146 105.379 76.279 105.379C84.412 105.379 91.0033 111.261 91.0033 118.517C91.0033 125.772 84.411 131.655 76.279 131.655Z" fill="#A2FFA8"/>
<path d="M152.412 169.895C153.258 170.332 153.991 170.96 154.553 171.729C162.669 142.565 157.231 109.332 129.883 89.581C129.538 90.725 128.923 91.7695 128.089 92.6264C127.382 93.3619 126.58 93.9993 125.704 94.5216C150.25 112.799 155.216 142.473 148.075 169.212C149.557 169 151.068 169.238 152.412 169.895Z" fill="#002760"/>
<path d="M24.5323 96.7428C23.4496 96.1909 22.4511 95.4882 21.5666 94.6557C11.4654 105.576 5.69982 119.461 2.63905 133.225C-0.151053 145.786 -1.03855 159.063 1.48577 171.758C2.09943 170.708 3.02475 169.876 4.13362 169.375C5.35549 168.859 6.70102 168.707 8.00741 168.938C6.05483 157.681 6.89532 145.954 9.35492 134.877C12.2745 121.733 17.5987 108.305 27.4881 98.0066C26.4725 97.6598 25.4844 97.2374 24.5323 96.7428Z" fill="#002760"/>
<path d="M24.446 79.3583C24.3156 79.4562 24.1831 79.5541 24.0537 79.6657L24.0674 79.6716C24.194 79.5658 24.3214 79.4572 24.446 79.3583Z" fill="#C67D4B"/>
<path d="M45.028 79.8184C43.2603 78.9847 41.4272 78.2971 39.5469 77.7627L28.406 98.2963C30.1934 98.8375 32.0244 99.2234 33.8784 99.4495C34.4491 97.9596 35.0434 96.4961 35.6662 95.0727C37.9872 89.5402 41.1446 84.3956 45.028 79.8184Z" fill="#0045A8"/>
<path d="M39.5498 77.7539C39.4723 77.7313 39.387 77.7147 39.3085 77.6932C33.8166 76.1817 28.204 76.2072 24.0684 79.6715L26.4495 80.6651C28.406 78.6828 30.8059 77.7783 32.2936 78.6202C34.0922 79.6392 33.8725 82.8227 31.8032 85.731C29.734 88.6393 26.5986 90.1713 24.8 89.1572C23.0014 88.143 23.2211 84.9547 25.2903 82.0464C25.4796 81.7801 25.6826 81.5305 25.8856 81.2877L23.5575 80.3166C23.511 80.2966 23.4685 80.2684 23.432 80.2334C20.8076 82.7874 18.705 87.0858 19.2973 90.5443C20.0005 94.6107 24.0616 96.9767 28.4041 98.3071L39.5449 77.7656L39.5498 77.7539Z" fill="#009DE2"/>
<path d="M103.078 78.7298C103.078 78.7298 103.184 78.6711 103.364 78.5762C96.3769 72.4431 87.6373 68.6538 78.3777 67.7426C79.6601 67.9589 80.9308 68.2395 82.1848 68.5834H63.7457C63.7457 68.5834 64.9598 68.2036 66.7918 67.8444C58.2973 68.9913 50.5374 73.2612 45.0309 79.8184C39.9391 85.6321 36.5223 92.5628 33.8813 99.4534C28.8865 112.875 26.0275 126.994 25.408 141.299C25.7768 149.606 27.3028 156.528 30.1154 160.675C38.1297 172.49 48.7978 174.87 78.2091 174.87C107.62 174.87 122.885 168.435 127.388 154.543C128.041 152.371 128.433 150.13 128.556 147.865C127.612 131.335 121.704 109.178 116.764 97.5494C115.8 97.707 115.188 97.7628 115.188 97.7628C115.188 97.7628 112.238 90.3456 103.078 78.7298Z" fill="#0080FF"/>
<path d="M78.2071 174.872C48.7958 174.872 38.1277 172.49 30.1134 160.677C27.2998 156.53 25.7738 149.608 25.4061 141.301C25.4061 141.273 25.4061 141.248 25.4012 141.222C25.154 147.549 25.41 154.933 26.9418 161.113C28.2491 166.386 30.4655 170.721 35.1798 174.29C42.8292 180.089 54.528 180.261 74.7099 180.261H80.0253C89.6891 180.261 102.5 179.944 111.584 177.179C120.077 174.594 124.994 170.105 127.387 162.725C128.801 158.361 128.814 152.412 128.555 147.877C128.191 152.961 126.993 157.466 123.516 161.818C116.409 170.696 101.901 174.872 78.2071 174.872Z" fill="#0045A8"/>
<path d="M75.6554 71.7913L82.183 68.5834C80.9289 68.2395 79.6582 67.9588 78.3758 67.7425C77.8669 67.6544 77.3255 67.5712 76.7587 67.4978V69.4752C76.7537 69.9179 76.6524 70.3543 76.4619 70.7542C76.2714 71.1541 75.9963 71.5079 75.6554 71.7913Z" fill="#0045A8"/>
<path d="M70.8146 71.9235C70.4242 71.6437 70.1046 71.2767 69.8814 70.8518C69.6582 70.4269 69.5374 69.9559 69.5288 69.4762V67.4205C68.5256 67.536 67.5988 67.6897 66.7888 67.8492C64.9568 68.2085 63.7427 68.5883 63.7427 68.5883L70.8146 71.9235Z" fill="#0045A8"/>
<path d="M69.5319 54.3373V69.4752C69.6314 70.3629 70.0552 71.1829 70.7223 71.7784C71.3893 72.374 72.2528 72.7032 73.1478 72.7032C74.0427 72.7032 74.9062 72.374 75.5733 71.7784C76.2403 71.1829 76.6641 70.3629 76.7636 69.4752V54.353C76.644 54.353 71.8277 54.3598 69.5319 54.3373Z" fill="#002760"/>
<path d="M4.13955 169.376C3.03068 169.877 2.1053 170.709 1.49165 171.759C-0.341287 174.799 -0.0421674 179.747 2.61259 184.484C6.18431 190.858 12.6599 194.428 17.0769 192.458C21.494 190.487 22.1766 183.723 18.6068 177.349C15.9864 172.672 11.8027 169.518 8.01526 168.939C6.70823 168.708 5.36201 168.859 4.13955 169.376Z" fill="#009DE2"/>
<path d="M152.412 169.895C151.068 169.237 149.557 168.998 148.075 169.21C144.428 169.64 140.436 172.244 137.82 176.287C134.093 182.048 134.584 188.523 138.912 190.758C143.239 192.993 149.776 190.127 153.504 184.366C156.48 179.765 156.76 174.717 154.553 171.729C153.991 170.96 153.258 170.332 152.412 169.895Z" fill="#009DE2"/>
<path d="M34.049 149.234C34.5884 154.569 35.7849 158.968 37.6933 161.782C44.1032 171.23 53.7631 171.233 77.1431 171.214C100.811 171.214 115.021 169.642 119.215 156.702C119.911 154.273 120.265 151.76 120.265 149.234H34.049Z" fill="#0272CE"/>
<path d="M82.2153 148.457H120.278C120.413 133.497 114.1 109.825 109.378 99.8283C105.537 91.6984 96.1275 77.8655 76.2497 76.5674C75.3343 76.508 74.4334 76.478 73.5468 76.4774C59.4502 76.4774 49.2617 84.0688 42.4517 99.612C35.8535 114.671 32.7565 134.549 33.9774 148.46H82.2153V148.457ZM73.5066 83.4169C74.0557 83.4786 74.5751 83.6977 75.0022 84.0476C75.4293 84.3975 75.7458 84.8634 75.9135 85.3889C76.0812 85.9143 76.0931 86.4771 75.9475 87.0091C75.8019 87.5411 75.5052 88.0198 75.0932 88.3872C74.6811 88.7547 74.1714 88.9952 73.6254 89.0799C73.0794 89.1645 72.5205 89.0897 72.0162 88.8643C71.5119 88.639 71.0837 88.2728 70.7833 87.8099C70.4829 87.347 70.3231 86.8072 70.3232 86.2557C70.3713 85.459 70.7329 84.7136 71.3292 84.1818C71.9255 83.6501 72.7081 83.3751 73.5066 83.4169ZM73.5066 91.16C74.056 91.2217 74.5757 91.4407 75.0031 91.7906C75.4305 92.1406 75.7473 92.6066 75.9152 93.1323C76.0832 93.658 76.0951 94.221 75.9495 94.7534C75.8039 95.2857 75.5071 95.7646 75.0948 96.1322C74.6826 96.4998 74.1725 96.7405 73.6262 96.8252C73.08 96.9098 72.5208 96.8349 72.0163 96.6093C71.5118 96.3837 71.0835 96.0172 70.7831 95.554C70.4826 95.0908 70.3229 94.5507 70.3232 93.9989C70.3706 93.2016 70.7318 92.4553 71.3281 91.9228C71.9245 91.3903 72.7076 91.1147 73.5066 91.1561V91.16ZM44.9397 132.932C40.0558 134.121 40.6462 98.589 58.6803 85.8269C65.6718 80.8795 60.1269 95.7208 54.1005 109.702C48.074 123.682 50.2434 131.638 44.9397 132.928V132.932ZM76.279 133.577C66.9624 133.577 59.4041 126.836 59.4041 118.521C59.4041 110.205 66.9555 103.464 76.279 103.464C85.6026 103.464 93.154 110.206 93.154 118.521C93.154 126.835 85.5987 133.573 76.279 133.573V133.577Z" fill="#0272CE"/>
<path d="M76.3968 153.296C77.2576 153.2 78.072 152.857 78.7418 152.308C79.4115 151.76 79.9079 151.03 80.1712 150.206C80.4344 149.382 80.4531 148.5 80.2252 147.666C79.9972 146.832 79.5322 146.081 78.8864 145.505C78.2406 144.929 77.4415 144.552 76.5855 144.419C75.7296 144.286 74.8535 144.403 74.0628 144.756C73.2721 145.109 72.6007 145.683 72.1296 146.409C71.6586 147.134 71.4079 147.981 71.408 148.845C71.4834 150.094 72.0499 151.262 72.9843 152.096C73.9187 152.93 75.1452 153.361 76.3968 153.296Z" fill="#154B8C"/>
<path d="M76.335 75.5337C60.2377 74.4765 48.8174 82.2363 41.37 99.2341C31.9699 120.688 29.6565 151.936 36.6999 162.318C43.2304 171.945 53.3267 172.252 74.9355 172.252H79.5674C102.796 172.252 116.173 169.82 120.332 156.992C124.47 144.226 116.393 112.016 110.449 99.4318C106.504 91.0768 96.8297 76.8719 76.335 75.5337ZM119.216 156.702C115.698 167.552 105.693 171.213 79.5674 171.213H77.1431C53.7631 171.232 44.1032 171.229 37.6933 161.781C35.7849 158.967 34.5884 154.568 34.049 149.233H70.5831C70.7461 150.481 71.3336 151.636 72.2475 152.504C73.1613 153.372 74.3461 153.9 75.6034 154V170.785C75.6034 171.285 76.4742 171.286 76.4742 170.785V154.067C77.8608 154.113 79.2152 153.645 80.2758 152.752C81.3364 151.859 82.0277 150.606 82.2162 149.234H120.268C120.267 151.76 119.913 154.274 119.216 156.702ZM71.4109 148.845C71.2972 147.837 71.4932 146.817 71.9727 145.922C72.4522 145.027 73.1927 144.299 74.0962 143.833C74.9997 143.367 76.0236 143.186 77.0323 143.314C78.041 143.442 78.9871 143.873 79.7453 144.549C80.5034 145.226 81.0378 146.116 81.2779 147.102C81.518 148.089 81.4523 149.124 81.0897 150.073C80.727 151.021 80.0844 151.837 79.2469 152.412C78.4094 152.988 77.4166 153.296 76.3997 153.296C75.1482 153.361 73.9216 152.93 72.9873 152.096C72.0529 151.262 71.4863 150.094 71.4109 148.845ZM82.2153 148.454C82.026 147.078 81.3314 145.821 80.2662 144.928C79.2009 144.034 77.8411 143.568 76.4507 143.619C76.4627 143.587 76.4703 143.555 76.4732 143.521V134.003C76.4732 133.503 75.6024 133.502 75.6024 134.003V143.522C75.6017 143.579 75.6145 143.635 75.6397 143.685C74.3757 143.779 73.1826 144.305 72.2615 145.174C71.3405 146.043 70.7477 147.202 70.5831 148.457H33.9774C32.7565 134.549 35.8535 114.671 42.4517 99.609C49.2617 84.0659 59.4502 76.4744 73.5468 76.4744C74.4314 76.4744 75.3324 76.5045 76.2497 76.5645C96.1275 77.8625 105.537 91.6955 109.378 99.8254C114.099 109.822 120.413 133.494 120.278 148.454H82.2153Z" fill="#0045A8"/>
<path d="M41.8623 49.1834C42.9352 49.3988 44.3425 49.5926 45.99 49.7649C44.3181 49.4031 42.7413 48.694 41.3621 47.6837C39.2046 46.0822 38.5544 42.1548 39.1968 39.4344C40.4423 34.1542 51.332 18.7794 73.5302 18.7794C92.7813 18.7794 102.755 30.7388 105.593 39.2387C105.899 40.3502 105.959 41.5151 105.767 42.6519C105.576 43.7888 105.138 44.8702 104.485 45.8208C101.908 49.6386 97.3641 50.083 94.6623 50.3238C97.3181 50.2246 99.9632 49.9327 102.577 49.4506C104.572 49.0576 106.424 48.134 107.937 46.7773C109.451 45.4206 110.569 43.6812 111.173 41.7427C111.205 41.9444 111.225 42.1578 111.238 42.378C111.222 42.0086 111.173 41.6413 111.091 41.2807C110.18 37.553 103.28 14.252 74.1657 13.9837C58.9765 13.8438 47.8613 19.2699 40.9718 28.0497C41.827 28.7203 41.9682 30.2111 41.2386 31.6364C40.4089 33.2575 38.7692 34.1816 37.5756 33.6921C37.5225 33.6648 37.4707 33.6348 37.4207 33.6021C36.2298 35.9046 35.3339 38.3476 34.7542 40.8734C34.0304 47.4595 41.8623 49.1834 41.8623 49.1834Z" fill="#4AA2DB"/>
<path d="M76.7607 54.6878C77.0794 54.6878 77.4001 54.6878 77.7168 54.6878C77.2843 54.6878 76.842 54.6878 76.4066 54.6878C76.5243 54.6868 76.644 54.6887 76.7607 54.6878Z" fill="#FFAF3B"/>
<path d="M102.215 53.3232C109.138 51.6591 111.789 45.672 111.173 41.7427C110.569 43.6811 109.451 45.4206 107.937 46.7773C106.424 48.134 104.572 49.0576 102.577 49.4506C96.4962 50.9102 65.0657 51.6874 48.1849 50.0546C38.0287 49.0757 34.7493 44.5541 34.7493 40.8705C33.1801 45.7748 35.6868 52.636 45.9401 53.6717C52.7697 54.3569 62.612 54.6075 69.524 54.6731C80.9011 54.7808 97.374 54.4832 102.215 53.3232Z" fill="#0045A8"/>
<path d="M61.694 29.8979C61.2403 29.8741 60.7955 30.0303 60.4567 30.3325C60.118 30.6347 59.9127 31.0584 59.8856 31.5111V34.0925C59.9353 34.5364 60.1472 34.9464 60.4808 35.2441C60.8143 35.5419 61.2461 35.7065 61.6935 35.7065C62.141 35.7065 62.5728 35.5419 62.9063 35.2441C63.2398 34.9464 63.4517 34.5364 63.5014 34.0925V31.5111C63.4746 31.0585 63.2695 30.6348 62.9309 30.3326C62.5923 30.0304 62.1476 29.8741 61.694 29.8979Z" fill="#69FFFF"/>
<path d="M83.3902 29.8978C82.9366 29.874 82.4919 30.0303 82.1533 30.3326C81.8147 30.6348 81.6096 31.0585 81.5828 31.5111V34.0925C81.6325 34.5364 81.8444 34.9464 82.1779 35.2441C82.5115 35.5419 82.9432 35.7065 83.3907 35.7065C83.8382 35.7065 84.2699 35.5419 84.6035 35.2441C84.937 34.9464 85.1489 34.5364 85.1986 34.0925V31.5111C85.1715 31.0584 84.9662 30.6347 84.6275 30.3325C84.2887 30.0303 83.8439 29.874 83.3902 29.8978Z" fill="#69FFFF"/>
<path d="M103.366 78.5761C103.186 78.674 103.08 78.7298 103.08 78.7298C112.241 90.3455 115.189 97.7637 115.189 97.7637C115.189 97.7637 115.801 97.7079 116.765 97.5503C118.18 97.3203 119.577 96.9963 120.949 96.5802C118.032 89.3293 114.293 82.4356 109.804 76.0339C107.579 76.6666 105.423 77.5182 103.366 78.5761Z" fill="#0045A8"/>
<path d="M128.635 82.1775V82.1716C127.764 80.5143 127.599 80.2001 128.635 82.1716V82.1775Z" fill="#C67D4B"/>
<path d="M128.198 92.5119C130.975 89.4645 130.511 85.7505 128.635 82.1775V82.1716C127.319 79.5238 125.134 77.4057 122.444 76.1699C118.571 74.4676 113.969 74.8553 109.822 76.029H109.806C114.295 82.4311 118.034 89.3251 120.951 96.5763C123.677 95.8675 126.173 94.4674 128.198 92.5119ZM124.863 87.8621C123.065 88.8811 119.929 87.3491 117.86 84.4359C117.356 83.7333 116.944 82.9695 116.633 82.1628C116.363 81.9165 116.147 81.6174 115.997 81.2842C115.847 80.951 115.768 80.5907 115.763 80.2256C115.768 79.623 115.981 79.0404 116.365 78.5761C116.537 78.0511 116.894 77.6063 117.37 77.3251C118.684 76.5801 120.712 77.2027 122.516 78.7259C123.352 78.43 124.215 78.2192 125.094 78.0964C125.643 78.026 125.878 78.7748 125.325 78.8463C124.596 78.9482 123.877 79.1119 123.175 79.3357C123.613 79.7739 124.013 80.2474 124.373 80.7512C126.444 83.6606 126.664 86.843 124.865 87.8621H124.863Z" fill="#009DE2"/>
<path d="M20.2231 186.105C20.7713 186.172 21.0076 185.419 20.4545 185.355C12.9806 184.431 8.9685 177.615 12.498 171.606C12.7579 171.163 12.0077 170.77 11.7459 171.214C7.98684 177.618 12.1411 185.108 20.2231 186.105Z" fill="#0045A8"/>
<path d="M29.2701 84.058C29.6775 84.0123 30.063 83.8499 30.38 83.5903C30.697 83.3307 30.9319 82.9851 31.0565 82.5952C31.1811 82.2052 31.1899 81.7876 31.082 81.3928C30.9741 80.998 30.7539 80.6428 30.4482 80.37C30.1424 80.0973 29.7642 79.9187 29.3591 79.8559C28.9539 79.793 28.5392 79.8485 28.1649 80.0157C27.7907 80.1829 27.4729 80.4546 27.2499 80.7981C27.027 81.1416 26.9084 81.5422 26.9085 81.9514C26.9442 82.5425 27.2124 83.0955 27.6547 83.4901C28.097 83.8847 28.6776 84.0888 29.2701 84.058Z" fill="#65D9C8"/>
<path d="M29.2701 79.326C29.7781 79.3827 30.2588 79.585 30.6542 79.9084C31.0496 80.2319 31.3427 80.6626 31.4982 81.1487C31.6537 81.6348 31.6649 82.1555 31.5305 82.6478C31.3961 83.1401 31.1217 83.583 30.7406 83.9231C30.3595 84.2632 29.8879 84.4859 29.3828 84.5643C28.8776 84.6428 28.3605 84.5736 27.8939 84.3651C27.4273 84.1566 27.0312 83.8177 26.7533 83.3894C26.4754 82.9612 26.3277 82.4617 26.3279 81.9514C26.3297 81.7891 26.3481 81.6274 26.3828 81.4688C26.344 81.4648 26.3059 81.4563 26.2691 81.4434L25.8866 81.2838C25.6807 81.5266 25.4806 81.7733 25.2913 82.0425C23.2221 84.9508 23.0024 88.1342 24.801 89.1533C26.5996 90.1723 29.7349 88.6394 31.8042 85.7271C33.8735 82.8148 34.0931 79.6353 32.2945 78.6163C30.8068 77.7744 28.407 78.6789 26.4505 80.6612L26.6663 80.7513C26.9382 80.3079 27.3216 79.9431 27.7783 79.6931C28.235 79.4431 28.7493 79.3165 29.2701 79.326Z" fill="#65D9C8"/>
<path d="M123.176 79.3357C122.845 79.4336 122.508 79.5315 122.186 79.6607C122.148 79.6734 122.109 79.6816 122.069 79.6852C122.109 79.8642 122.13 80.047 122.131 80.2305C122.082 81.027 121.721 81.7721 121.124 82.3037C120.528 82.8354 119.746 83.1105 118.948 83.0693C118.089 83.0758 117.261 82.7526 116.634 82.1667C116.945 82.9734 117.357 83.7372 117.861 84.4398C119.93 87.3481 123.066 88.8801 124.864 87.866C126.663 86.8518 126.443 83.6645 124.374 80.7552C124.014 80.2499 123.614 79.7752 123.176 79.3357Z" fill="#65D9C8"/>
<path d="M118.949 77.3897C119.521 77.3784 120.086 77.5193 120.586 77.798C121.086 78.0767 121.502 78.4831 121.793 78.9755C122.031 78.8776 122.283 78.813 122.521 78.7308C120.717 77.2076 118.689 76.585 117.374 77.33C116.898 77.6112 116.541 78.056 116.37 78.581C116.684 78.2034 117.078 77.9005 117.524 77.6944C117.971 77.4883 118.457 77.3842 118.949 77.3897Z" fill="#65D9C8"/>
<path d="M121.551 80.2305C121.61 79.7044 121.508 79.1728 121.258 78.706C121.008 78.2392 120.622 77.8593 120.151 77.6164C119.679 77.3735 119.145 77.2792 118.619 77.3459C118.093 77.4126 117.6 77.6372 117.204 77.99C116.809 78.3427 116.53 78.807 116.405 79.3214C116.28 79.8358 116.314 80.376 116.503 80.8706C116.692 81.3652 117.027 81.7908 117.464 82.0911C117.9 82.3914 118.418 82.5523 118.949 82.5524C119.601 82.5862 120.241 82.3611 120.729 81.9262C121.216 81.4913 121.512 80.8819 121.551 80.2305Z" fill="#65D9C8"/>
<path d="M145.17 170.571C147.054 176.827 142.93 183.471 135.978 185.353C135.879 185.383 135.795 185.452 135.747 185.544C135.698 185.636 135.688 185.744 135.718 185.843C135.749 185.943 135.818 186.026 135.91 186.074C136.002 186.123 136.11 186.133 136.21 186.103C143.621 184.097 148.022 177.043 146.01 170.365C145.865 169.883 145.024 170.088 145.17 170.571Z" fill="#0045A8"/>
<g style="mix-blend-mode:color-dodge" opacity="0.2">
<path d="M82.4909 115.623C82.5586 113.734 82.0496 112.274 80.6178 111.636C78.0827 110.505 78.5936 108.171 80.0676 105.987C80.0153 105.974 79.9674 105.947 79.9292 105.91C79.891 105.872 79.8639 105.824 79.8509 105.772C77.8897 105.336 75.8649 105.264 73.8774 105.558C70.6058 109.558 67.3302 114.526 70.4949 115.934C74.303 117.633 69.8154 123.932 66.4045 127.953C66.4045 127.953 66.2309 128.1 66.224 128.107C69.0145 130.393 72.512 131.645 76.1222 131.649C76.187 131.559 76.2828 131.497 76.3909 131.474C78.3288 127.996 80.914 122.87 81.981 118.793L82.4909 115.623Z" fill="#BBFAFF"/>
</g>
<path d="M71.0687 3.26952V16.5621C71.0687 17.5626 72.8104 17.5645 72.8104 16.5621V3.26952H71.0687Z" fill="#002760"/>
<path d="M73.5067 89.0945C74.0558 89.0327 74.5752 88.8136 75.0022 88.4637C75.4293 88.1138 75.7458 87.648 75.9136 87.1225C76.0813 86.597 76.0931 86.0343 75.9476 85.5023C75.802 84.9702 75.5053 84.4916 75.0932 84.1242C74.6812 83.7567 74.1714 83.5161 73.6255 83.4315C73.0795 83.3468 72.5206 83.4217 72.0163 83.647C71.512 83.8724 71.0838 84.2386 70.7834 84.7015C70.483 85.1644 70.3232 85.7041 70.3233 86.2557C70.3714 87.0523 70.733 87.7978 71.3293 88.3295C71.9255 88.8613 72.7082 89.1362 73.5067 89.0945Z" fill="#009DE2"/>
<path d="M73.5067 88.5747C73.9559 88.5244 74.3809 88.3454 74.7304 88.0593C75.0799 87.7732 75.3388 87.3922 75.4761 86.9623C75.6134 86.5325 75.6231 86.0721 75.504 85.6369C75.3849 85.2017 75.1422 84.8102 74.805 84.5097C74.4679 84.2092 74.0508 84.0125 73.6041 83.9435C73.1574 83.8744 72.7002 83.9359 72.2878 84.1205C71.8754 84.3052 71.5254 84.605 71.2799 84.9839C71.0345 85.3628 70.9043 85.8045 70.9049 86.2557C70.9451 86.9064 71.2409 87.5149 71.7281 87.9491C72.2153 88.3834 72.8544 88.6082 73.5067 88.5747Z" fill="#65D9C8"/>
<path d="M73.5067 96.8367C74.0561 96.7751 74.5758 96.5561 75.0032 96.2061C75.4306 95.8562 75.7474 95.3902 75.9153 94.8644C76.0832 94.3387 76.0951 93.7757 75.9495 93.2434C75.804 92.7111 75.5072 92.2322 75.0949 91.8645C74.6826 91.4969 74.1726 91.2562 73.6263 91.1716C73.08 91.0869 72.5209 91.1619 72.0164 91.3875C71.5119 91.613 71.0836 91.9795 70.7831 92.4427C70.4827 92.906 70.323 93.4461 70.3233 93.9979C70.3716 94.7945 70.7333 95.5397 71.3295 96.0714C71.9257 96.6031 72.7083 96.8782 73.5067 96.8367Z" fill="#009DE2"/>
<path d="M73.5067 96.3179C73.9557 96.2674 74.3805 96.0883 74.7298 95.8022C75.0791 95.5161 75.338 95.1352 75.4752 94.7054C75.6124 94.2757 75.6222 93.8155 75.5031 93.3804C75.3841 92.9452 75.1414 92.5538 74.8044 92.2533C74.4674 91.9528 74.0506 91.7561 73.604 91.6869C73.1575 91.6177 72.7005 91.679 72.2881 91.8633C71.8757 92.0476 71.5255 92.3472 71.2799 92.7258C71.0343 93.1044 70.9037 93.5458 70.9039 93.9969C70.9437 94.6481 71.2394 95.2573 71.7268 95.692C72.2142 96.1267 72.854 96.3516 73.5067 96.3179Z" fill="#65D9C8"/>
<path d="M72.8104 3.70709C73.1805 3.57712 73.5026 3.33843 73.7343 3.02238C73.9661 2.70633 74.0967 2.32771 74.1089 1.93624C74.0488 1.40394 73.7943 0.912382 73.3942 0.555442C72.994 0.198502 72.4762 0.00119019 71.9395 0.00119019C71.4029 0.00119019 70.885 0.198502 70.4849 0.555442C70.0847 0.912382 69.8303 1.40394 69.7702 1.93624C69.7824 2.32771 69.913 2.70633 70.1447 3.02238C70.3764 3.33843 70.6985 3.57712 71.0687 3.70709C71.6285 3.92635 72.2506 3.92635 72.8104 3.70709Z" fill="#0045A8"/>
<path d="M122.132 80.2305C122.131 80.047 122.11 79.8642 122.07 79.6852C122.11 79.6816 122.149 79.6734 122.187 79.6607C122.509 79.5296 122.846 79.4376 123.177 79.3357C123.879 79.1119 124.598 78.9482 125.327 78.8463C125.88 78.7748 125.645 78.026 125.096 78.0964C124.217 78.2192 123.354 78.43 122.518 78.7259C122.276 78.8081 122.028 78.8747 121.79 78.9706C121.499 78.4782 121.083 78.0718 120.583 77.7931C120.083 77.5144 119.518 77.3735 118.946 77.3848C118.454 77.3788 117.967 77.4827 117.52 77.6889C117.073 77.895 116.679 78.1981 116.364 78.5761C115.98 79.0404 115.767 79.623 115.762 80.2256C115.767 80.5907 115.846 80.951 115.996 81.2842C116.146 81.6174 116.362 81.9165 116.632 82.1628C117.259 82.7487 118.087 83.0719 118.946 83.0654C119.744 83.1074 120.526 82.8332 121.123 82.3023C121.72 81.7714 122.082 81.0268 122.132 80.2305ZM116.346 80.2305C116.287 79.7044 116.389 79.1727 116.639 78.7059C116.889 78.2391 117.275 77.8591 117.747 77.6163C118.218 77.3734 118.752 77.2792 119.278 77.3459C119.804 77.4127 120.298 77.6374 120.693 77.9903C121.089 78.3431 121.367 78.8075 121.492 79.322C121.618 79.8365 121.583 80.3767 121.394 80.8713C121.205 81.3659 120.87 81.7914 120.433 82.0916C119.996 82.3918 119.478 82.5525 118.948 82.5524C118.295 82.5859 117.655 82.3607 117.168 81.9258C116.681 81.4909 116.386 80.8816 116.347 80.2305H116.346Z" fill="#0045A8"/>
<path d="M25.8857 81.2838L26.2681 81.4434C26.3049 81.4563 26.3431 81.4648 26.3819 81.4688C26.3472 81.6274 26.3288 81.7891 26.327 81.9514C26.26 82.5463 26.3757 83.1474 26.6585 83.6752C26.9414 84.2031 27.3781 84.6327 27.911 84.9073C28.4439 85.1819 29.0478 85.2886 29.6427 85.2131C30.2376 85.1376 30.7954 84.8835 31.2425 84.4846C31.6896 84.0856 32.0048 83.5605 32.1463 82.9788C32.2879 82.3972 32.2491 81.7863 32.0352 81.2271C31.8212 80.6679 31.4423 80.1867 30.9483 79.8472C30.4544 79.5077 29.8688 79.326 29.2691 79.326C28.7478 79.3168 28.2331 79.4438 27.7761 79.6945C27.3192 79.9452 26.9359 80.3109 26.6643 80.7552L26.4486 80.6651L24.0675 79.6716L24.0537 79.6657L23.9959 79.6412C23.5448 79.4532 23.1485 79.9662 23.431 80.2285C23.4675 80.2635 23.51 80.2917 23.5565 80.3118L25.8857 81.2838ZM29.2701 79.8438C29.6775 79.8896 30.0629 80.052 30.3799 80.3115C30.6969 80.5711 30.9319 80.9166 31.0565 81.3065C31.1811 81.6964 31.19 82.1139 31.0821 82.5087C30.9742 82.9035 30.7542 83.2588 30.4486 83.5315C30.1429 83.8043 29.7648 83.983 29.3597 84.0459C28.9546 84.1089 28.5399 84.0535 28.1656 83.8865C27.7914 83.7194 27.4735 83.4478 27.2505 83.1045C27.0274 82.7611 26.9087 82.3607 26.9086 81.9514C26.9442 81.3603 27.2124 80.8071 27.6547 80.4124C28.097 80.0177 28.6776 79.8133 29.2701 79.8438Z" fill="#0045A8"/>
<path d="M41.2385 31.6325C41.9682 30.2072 41.827 28.7163 40.9718 28.0458C40.8523 27.9517 40.7203 27.8746 40.5795 27.8167C40.4406 27.7621 40.2953 27.7252 40.147 27.7071C40.7001 28.2445 40.6099 29.6443 39.8764 31.0775C39.1428 32.5106 38.013 33.4885 37.2 33.466C37.2699 33.5152 37.3437 33.5588 37.4206 33.5962C37.4707 33.6289 37.5224 33.6589 37.5756 33.6863C38.7691 34.1777 40.4049 33.2575 41.2385 31.6325Z" fill="#0045A8"/>
<path d="M39.8764 31.0814C40.6099 29.6483 40.7002 28.2484 40.147 27.711C40.0759 27.6398 39.9916 27.583 39.8989 27.5436C39.081 27.2098 37.7463 28.2543 36.9166 29.8754C36.0869 31.4964 36.0771 33.0803 36.894 33.4131C36.9917 33.4506 37.0954 33.4698 37.2 33.4699C38.016 33.4924 39.1438 32.5135 39.8764 31.0814Z" fill="#002760"/>
<g style="mix-blend-mode:color-dodge" opacity="0.2">
<path d="M58.6803 85.823C40.6462 98.5851 40.0558 134.117 44.9397 132.928C50.2433 131.638 48.078 123.679 54.1004 109.698C60.1229 95.7159 65.6717 80.8717 58.6803 85.823Z" fill="#BBFAFF"/>
</g>
<g style="mix-blend-mode:color-dodge" opacity="0.2">
<path d="M52.548 22.3025C57.1515 19.8819 62.081 18.1374 67.184 17.1231C68.2765 16.9028 67.8136 15.4031 66.7201 15.6244C61.4719 16.6722 56.4024 18.4701 51.6683 20.9624C50.7023 21.4694 51.58 22.8125 52.548 22.3025Z" fill="#BBFAFF"/>
</g>
<path d="M76.279 103.46C66.9624 103.46 59.4041 110.202 59.4041 118.517C59.4041 126.832 66.9555 133.573 76.279 133.573C85.6026 133.573 93.154 126.833 93.154 118.517C93.154 110.201 85.5986 103.46 76.279 103.46ZM76.279 131.32C68.354 131.32 61.9294 125.587 61.9294 118.517C61.9294 111.446 68.354 105.714 76.279 105.714C84.2041 105.714 90.6277 111.446 90.6277 118.517C90.6277 125.587 84.2031 131.32 76.279 131.32Z" fill="#0045A8"/>
</svg>
